%TF.GenerationSoftware,KiCad,Pcbnew,(7.0.0)*%
%TF.CreationDate,2023-06-01T08:48:15-06:00*%
%TF.ProjectId,phase_D_finalproject,70686173-655f-4445-9f66-696e616c7072,rev?*%
%TF.SameCoordinates,Original*%
%TF.FileFunction,Legend,Bot*%
%TF.FilePolarity,Positive*%
%FSLAX46Y46*%
G04 Gerber Fmt 4.6, Leading zero omitted, Abs format (unit mm)*
G04 Created by KiCad (PCBNEW (7.0.0)) date 2023-06-01 08:48:15*
%MOMM*%
%LPD*%
G01*
G04 APERTURE LIST*
%ADD10C,0.150000*%
%ADD11C,0.120000*%
G04 APERTURE END LIST*
D10*
%TO.C,J1*%
X133078333Y-54207380D02*
X133078333Y-54921666D01*
X133078333Y-54921666D02*
X133125952Y-55064523D01*
X133125952Y-55064523D02*
X133221190Y-55159761D01*
X133221190Y-55159761D02*
X133364047Y-55207380D01*
X133364047Y-55207380D02*
X133459285Y-55207380D01*
X132078333Y-55207380D02*
X132649761Y-55207380D01*
X132364047Y-55207380D02*
X132364047Y-54207380D01*
X132364047Y-54207380D02*
X132459285Y-54350238D01*
X132459285Y-54350238D02*
X132554523Y-54445476D01*
X132554523Y-54445476D02*
X132649761Y-54493095D01*
%TO.C,J2*%
X183628333Y-53907380D02*
X183628333Y-54621666D01*
X183628333Y-54621666D02*
X183675952Y-54764523D01*
X183675952Y-54764523D02*
X183771190Y-54859761D01*
X183771190Y-54859761D02*
X183914047Y-54907380D01*
X183914047Y-54907380D02*
X184009285Y-54907380D01*
X183199761Y-54002619D02*
X183152142Y-53955000D01*
X183152142Y-53955000D02*
X183056904Y-53907380D01*
X183056904Y-53907380D02*
X182818809Y-53907380D01*
X182818809Y-53907380D02*
X182723571Y-53955000D01*
X182723571Y-53955000D02*
X182675952Y-54002619D01*
X182675952Y-54002619D02*
X182628333Y-54097857D01*
X182628333Y-54097857D02*
X182628333Y-54193095D01*
X182628333Y-54193095D02*
X182675952Y-54335952D01*
X182675952Y-54335952D02*
X183247380Y-54907380D01*
X183247380Y-54907380D02*
X182628333Y-54907380D01*
D11*
%TO.C,J1*%
X135345000Y-119900000D02*
X130145000Y-119900000D01*
X135345000Y-56280000D02*
X135345000Y-119900000D01*
X135345000Y-56280000D02*
X132745000Y-56280000D01*
X132745000Y-58880000D02*
X130145000Y-58880000D01*
X132745000Y-56280000D02*
X132745000Y-58880000D01*
X131475000Y-56280000D02*
X130145000Y-56280000D01*
X130145000Y-58880000D02*
X130145000Y-119900000D01*
X130145000Y-56280000D02*
X130145000Y-57610000D01*
%TO.C,J2*%
X185895000Y-119600000D02*
X180695000Y-119600000D01*
X185895000Y-55980000D02*
X185895000Y-119600000D01*
X185895000Y-55980000D02*
X183295000Y-55980000D01*
X183295000Y-58580000D02*
X180695000Y-58580000D01*
X183295000Y-55980000D02*
X183295000Y-58580000D01*
X182025000Y-55980000D02*
X180695000Y-55980000D01*
X180695000Y-58580000D02*
X180695000Y-119600000D01*
X180695000Y-55980000D02*
X180695000Y-57310000D01*
%TD*%
M02*
