%TF.GenerationSoftware,KiCad,Pcbnew,(7.0.0)*%
%TF.CreationDate,2023-06-01T08:48:15-06:00*%
%TF.ProjectId,phase_D_finalproject,70686173-655f-4445-9f66-696e616c7072,rev?*%
%TF.SameCoordinates,Original*%
%TF.FileFunction,Legend,Top*%
%TF.FilePolarity,Positive*%
%FSLAX46Y46*%
G04 Gerber Fmt 4.6, Leading zero omitted, Abs format (unit mm)*
G04 Created by KiCad (PCBNEW (7.0.0)) date 2023-06-01 08:48:15*
%MOMM*%
%LPD*%
G01*
G04 APERTURE LIST*
%ADD10C,0.150000*%
%ADD11C,0.120000*%
G04 APERTURE END LIST*
D10*
X187813095Y-51317380D02*
X187813095Y-50317380D01*
X187813095Y-50317380D02*
X188146428Y-51031666D01*
X188146428Y-51031666D02*
X188479761Y-50317380D01*
X188479761Y-50317380D02*
X188479761Y-51317380D01*
X189384523Y-51317380D02*
X189384523Y-50793571D01*
X189384523Y-50793571D02*
X189336904Y-50698333D01*
X189336904Y-50698333D02*
X189241666Y-50650714D01*
X189241666Y-50650714D02*
X189051190Y-50650714D01*
X189051190Y-50650714D02*
X188955952Y-50698333D01*
X189384523Y-51269761D02*
X189289285Y-51317380D01*
X189289285Y-51317380D02*
X189051190Y-51317380D01*
X189051190Y-51317380D02*
X188955952Y-51269761D01*
X188955952Y-51269761D02*
X188908333Y-51174523D01*
X188908333Y-51174523D02*
X188908333Y-51079285D01*
X188908333Y-51079285D02*
X188955952Y-50984047D01*
X188955952Y-50984047D02*
X189051190Y-50936428D01*
X189051190Y-50936428D02*
X189289285Y-50936428D01*
X189289285Y-50936428D02*
X189384523Y-50888809D01*
X190289285Y-51317380D02*
X190289285Y-50317380D01*
X190289285Y-51269761D02*
X190194047Y-51317380D01*
X190194047Y-51317380D02*
X190003571Y-51317380D01*
X190003571Y-51317380D02*
X189908333Y-51269761D01*
X189908333Y-51269761D02*
X189860714Y-51222142D01*
X189860714Y-51222142D02*
X189813095Y-51126904D01*
X189813095Y-51126904D02*
X189813095Y-50841190D01*
X189813095Y-50841190D02*
X189860714Y-50745952D01*
X189860714Y-50745952D02*
X189908333Y-50698333D01*
X189908333Y-50698333D02*
X190003571Y-50650714D01*
X190003571Y-50650714D02*
X190194047Y-50650714D01*
X190194047Y-50650714D02*
X190289285Y-50698333D01*
X191146428Y-51269761D02*
X191051190Y-51317380D01*
X191051190Y-51317380D02*
X190860714Y-51317380D01*
X190860714Y-51317380D02*
X190765476Y-51269761D01*
X190765476Y-51269761D02*
X190717857Y-51174523D01*
X190717857Y-51174523D02*
X190717857Y-50793571D01*
X190717857Y-50793571D02*
X190765476Y-50698333D01*
X190765476Y-50698333D02*
X190860714Y-50650714D01*
X190860714Y-50650714D02*
X191051190Y-50650714D01*
X191051190Y-50650714D02*
X191146428Y-50698333D01*
X191146428Y-50698333D02*
X191194047Y-50793571D01*
X191194047Y-50793571D02*
X191194047Y-50888809D01*
X191194047Y-50888809D02*
X190717857Y-50984047D01*
X191765476Y-51317380D02*
X191670238Y-51269761D01*
X191670238Y-51269761D02*
X191622619Y-51174523D01*
X191622619Y-51174523D02*
X191622619Y-50317380D01*
X192146429Y-51317380D02*
X192146429Y-50650714D01*
X192146429Y-50317380D02*
X192098810Y-50365000D01*
X192098810Y-50365000D02*
X192146429Y-50412619D01*
X192146429Y-50412619D02*
X192194048Y-50365000D01*
X192194048Y-50365000D02*
X192146429Y-50317380D01*
X192146429Y-50317380D02*
X192146429Y-50412619D01*
X192622619Y-50650714D02*
X192622619Y-51317380D01*
X192622619Y-50745952D02*
X192670238Y-50698333D01*
X192670238Y-50698333D02*
X192765476Y-50650714D01*
X192765476Y-50650714D02*
X192908333Y-50650714D01*
X192908333Y-50650714D02*
X193003571Y-50698333D01*
X193003571Y-50698333D02*
X193051190Y-50793571D01*
X193051190Y-50793571D02*
X193051190Y-51317380D01*
X193908333Y-51269761D02*
X193813095Y-51317380D01*
X193813095Y-51317380D02*
X193622619Y-51317380D01*
X193622619Y-51317380D02*
X193527381Y-51269761D01*
X193527381Y-51269761D02*
X193479762Y-51174523D01*
X193479762Y-51174523D02*
X193479762Y-50793571D01*
X193479762Y-50793571D02*
X193527381Y-50698333D01*
X193527381Y-50698333D02*
X193622619Y-50650714D01*
X193622619Y-50650714D02*
X193813095Y-50650714D01*
X193813095Y-50650714D02*
X193908333Y-50698333D01*
X193908333Y-50698333D02*
X193955952Y-50793571D01*
X193955952Y-50793571D02*
X193955952Y-50888809D01*
X193955952Y-50888809D02*
X193479762Y-50984047D01*
X195317857Y-50793571D02*
X195460714Y-50841190D01*
X195460714Y-50841190D02*
X195508333Y-50888809D01*
X195508333Y-50888809D02*
X195555952Y-50984047D01*
X195555952Y-50984047D02*
X195555952Y-51126904D01*
X195555952Y-51126904D02*
X195508333Y-51222142D01*
X195508333Y-51222142D02*
X195460714Y-51269761D01*
X195460714Y-51269761D02*
X195365476Y-51317380D01*
X195365476Y-51317380D02*
X194984524Y-51317380D01*
X194984524Y-51317380D02*
X194984524Y-50317380D01*
X194984524Y-50317380D02*
X195317857Y-50317380D01*
X195317857Y-50317380D02*
X195413095Y-50365000D01*
X195413095Y-50365000D02*
X195460714Y-50412619D01*
X195460714Y-50412619D02*
X195508333Y-50507857D01*
X195508333Y-50507857D02*
X195508333Y-50603095D01*
X195508333Y-50603095D02*
X195460714Y-50698333D01*
X195460714Y-50698333D02*
X195413095Y-50745952D01*
X195413095Y-50745952D02*
X195317857Y-50793571D01*
X195317857Y-50793571D02*
X194984524Y-50793571D01*
X196127381Y-51317380D02*
X196032143Y-51269761D01*
X196032143Y-51269761D02*
X195984524Y-51222142D01*
X195984524Y-51222142D02*
X195936905Y-51126904D01*
X195936905Y-51126904D02*
X195936905Y-50841190D01*
X195936905Y-50841190D02*
X195984524Y-50745952D01*
X195984524Y-50745952D02*
X196032143Y-50698333D01*
X196032143Y-50698333D02*
X196127381Y-50650714D01*
X196127381Y-50650714D02*
X196270238Y-50650714D01*
X196270238Y-50650714D02*
X196365476Y-50698333D01*
X196365476Y-50698333D02*
X196413095Y-50745952D01*
X196413095Y-50745952D02*
X196460714Y-50841190D01*
X196460714Y-50841190D02*
X196460714Y-51126904D01*
X196460714Y-51126904D02*
X196413095Y-51222142D01*
X196413095Y-51222142D02*
X196365476Y-51269761D01*
X196365476Y-51269761D02*
X196270238Y-51317380D01*
X196270238Y-51317380D02*
X196127381Y-51317380D01*
X196889286Y-51317380D02*
X196889286Y-50317380D01*
X197317857Y-51317380D02*
X197317857Y-50793571D01*
X197317857Y-50793571D02*
X197270238Y-50698333D01*
X197270238Y-50698333D02*
X197175000Y-50650714D01*
X197175000Y-50650714D02*
X197032143Y-50650714D01*
X197032143Y-50650714D02*
X196936905Y-50698333D01*
X196936905Y-50698333D02*
X196889286Y-50745952D01*
X197794048Y-50650714D02*
X197794048Y-51317380D01*
X197794048Y-50745952D02*
X197841667Y-50698333D01*
X197841667Y-50698333D02*
X197936905Y-50650714D01*
X197936905Y-50650714D02*
X198079762Y-50650714D01*
X198079762Y-50650714D02*
X198175000Y-50698333D01*
X198175000Y-50698333D02*
X198222619Y-50793571D01*
X198222619Y-50793571D02*
X198222619Y-51317380D01*
X188289285Y-51937380D02*
X187813095Y-51937380D01*
X187813095Y-51937380D02*
X187765476Y-52413571D01*
X187765476Y-52413571D02*
X187813095Y-52365952D01*
X187813095Y-52365952D02*
X187908333Y-52318333D01*
X187908333Y-52318333D02*
X188146428Y-52318333D01*
X188146428Y-52318333D02*
X188241666Y-52365952D01*
X188241666Y-52365952D02*
X188289285Y-52413571D01*
X188289285Y-52413571D02*
X188336904Y-52508809D01*
X188336904Y-52508809D02*
X188336904Y-52746904D01*
X188336904Y-52746904D02*
X188289285Y-52842142D01*
X188289285Y-52842142D02*
X188241666Y-52889761D01*
X188241666Y-52889761D02*
X188146428Y-52937380D01*
X188146428Y-52937380D02*
X187908333Y-52937380D01*
X187908333Y-52937380D02*
X187813095Y-52889761D01*
X187813095Y-52889761D02*
X187765476Y-52842142D01*
X189479761Y-51889761D02*
X188622619Y-53175476D01*
X189717857Y-51937380D02*
X190336904Y-51937380D01*
X190336904Y-51937380D02*
X190003571Y-52318333D01*
X190003571Y-52318333D02*
X190146428Y-52318333D01*
X190146428Y-52318333D02*
X190241666Y-52365952D01*
X190241666Y-52365952D02*
X190289285Y-52413571D01*
X190289285Y-52413571D02*
X190336904Y-52508809D01*
X190336904Y-52508809D02*
X190336904Y-52746904D01*
X190336904Y-52746904D02*
X190289285Y-52842142D01*
X190289285Y-52842142D02*
X190241666Y-52889761D01*
X190241666Y-52889761D02*
X190146428Y-52937380D01*
X190146428Y-52937380D02*
X189860714Y-52937380D01*
X189860714Y-52937380D02*
X189765476Y-52889761D01*
X189765476Y-52889761D02*
X189717857Y-52842142D01*
X190955952Y-51937380D02*
X191051190Y-51937380D01*
X191051190Y-51937380D02*
X191146428Y-51985000D01*
X191146428Y-51985000D02*
X191194047Y-52032619D01*
X191194047Y-52032619D02*
X191241666Y-52127857D01*
X191241666Y-52127857D02*
X191289285Y-52318333D01*
X191289285Y-52318333D02*
X191289285Y-52556428D01*
X191289285Y-52556428D02*
X191241666Y-52746904D01*
X191241666Y-52746904D02*
X191194047Y-52842142D01*
X191194047Y-52842142D02*
X191146428Y-52889761D01*
X191146428Y-52889761D02*
X191051190Y-52937380D01*
X191051190Y-52937380D02*
X190955952Y-52937380D01*
X190955952Y-52937380D02*
X190860714Y-52889761D01*
X190860714Y-52889761D02*
X190813095Y-52842142D01*
X190813095Y-52842142D02*
X190765476Y-52746904D01*
X190765476Y-52746904D02*
X190717857Y-52556428D01*
X190717857Y-52556428D02*
X190717857Y-52318333D01*
X190717857Y-52318333D02*
X190765476Y-52127857D01*
X190765476Y-52127857D02*
X190813095Y-52032619D01*
X190813095Y-52032619D02*
X190860714Y-51985000D01*
X190860714Y-51985000D02*
X190955952Y-51937380D01*
X192432142Y-51889761D02*
X191575000Y-53175476D01*
X192717857Y-52032619D02*
X192765476Y-51985000D01*
X192765476Y-51985000D02*
X192860714Y-51937380D01*
X192860714Y-51937380D02*
X193098809Y-51937380D01*
X193098809Y-51937380D02*
X193194047Y-51985000D01*
X193194047Y-51985000D02*
X193241666Y-52032619D01*
X193241666Y-52032619D02*
X193289285Y-52127857D01*
X193289285Y-52127857D02*
X193289285Y-52223095D01*
X193289285Y-52223095D02*
X193241666Y-52365952D01*
X193241666Y-52365952D02*
X192670238Y-52937380D01*
X192670238Y-52937380D02*
X193289285Y-52937380D01*
X193908333Y-51937380D02*
X194003571Y-51937380D01*
X194003571Y-51937380D02*
X194098809Y-51985000D01*
X194098809Y-51985000D02*
X194146428Y-52032619D01*
X194146428Y-52032619D02*
X194194047Y-52127857D01*
X194194047Y-52127857D02*
X194241666Y-52318333D01*
X194241666Y-52318333D02*
X194241666Y-52556428D01*
X194241666Y-52556428D02*
X194194047Y-52746904D01*
X194194047Y-52746904D02*
X194146428Y-52842142D01*
X194146428Y-52842142D02*
X194098809Y-52889761D01*
X194098809Y-52889761D02*
X194003571Y-52937380D01*
X194003571Y-52937380D02*
X193908333Y-52937380D01*
X193908333Y-52937380D02*
X193813095Y-52889761D01*
X193813095Y-52889761D02*
X193765476Y-52842142D01*
X193765476Y-52842142D02*
X193717857Y-52746904D01*
X193717857Y-52746904D02*
X193670238Y-52556428D01*
X193670238Y-52556428D02*
X193670238Y-52318333D01*
X193670238Y-52318333D02*
X193717857Y-52127857D01*
X193717857Y-52127857D02*
X193765476Y-52032619D01*
X193765476Y-52032619D02*
X193813095Y-51985000D01*
X193813095Y-51985000D02*
X193908333Y-51937380D01*
X194622619Y-52032619D02*
X194670238Y-51985000D01*
X194670238Y-51985000D02*
X194765476Y-51937380D01*
X194765476Y-51937380D02*
X195003571Y-51937380D01*
X195003571Y-51937380D02*
X195098809Y-51985000D01*
X195098809Y-51985000D02*
X195146428Y-52032619D01*
X195146428Y-52032619D02*
X195194047Y-52127857D01*
X195194047Y-52127857D02*
X195194047Y-52223095D01*
X195194047Y-52223095D02*
X195146428Y-52365952D01*
X195146428Y-52365952D02*
X194575000Y-52937380D01*
X194575000Y-52937380D02*
X195194047Y-52937380D01*
X195527381Y-51937380D02*
X196146428Y-51937380D01*
X196146428Y-51937380D02*
X195813095Y-52318333D01*
X195813095Y-52318333D02*
X195955952Y-52318333D01*
X195955952Y-52318333D02*
X196051190Y-52365952D01*
X196051190Y-52365952D02*
X196098809Y-52413571D01*
X196098809Y-52413571D02*
X196146428Y-52508809D01*
X196146428Y-52508809D02*
X196146428Y-52746904D01*
X196146428Y-52746904D02*
X196098809Y-52842142D01*
X196098809Y-52842142D02*
X196051190Y-52889761D01*
X196051190Y-52889761D02*
X195955952Y-52937380D01*
X195955952Y-52937380D02*
X195670238Y-52937380D01*
X195670238Y-52937380D02*
X195575000Y-52889761D01*
X195575000Y-52889761D02*
X195527381Y-52842142D01*
X187670238Y-53557380D02*
X188003571Y-54557380D01*
X188003571Y-54557380D02*
X188336904Y-53557380D01*
X189051190Y-54509761D02*
X188955952Y-54557380D01*
X188955952Y-54557380D02*
X188765476Y-54557380D01*
X188765476Y-54557380D02*
X188670238Y-54509761D01*
X188670238Y-54509761D02*
X188622619Y-54414523D01*
X188622619Y-54414523D02*
X188622619Y-54033571D01*
X188622619Y-54033571D02*
X188670238Y-53938333D01*
X188670238Y-53938333D02*
X188765476Y-53890714D01*
X188765476Y-53890714D02*
X188955952Y-53890714D01*
X188955952Y-53890714D02*
X189051190Y-53938333D01*
X189051190Y-53938333D02*
X189098809Y-54033571D01*
X189098809Y-54033571D02*
X189098809Y-54128809D01*
X189098809Y-54128809D02*
X188622619Y-54224047D01*
X189527381Y-54557380D02*
X189527381Y-53890714D01*
X189527381Y-54081190D02*
X189575000Y-53985952D01*
X189575000Y-53985952D02*
X189622619Y-53938333D01*
X189622619Y-53938333D02*
X189717857Y-53890714D01*
X189717857Y-53890714D02*
X189813095Y-53890714D01*
X190098810Y-54509761D02*
X190194048Y-54557380D01*
X190194048Y-54557380D02*
X190384524Y-54557380D01*
X190384524Y-54557380D02*
X190479762Y-54509761D01*
X190479762Y-54509761D02*
X190527381Y-54414523D01*
X190527381Y-54414523D02*
X190527381Y-54366904D01*
X190527381Y-54366904D02*
X190479762Y-54271666D01*
X190479762Y-54271666D02*
X190384524Y-54224047D01*
X190384524Y-54224047D02*
X190241667Y-54224047D01*
X190241667Y-54224047D02*
X190146429Y-54176428D01*
X190146429Y-54176428D02*
X190098810Y-54081190D01*
X190098810Y-54081190D02*
X190098810Y-54033571D01*
X190098810Y-54033571D02*
X190146429Y-53938333D01*
X190146429Y-53938333D02*
X190241667Y-53890714D01*
X190241667Y-53890714D02*
X190384524Y-53890714D01*
X190384524Y-53890714D02*
X190479762Y-53938333D01*
X190955953Y-54557380D02*
X190955953Y-53890714D01*
X190955953Y-53557380D02*
X190908334Y-53605000D01*
X190908334Y-53605000D02*
X190955953Y-53652619D01*
X190955953Y-53652619D02*
X191003572Y-53605000D01*
X191003572Y-53605000D02*
X190955953Y-53557380D01*
X190955953Y-53557380D02*
X190955953Y-53652619D01*
X191575000Y-54557380D02*
X191479762Y-54509761D01*
X191479762Y-54509761D02*
X191432143Y-54462142D01*
X191432143Y-54462142D02*
X191384524Y-54366904D01*
X191384524Y-54366904D02*
X191384524Y-54081190D01*
X191384524Y-54081190D02*
X191432143Y-53985952D01*
X191432143Y-53985952D02*
X191479762Y-53938333D01*
X191479762Y-53938333D02*
X191575000Y-53890714D01*
X191575000Y-53890714D02*
X191717857Y-53890714D01*
X191717857Y-53890714D02*
X191813095Y-53938333D01*
X191813095Y-53938333D02*
X191860714Y-53985952D01*
X191860714Y-53985952D02*
X191908333Y-54081190D01*
X191908333Y-54081190D02*
X191908333Y-54366904D01*
X191908333Y-54366904D02*
X191860714Y-54462142D01*
X191860714Y-54462142D02*
X191813095Y-54509761D01*
X191813095Y-54509761D02*
X191717857Y-54557380D01*
X191717857Y-54557380D02*
X191575000Y-54557380D01*
X192336905Y-53890714D02*
X192336905Y-54557380D01*
X192336905Y-53985952D02*
X192384524Y-53938333D01*
X192384524Y-53938333D02*
X192479762Y-53890714D01*
X192479762Y-53890714D02*
X192622619Y-53890714D01*
X192622619Y-53890714D02*
X192717857Y-53938333D01*
X192717857Y-53938333D02*
X192765476Y-54033571D01*
X192765476Y-54033571D02*
X192765476Y-54557380D01*
X193794048Y-53652619D02*
X193841667Y-53605000D01*
X193841667Y-53605000D02*
X193936905Y-53557380D01*
X193936905Y-53557380D02*
X194175000Y-53557380D01*
X194175000Y-53557380D02*
X194270238Y-53605000D01*
X194270238Y-53605000D02*
X194317857Y-53652619D01*
X194317857Y-53652619D02*
X194365476Y-53747857D01*
X194365476Y-53747857D02*
X194365476Y-53843095D01*
X194365476Y-53843095D02*
X194317857Y-53985952D01*
X194317857Y-53985952D02*
X193746429Y-54557380D01*
X193746429Y-54557380D02*
X194365476Y-54557380D01*
%TO.C,D1*%
X151336905Y-92472380D02*
X151336905Y-91472380D01*
X151336905Y-91472380D02*
X151575000Y-91472380D01*
X151575000Y-91472380D02*
X151717857Y-91520000D01*
X151717857Y-91520000D02*
X151813095Y-91615238D01*
X151813095Y-91615238D02*
X151860714Y-91710476D01*
X151860714Y-91710476D02*
X151908333Y-91900952D01*
X151908333Y-91900952D02*
X151908333Y-92043809D01*
X151908333Y-92043809D02*
X151860714Y-92234285D01*
X151860714Y-92234285D02*
X151813095Y-92329523D01*
X151813095Y-92329523D02*
X151717857Y-92424761D01*
X151717857Y-92424761D02*
X151575000Y-92472380D01*
X151575000Y-92472380D02*
X151336905Y-92472380D01*
X152860714Y-92472380D02*
X152289286Y-92472380D01*
X152575000Y-92472380D02*
X152575000Y-91472380D01*
X152575000Y-91472380D02*
X152479762Y-91615238D01*
X152479762Y-91615238D02*
X152384524Y-91710476D01*
X152384524Y-91710476D02*
X152289286Y-91758095D01*
X148003095Y-92792380D02*
X148003095Y-91792380D01*
X148574523Y-92792380D02*
X148145952Y-92220952D01*
X148574523Y-91792380D02*
X148003095Y-92363809D01*
%TO.C,M1*%
X151380476Y-98092380D02*
X151380476Y-97092380D01*
X151380476Y-97092380D02*
X151713809Y-97806666D01*
X151713809Y-97806666D02*
X152047142Y-97092380D01*
X152047142Y-97092380D02*
X152047142Y-98092380D01*
X153047142Y-98092380D02*
X152475714Y-98092380D01*
X152761428Y-98092380D02*
X152761428Y-97092380D01*
X152761428Y-97092380D02*
X152666190Y-97235238D01*
X152666190Y-97235238D02*
X152570952Y-97330476D01*
X152570952Y-97330476D02*
X152475714Y-97378095D01*
%TO.C,R1*%
X139112380Y-66106666D02*
X138636190Y-66439999D01*
X139112380Y-66678094D02*
X138112380Y-66678094D01*
X138112380Y-66678094D02*
X138112380Y-66297142D01*
X138112380Y-66297142D02*
X138160000Y-66201904D01*
X138160000Y-66201904D02*
X138207619Y-66154285D01*
X138207619Y-66154285D02*
X138302857Y-66106666D01*
X138302857Y-66106666D02*
X138445714Y-66106666D01*
X138445714Y-66106666D02*
X138540952Y-66154285D01*
X138540952Y-66154285D02*
X138588571Y-66201904D01*
X138588571Y-66201904D02*
X138636190Y-66297142D01*
X138636190Y-66297142D02*
X138636190Y-66678094D01*
X139112380Y-65154285D02*
X139112380Y-65725713D01*
X139112380Y-65439999D02*
X138112380Y-65439999D01*
X138112380Y-65439999D02*
X138255238Y-65535237D01*
X138255238Y-65535237D02*
X138350476Y-65630475D01*
X138350476Y-65630475D02*
X138398095Y-65725713D01*
%TO.C,U1*%
X143035595Y-60629880D02*
X143035595Y-61439404D01*
X143035595Y-61439404D02*
X143083214Y-61534642D01*
X143083214Y-61534642D02*
X143130833Y-61582261D01*
X143130833Y-61582261D02*
X143226071Y-61629880D01*
X143226071Y-61629880D02*
X143416547Y-61629880D01*
X143416547Y-61629880D02*
X143511785Y-61582261D01*
X143511785Y-61582261D02*
X143559404Y-61534642D01*
X143559404Y-61534642D02*
X143607023Y-61439404D01*
X143607023Y-61439404D02*
X143607023Y-60629880D01*
X144607023Y-61629880D02*
X144035595Y-61629880D01*
X144321309Y-61629880D02*
X144321309Y-60629880D01*
X144321309Y-60629880D02*
X144226071Y-60772738D01*
X144226071Y-60772738D02*
X144130833Y-60867976D01*
X144130833Y-60867976D02*
X144035595Y-60915595D01*
%TO.C,R2*%
X161588333Y-83847380D02*
X161255000Y-83371190D01*
X161016905Y-83847380D02*
X161016905Y-82847380D01*
X161016905Y-82847380D02*
X161397857Y-82847380D01*
X161397857Y-82847380D02*
X161493095Y-82895000D01*
X161493095Y-82895000D02*
X161540714Y-82942619D01*
X161540714Y-82942619D02*
X161588333Y-83037857D01*
X161588333Y-83037857D02*
X161588333Y-83180714D01*
X161588333Y-83180714D02*
X161540714Y-83275952D01*
X161540714Y-83275952D02*
X161493095Y-83323571D01*
X161493095Y-83323571D02*
X161397857Y-83371190D01*
X161397857Y-83371190D02*
X161016905Y-83371190D01*
X161969286Y-82942619D02*
X162016905Y-82895000D01*
X162016905Y-82895000D02*
X162112143Y-82847380D01*
X162112143Y-82847380D02*
X162350238Y-82847380D01*
X162350238Y-82847380D02*
X162445476Y-82895000D01*
X162445476Y-82895000D02*
X162493095Y-82942619D01*
X162493095Y-82942619D02*
X162540714Y-83037857D01*
X162540714Y-83037857D02*
X162540714Y-83133095D01*
X162540714Y-83133095D02*
X162493095Y-83275952D01*
X162493095Y-83275952D02*
X161921667Y-83847380D01*
X161921667Y-83847380D02*
X162540714Y-83847380D01*
%TO.C,Q1*%
X151819761Y-77017619D02*
X151724523Y-76970000D01*
X151724523Y-76970000D02*
X151629285Y-76874761D01*
X151629285Y-76874761D02*
X151486428Y-76731904D01*
X151486428Y-76731904D02*
X151391190Y-76684285D01*
X151391190Y-76684285D02*
X151295952Y-76684285D01*
X151343571Y-76922380D02*
X151248333Y-76874761D01*
X151248333Y-76874761D02*
X151153095Y-76779523D01*
X151153095Y-76779523D02*
X151105476Y-76589047D01*
X151105476Y-76589047D02*
X151105476Y-76255714D01*
X151105476Y-76255714D02*
X151153095Y-76065238D01*
X151153095Y-76065238D02*
X151248333Y-75970000D01*
X151248333Y-75970000D02*
X151343571Y-75922380D01*
X151343571Y-75922380D02*
X151534047Y-75922380D01*
X151534047Y-75922380D02*
X151629285Y-75970000D01*
X151629285Y-75970000D02*
X151724523Y-76065238D01*
X151724523Y-76065238D02*
X151772142Y-76255714D01*
X151772142Y-76255714D02*
X151772142Y-76589047D01*
X151772142Y-76589047D02*
X151724523Y-76779523D01*
X151724523Y-76779523D02*
X151629285Y-76874761D01*
X151629285Y-76874761D02*
X151534047Y-76922380D01*
X151534047Y-76922380D02*
X151343571Y-76922380D01*
X152724523Y-76922380D02*
X152153095Y-76922380D01*
X152438809Y-76922380D02*
X152438809Y-75922380D01*
X152438809Y-75922380D02*
X152343571Y-76065238D01*
X152343571Y-76065238D02*
X152248333Y-76160476D01*
X152248333Y-76160476D02*
X152153095Y-76208095D01*
D11*
%TO.C,D1*%
X149305000Y-94225000D02*
X149955000Y-94225000D01*
X149955000Y-93105000D02*
X149955000Y-95345000D01*
X149955000Y-95345000D02*
X154195000Y-95345000D01*
X150555000Y-93105000D02*
X150555000Y-95345000D01*
X150675000Y-93105000D02*
X150675000Y-95345000D01*
X150795000Y-93105000D02*
X150795000Y-95345000D01*
X154195000Y-93105000D02*
X149955000Y-93105000D01*
X154195000Y-95345000D02*
X154195000Y-93105000D01*
X154845000Y-94225000D02*
X154195000Y-94225000D01*
%TO.C,M1*%
X149790000Y-98675000D02*
X151140000Y-98675000D01*
X149790000Y-99025000D02*
X149790000Y-98675000D01*
X149790000Y-105925000D02*
X149790000Y-99025000D01*
X149790000Y-106525000D02*
X150790000Y-106525000D01*
X149790000Y-109825000D02*
X149790000Y-106525000D01*
X150790000Y-105925000D02*
X149790000Y-105925000D01*
X150790000Y-106525000D02*
X150790000Y-105925000D01*
X151140000Y-98625000D02*
X153240000Y-98625000D01*
X151140000Y-98675000D02*
X151140000Y-98625000D01*
X153240000Y-98625000D02*
X153240000Y-98675000D01*
X153240000Y-98675000D02*
X154590000Y-98675000D01*
X153590000Y-105925000D02*
X153590000Y-106525000D01*
X153590000Y-106525000D02*
X154590000Y-106525000D01*
X154590000Y-98675000D02*
X154590000Y-99025000D01*
X154590000Y-99025000D02*
X154590000Y-105925000D01*
X154590000Y-105925000D02*
X153590000Y-105925000D01*
X154590000Y-106525000D02*
X154590000Y-109825000D01*
X154590000Y-109825000D02*
X149790000Y-109825000D01*
%TO.C,R1*%
X136825000Y-64320000D02*
X136825000Y-67480000D01*
X137745000Y-63400000D02*
G75*
G03*
X137745000Y-63400000I-920000J0D01*
G01*
%TO.C,U1*%
X141637500Y-62162500D02*
X141637500Y-64162500D01*
X141637500Y-62162500D02*
X143247500Y-62162500D01*
X141917500Y-74702500D02*
X141917500Y-62452500D01*
X141927500Y-62442500D02*
X147667500Y-62442500D01*
X147677500Y-62442500D02*
X147677500Y-74702500D01*
X147677500Y-74702500D02*
X141917500Y-74702500D01*
%TO.C,R2*%
X160135000Y-85400000D02*
X163295000Y-85400000D01*
X160135000Y-85400000D02*
G75*
G03*
X160135000Y-85400000I-920000J0D01*
G01*
%TO.C,Q1*%
X147249144Y-78486961D02*
X148140098Y-79377916D01*
X148026961Y-77709144D02*
X147249144Y-78486961D01*
X148917916Y-78600098D02*
X148026961Y-77709144D01*
X148140327Y-79377629D02*
G75*
G03*
X148917916Y-78600099I3774673J-2997371D01*
G01*
%TD*%
M02*
