%TF.GenerationSoftware,KiCad,Pcbnew,(7.0.0)*%
%TF.CreationDate,2023-06-01T08:48:15-06:00*%
%TF.ProjectId,phase_D_finalproject,70686173-655f-4445-9f66-696e616c7072,rev?*%
%TF.SameCoordinates,Original*%
%TF.FileFunction,Copper,L1,Top*%
%TF.FilePolarity,Positive*%
%FSLAX46Y46*%
G04 Gerber Fmt 4.6, Leading zero omitted, Abs format (unit mm)*
G04 Created by KiCad (PCBNEW (7.0.0)) date 2023-06-01 08:48:15*
%MOMM*%
%LPD*%
G01*
G04 APERTURE LIST*
%TA.AperFunction,ComponentPad*%
%ADD10R,1.600000X1.600000*%
%TD*%
%TA.AperFunction,ComponentPad*%
%ADD11O,1.600000X1.600000*%
%TD*%
%TA.AperFunction,SMDPad,CuDef*%
%ADD12R,1.100000X1.300000*%
%TD*%
%TA.AperFunction,SMDPad,CuDef*%
%ADD13R,1.000000X0.650000*%
%TD*%
%TA.AperFunction,SMDPad,CuDef*%
%ADD14R,1.000000X1.500000*%
%TD*%
%TA.AperFunction,SMDPad,CuDef*%
%ADD15R,3.400000X4.300000*%
%TD*%
%TA.AperFunction,ComponentPad*%
%ADD16C,1.400000*%
%TD*%
%TA.AperFunction,ComponentPad*%
%ADD17O,1.400000X1.400000*%
%TD*%
%TA.AperFunction,ComponentPad*%
%ADD18R,1.500000X1.500000*%
%TD*%
%TA.AperFunction,ComponentPad*%
%ADD19C,1.500000*%
%TD*%
%TA.AperFunction,ComponentPad*%
%ADD20O,1.600000X1.200000*%
%TD*%
%TA.AperFunction,ComponentPad*%
%ADD21O,1.200000X1.200000*%
%TD*%
%TA.AperFunction,ComponentPad*%
%ADD22R,1.700000X1.700000*%
%TD*%
%TA.AperFunction,ComponentPad*%
%ADD23O,1.700000X1.700000*%
%TD*%
%TA.AperFunction,Conductor*%
%ADD24C,0.250000*%
%TD*%
G04 APERTURE END LIST*
D10*
%TO.P,D1,1,K*%
%TO.N,+BATT*%
X148264999Y-94224999D03*
D11*
%TO.P,D1,2,A*%
%TO.N,Net-(D1-A)*%
X155884999Y-94224999D03*
%TD*%
D12*
%TO.P,M1,1,+*%
%TO.N,+BATT*%
X150539999Y-99874999D03*
%TO.P,M1,2,-*%
%TO.N,Net-(D1-A)*%
X153839999Y-99874999D03*
D13*
%TO.P,M1,SH*%
%TO.N,N/C*%
X151389999Y-105749999D03*
D14*
X152189999Y-100374999D03*
D15*
X152189999Y-103274999D03*
D13*
X152989999Y-105749999D03*
%TD*%
D16*
%TO.P,R1,1*%
%TO.N,+5V*%
X136825000Y-63400000D03*
D17*
%TO.P,R1,2*%
%TO.N,Temperature Sensor*%
X136824999Y-68479999D03*
%TD*%
D18*
%TO.P,U1,1,VCC*%
%TO.N,+5V*%
X144797499Y-64762499D03*
D19*
%TO.P,U1,2,IO*%
%TO.N,Temperature Sensor*%
X144797500Y-67302500D03*
%TO.P,U1,3,NC*%
%TO.N,unconnected-(U1-NC-Pad3)*%
X144797500Y-69842500D03*
%TO.P,U1,4,GND*%
%TO.N,GND*%
X144797500Y-72382500D03*
%TD*%
D16*
%TO.P,R2,1*%
%TO.N,Motor*%
X159215000Y-85400000D03*
D17*
%TO.P,R2,2*%
%TO.N,Net-(Q1-B)*%
X164294999Y-85399999D03*
%TD*%
D20*
%TO.P,Q1,1,E*%
%TO.N,GND*%
X149374999Y-82374999D03*
D21*
%TO.P,Q1,2,B*%
%TO.N,Net-(Q1-B)*%
X151914999Y-84914999D03*
%TO.P,Q1,3,C*%
%TO.N,Net-(D1-A)*%
X154454999Y-82374999D03*
%TD*%
D22*
%TO.P,J1,1,Pin_1*%
%TO.N,GND*%
X131474999Y-57609999D03*
D23*
%TO.P,J1,2,Pin_2*%
X134014999Y-57609999D03*
%TO.P,J1,3,Pin_3*%
%TO.N,unconnected-(J1-Pin_3-Pad3)*%
X131474999Y-60149999D03*
%TO.P,J1,4,Pin_4*%
%TO.N,unconnected-(J1-Pin_4-Pad4)*%
X134014999Y-60149999D03*
%TO.P,J1,5,Pin_5*%
%TO.N,unconnected-(J1-Pin_5-Pad5)*%
X131474999Y-62689999D03*
%TO.P,J1,6,Pin_6*%
%TO.N,unconnected-(J1-Pin_6-Pad6)*%
X134014999Y-62689999D03*
%TO.P,J1,7,Pin_7*%
%TO.N,unconnected-(J1-Pin_7-Pad7)*%
X131474999Y-65229999D03*
%TO.P,J1,8,Pin_8*%
%TO.N,unconnected-(J1-Pin_8-Pad8)*%
X134014999Y-65229999D03*
%TO.P,J1,9,Pin_9*%
%TO.N,unconnected-(J1-Pin_9-Pad9)*%
X131474999Y-67769999D03*
%TO.P,J1,10,Pin_10*%
%TO.N,unconnected-(J1-Pin_10-Pad10)*%
X134014999Y-67769999D03*
%TO.P,J1,11,Pin_11*%
%TO.N,unconnected-(J1-Pin_11-Pad11)*%
X131474999Y-70309999D03*
%TO.P,J1,12,Pin_12*%
%TO.N,Motor*%
X134014999Y-70309999D03*
%TO.P,J1,13,Pin_13*%
%TO.N,unconnected-(J1-Pin_13-Pad13)*%
X131474999Y-72849999D03*
%TO.P,J1,14,Pin_14*%
%TO.N,unconnected-(J1-Pin_14-Pad14)*%
X134014999Y-72849999D03*
%TO.P,J1,15,Pin_15*%
%TO.N,unconnected-(J1-Pin_15-Pad15)*%
X131474999Y-75389999D03*
%TO.P,J1,16,Pin_16*%
%TO.N,unconnected-(J1-Pin_16-Pad16)*%
X134014999Y-75389999D03*
%TO.P,J1,17,Pin_17*%
%TO.N,unconnected-(J1-Pin_17-Pad17)*%
X131474999Y-77929999D03*
%TO.P,J1,18,Pin_18*%
%TO.N,unconnected-(J1-Pin_18-Pad18)*%
X134014999Y-77929999D03*
%TO.P,J1,19,Pin_19*%
%TO.N,unconnected-(J1-Pin_19-Pad19)*%
X131474999Y-80469999D03*
%TO.P,J1,20,Pin_20*%
%TO.N,unconnected-(J1-Pin_20-Pad20)*%
X134014999Y-80469999D03*
%TO.P,J1,21,Pin_21*%
%TO.N,unconnected-(J1-Pin_21-Pad21)*%
X131474999Y-83009999D03*
%TO.P,J1,22,Pin_22*%
%TO.N,unconnected-(J1-Pin_22-Pad22)*%
X134014999Y-83009999D03*
%TO.P,J1,23,Pin_23*%
%TO.N,unconnected-(J1-Pin_23-Pad23)*%
X131474999Y-85549999D03*
%TO.P,J1,24,Pin_24*%
%TO.N,GND*%
X134014999Y-85549999D03*
%TO.P,J1,25,Pin_25*%
%TO.N,unconnected-(J1-Pin_25-Pad25)*%
X131474999Y-88089999D03*
%TO.P,J1,26,Pin_26*%
%TO.N,unconnected-(J1-Pin_26-Pad26)*%
X134014999Y-88089999D03*
%TO.P,J1,27,Pin_27*%
%TO.N,unconnected-(J1-Pin_27-Pad27)*%
X131474999Y-90629999D03*
%TO.P,J1,28,Pin_28*%
%TO.N,unconnected-(J1-Pin_28-Pad28)*%
X134014999Y-90629999D03*
%TO.P,J1,29,Pin_29*%
%TO.N,unconnected-(J1-Pin_29-Pad29)*%
X131474999Y-93169999D03*
%TO.P,J1,30,Pin_30*%
%TO.N,unconnected-(J1-Pin_30-Pad30)*%
X134014999Y-93169999D03*
%TO.P,J1,31,Pin_31*%
%TO.N,unconnected-(J1-Pin_31-Pad31)*%
X131474999Y-95709999D03*
%TO.P,J1,32,Pin_32*%
%TO.N,unconnected-(J1-Pin_32-Pad32)*%
X134014999Y-95709999D03*
%TO.P,J1,33,Pin_33*%
%TO.N,unconnected-(J1-Pin_33-Pad33)*%
X131474999Y-98249999D03*
%TO.P,J1,34,Pin_34*%
%TO.N,unconnected-(J1-Pin_34-Pad34)*%
X134014999Y-98249999D03*
%TO.P,J1,35,Pin_35*%
%TO.N,unconnected-(J1-Pin_35-Pad35)*%
X131474999Y-100789999D03*
%TO.P,J1,36,Pin_36*%
%TO.N,unconnected-(J1-Pin_36-Pad36)*%
X134014999Y-100789999D03*
%TO.P,J1,37,Pin_37*%
%TO.N,unconnected-(J1-Pin_37-Pad37)*%
X131474999Y-103329999D03*
%TO.P,J1,38,Pin_38*%
%TO.N,unconnected-(J1-Pin_38-Pad38)*%
X134014999Y-103329999D03*
%TO.P,J1,39,Pin_39*%
%TO.N,unconnected-(J1-Pin_39-Pad39)*%
X131474999Y-105869999D03*
%TO.P,J1,40,Pin_40*%
%TO.N,unconnected-(J1-Pin_40-Pad40)*%
X134014999Y-105869999D03*
%TO.P,J1,41,Pin_41*%
%TO.N,unconnected-(J1-Pin_41-Pad41)*%
X131474999Y-108409999D03*
%TO.P,J1,42,Pin_42*%
%TO.N,unconnected-(J1-Pin_42-Pad42)*%
X134014999Y-108409999D03*
%TO.P,J1,43,Pin_43*%
%TO.N,unconnected-(J1-Pin_43-Pad43)*%
X131474999Y-110949999D03*
%TO.P,J1,44,Pin_44*%
%TO.N,Temperature Sensor*%
X134014999Y-110949999D03*
%TO.P,J1,45,Pin_45*%
%TO.N,unconnected-(J1-Pin_45-Pad45)*%
X131474999Y-113489999D03*
%TO.P,J1,46,Pin_46*%
%TO.N,unconnected-(J1-Pin_46-Pad46)*%
X134014999Y-113489999D03*
%TO.P,J1,47,Pin_47*%
%TO.N,unconnected-(J1-Pin_47-Pad47)*%
X131474999Y-116029999D03*
%TO.P,J1,48,Pin_48*%
%TO.N,unconnected-(J1-Pin_48-Pad48)*%
X134014999Y-116029999D03*
%TO.P,J1,49,Pin_49*%
%TO.N,GND*%
X131474999Y-118569999D03*
%TO.P,J1,50,Pin_50*%
X134014999Y-118569999D03*
%TD*%
D22*
%TO.P,J2,1,Pin_1*%
%TO.N,GND*%
X182024999Y-57309999D03*
D23*
%TO.P,J2,2,Pin_2*%
X184564999Y-57309999D03*
%TO.P,J2,3,Pin_3*%
%TO.N,+5V*%
X182024999Y-59849999D03*
%TO.P,J2,4,Pin_4*%
X184564999Y-59849999D03*
%TO.P,J2,5,Pin_5*%
%TO.N,unconnected-(J2-Pin_5-Pad5)*%
X182024999Y-62389999D03*
%TO.P,J2,6,Pin_6*%
%TO.N,unconnected-(J2-Pin_6-Pad6)*%
X184564999Y-62389999D03*
%TO.P,J2,7,Pin_7*%
%TO.N,unconnected-(J2-Pin_7-Pad7)*%
X182024999Y-64929999D03*
%TO.P,J2,8,Pin_8*%
%TO.N,unconnected-(J2-Pin_8-Pad8)*%
X184564999Y-64929999D03*
%TO.P,J2,9,Pin_9*%
%TO.N,unconnected-(J2-Pin_9-Pad9)*%
X182024999Y-67469999D03*
%TO.P,J2,10,Pin_10*%
%TO.N,unconnected-(J2-Pin_10-Pad10)*%
X184564999Y-67469999D03*
%TO.P,J2,11,Pin_11*%
%TO.N,unconnected-(J2-Pin_11-Pad11)*%
X182024999Y-70009999D03*
%TO.P,J2,12,Pin_12*%
%TO.N,unconnected-(J2-Pin_12-Pad12)*%
X184564999Y-70009999D03*
%TO.P,J2,13,Pin_13*%
%TO.N,unconnected-(J2-Pin_13-Pad13)*%
X182024999Y-72549999D03*
%TO.P,J2,14,Pin_14*%
%TO.N,unconnected-(J2-Pin_14-Pad14)*%
X184564999Y-72549999D03*
%TO.P,J2,15,Pin_15*%
%TO.N,unconnected-(J2-Pin_15-Pad15)*%
X182024999Y-75089999D03*
%TO.P,J2,16,Pin_16*%
%TO.N,unconnected-(J2-Pin_16-Pad16)*%
X184564999Y-75089999D03*
%TO.P,J2,17,Pin_17*%
%TO.N,unconnected-(J2-Pin_17-Pad17)*%
X182024999Y-77629999D03*
%TO.P,J2,18,Pin_18*%
%TO.N,unconnected-(J2-Pin_18-Pad18)*%
X184564999Y-77629999D03*
%TO.P,J2,19,Pin_19*%
%TO.N,unconnected-(J2-Pin_19-Pad19)*%
X182024999Y-80169999D03*
%TO.P,J2,20,Pin_20*%
%TO.N,unconnected-(J2-Pin_20-Pad20)*%
X184564999Y-80169999D03*
%TO.P,J2,21,Pin_21*%
%TO.N,unconnected-(J2-Pin_21-Pad21)*%
X182024999Y-82709999D03*
%TO.P,J2,22,Pin_22*%
%TO.N,unconnected-(J2-Pin_22-Pad22)*%
X184564999Y-82709999D03*
%TO.P,J2,23,Pin_23*%
%TO.N,unconnected-(J2-Pin_23-Pad23)*%
X182024999Y-85249999D03*
%TO.P,J2,24,Pin_24*%
%TO.N,unconnected-(J2-Pin_24-Pad24)*%
X184564999Y-85249999D03*
%TO.P,J2,25,Pin_25*%
%TO.N,unconnected-(J2-Pin_25-Pad25)*%
X182024999Y-87789999D03*
%TO.P,J2,26,Pin_26*%
%TO.N,unconnected-(J2-Pin_26-Pad26)*%
X184564999Y-87789999D03*
%TO.P,J2,27,Pin_27*%
%TO.N,unconnected-(J2-Pin_27-Pad27)*%
X182024999Y-90329999D03*
%TO.P,J2,28,Pin_28*%
%TO.N,unconnected-(J2-Pin_28-Pad28)*%
X184564999Y-90329999D03*
%TO.P,J2,29,Pin_29*%
%TO.N,unconnected-(J2-Pin_29-Pad29)*%
X182024999Y-92869999D03*
%TO.P,J2,30,Pin_30*%
%TO.N,unconnected-(J2-Pin_30-Pad30)*%
X184564999Y-92869999D03*
%TO.P,J2,31,Pin_31*%
%TO.N,unconnected-(J2-Pin_31-Pad31)*%
X182024999Y-95409999D03*
%TO.P,J2,32,Pin_32*%
%TO.N,unconnected-(J2-Pin_32-Pad32)*%
X184564999Y-95409999D03*
%TO.P,J2,33,Pin_33*%
%TO.N,unconnected-(J2-Pin_33-Pad33)*%
X182024999Y-97949999D03*
%TO.P,J2,34,Pin_34*%
%TO.N,unconnected-(J2-Pin_34-Pad34)*%
X184564999Y-97949999D03*
%TO.P,J2,35,Pin_35*%
%TO.N,unconnected-(J2-Pin_35-Pad35)*%
X182024999Y-100489999D03*
%TO.P,J2,36,Pin_36*%
%TO.N,unconnected-(J2-Pin_36-Pad36)*%
X184564999Y-100489999D03*
%TO.P,J2,37,Pin_37*%
%TO.N,unconnected-(J2-Pin_37-Pad37)*%
X182024999Y-103029999D03*
%TO.P,J2,38,Pin_38*%
%TO.N,unconnected-(J2-Pin_38-Pad38)*%
X184564999Y-103029999D03*
%TO.P,J2,39,Pin_39*%
%TO.N,unconnected-(J2-Pin_39-Pad39)*%
X182024999Y-105569999D03*
%TO.P,J2,40,Pin_40*%
%TO.N,unconnected-(J2-Pin_40-Pad40)*%
X184564999Y-105569999D03*
%TO.P,J2,41,Pin_41*%
%TO.N,unconnected-(J2-Pin_41-Pad41)*%
X182024999Y-108109999D03*
%TO.P,J2,42,Pin_42*%
%TO.N,unconnected-(J2-Pin_42-Pad42)*%
X184564999Y-108109999D03*
%TO.P,J2,43,Pin_43*%
%TO.N,unconnected-(J2-Pin_43-Pad43)*%
X182024999Y-110649999D03*
%TO.P,J2,44,Pin_44*%
%TO.N,unconnected-(J2-Pin_44-Pad44)*%
X184564999Y-110649999D03*
%TO.P,J2,45,Pin_45*%
%TO.N,unconnected-(J2-Pin_45-Pad45)*%
X182024999Y-113189999D03*
%TO.P,J2,46,Pin_46*%
%TO.N,unconnected-(J2-Pin_46-Pad46)*%
X184564999Y-113189999D03*
%TO.P,J2,47,Pin_47*%
%TO.N,unconnected-(J2-Pin_47-Pad47)*%
X182024999Y-115729999D03*
%TO.P,J2,48,Pin_48*%
%TO.N,unconnected-(J2-Pin_48-Pad48)*%
X184564999Y-115729999D03*
%TO.P,J2,49,Pin_49*%
%TO.N,GND*%
X182024999Y-118269999D03*
%TO.P,J2,50,Pin_50*%
X184564999Y-118269999D03*
%TD*%
D24*
%TO.N,+BATT*%
X148265000Y-97600000D02*
X150540000Y-99875000D01*
X148265000Y-94225000D02*
X148265000Y-97600000D01*
%TO.N,Net-(D1-A)*%
X153840000Y-96270000D02*
X155885000Y-94225000D01*
X153840000Y-99875000D02*
X153840000Y-96270000D01*
X154455000Y-82375000D02*
X162719569Y-82375000D01*
X165320000Y-84975431D02*
X165320000Y-85905000D01*
X157000000Y-94225000D02*
X155885000Y-94225000D01*
X162719569Y-82375000D02*
X165320000Y-84975431D01*
X165320000Y-85905000D02*
X157000000Y-94225000D01*
%TO.N,GND*%
X166952500Y-72382500D02*
X182025000Y-57310000D01*
X134015000Y-85550000D02*
X146200000Y-85550000D01*
X146200000Y-85550000D02*
X149375000Y-82375000D01*
X181725000Y-118570000D02*
X182025000Y-118270000D01*
X134015000Y-118570000D02*
X181725000Y-118570000D01*
X144797500Y-72382500D02*
X166952500Y-72382500D01*
%TO.N,Motor*%
X157890000Y-86725000D02*
X133528299Y-86725000D01*
X133528299Y-86725000D02*
X132840000Y-86036701D01*
X132840000Y-86036701D02*
X132840000Y-71485000D01*
X159215000Y-85400000D02*
X157890000Y-86725000D01*
X132840000Y-71485000D02*
X134015000Y-70310000D01*
%TO.N,Temperature Sensor*%
X136825000Y-68480000D02*
X143620000Y-68480000D01*
X131178299Y-68945000D02*
X130250000Y-69873299D01*
X130250000Y-109036701D02*
X130988299Y-109775000D01*
X130250000Y-69873299D02*
X130250000Y-109036701D01*
X136825000Y-68480000D02*
X136360000Y-68945000D01*
X130988299Y-109775000D02*
X132840000Y-109775000D01*
X136360000Y-68945000D02*
X131178299Y-68945000D01*
X132840000Y-109775000D02*
X134015000Y-110950000D01*
X143620000Y-68480000D02*
X144797500Y-67302500D01*
%TO.N,+5V*%
X144797500Y-64762500D02*
X153425000Y-56135000D01*
X153425000Y-56135000D02*
X185051701Y-56135000D01*
X185051701Y-56135000D02*
X185775000Y-56858299D01*
X136825000Y-63400000D02*
X143435000Y-63400000D01*
X185775000Y-56858299D02*
X185775000Y-58640000D01*
X185775000Y-58640000D02*
X184565000Y-59850000D01*
X143435000Y-63400000D02*
X144797500Y-64762500D01*
%TO.N,Net-(Q1-B)*%
X163210000Y-84315000D02*
X164295000Y-85400000D01*
X151915000Y-84915000D02*
X152515000Y-84315000D01*
X152515000Y-84315000D02*
X163210000Y-84315000D01*
%TD*%
M02*
