%TF.GenerationSoftware,KiCad,Pcbnew,(7.0.0)*%
%TF.CreationDate,2023-06-01T08:48:15-06:00*%
%TF.ProjectId,phase_D_finalproject,70686173-655f-4445-9f66-696e616c7072,rev?*%
%TF.SameCoordinates,Original*%
%TF.FileFunction,Soldermask,Top*%
%TF.FilePolarity,Negative*%
%FSLAX46Y46*%
G04 Gerber Fmt 4.6, Leading zero omitted, Abs format (unit mm)*
G04 Created by KiCad (PCBNEW (7.0.0)) date 2023-06-01 08:48:15*
%MOMM*%
%LPD*%
G01*
G04 APERTURE LIST*
%ADD10R,1.600000X1.600000*%
%ADD11O,1.600000X1.600000*%
%ADD12R,1.100000X1.300000*%
%ADD13R,1.000000X0.650000*%
%ADD14R,1.000000X1.500000*%
%ADD15R,3.400000X4.300000*%
%ADD16C,1.400000*%
%ADD17O,1.400000X1.400000*%
%ADD18R,1.500000X1.500000*%
%ADD19C,1.500000*%
%ADD20O,1.600000X1.200000*%
%ADD21O,1.200000X1.200000*%
%ADD22R,1.700000X1.700000*%
%ADD23O,1.700000X1.700000*%
G04 APERTURE END LIST*
D10*
%TO.C,D1*%
X148264999Y-94224999D03*
D11*
X155884999Y-94224999D03*
%TD*%
D12*
%TO.C,M1*%
X150539999Y-99874999D03*
X153839999Y-99874999D03*
D13*
X151389999Y-105749999D03*
D14*
X152189999Y-100374999D03*
D15*
X152189999Y-103274999D03*
D13*
X152989999Y-105749999D03*
%TD*%
D16*
%TO.C,R1*%
X136825000Y-63400000D03*
D17*
X136824999Y-68479999D03*
%TD*%
D18*
%TO.C,U1*%
X144797499Y-64762499D03*
D19*
X144797500Y-67302500D03*
X144797500Y-69842500D03*
X144797500Y-72382500D03*
%TD*%
D16*
%TO.C,R2*%
X159215000Y-85400000D03*
D17*
X164294999Y-85399999D03*
%TD*%
D20*
%TO.C,Q1*%
X149374999Y-82374999D03*
D21*
X151914999Y-84914999D03*
X154454999Y-82374999D03*
%TD*%
D22*
%TO.C,J1*%
X131474999Y-57609999D03*
D23*
X134014999Y-57609999D03*
X131474999Y-60149999D03*
X134014999Y-60149999D03*
X131474999Y-62689999D03*
X134014999Y-62689999D03*
X131474999Y-65229999D03*
X134014999Y-65229999D03*
X131474999Y-67769999D03*
X134014999Y-67769999D03*
X131474999Y-70309999D03*
X134014999Y-70309999D03*
X131474999Y-72849999D03*
X134014999Y-72849999D03*
X131474999Y-75389999D03*
X134014999Y-75389999D03*
X131474999Y-77929999D03*
X134014999Y-77929999D03*
X131474999Y-80469999D03*
X134014999Y-80469999D03*
X131474999Y-83009999D03*
X134014999Y-83009999D03*
X131474999Y-85549999D03*
X134014999Y-85549999D03*
X131474999Y-88089999D03*
X134014999Y-88089999D03*
X131474999Y-90629999D03*
X134014999Y-90629999D03*
X131474999Y-93169999D03*
X134014999Y-93169999D03*
X131474999Y-95709999D03*
X134014999Y-95709999D03*
X131474999Y-98249999D03*
X134014999Y-98249999D03*
X131474999Y-100789999D03*
X134014999Y-100789999D03*
X131474999Y-103329999D03*
X134014999Y-103329999D03*
X131474999Y-105869999D03*
X134014999Y-105869999D03*
X131474999Y-108409999D03*
X134014999Y-108409999D03*
X131474999Y-110949999D03*
X134014999Y-110949999D03*
X131474999Y-113489999D03*
X134014999Y-113489999D03*
X131474999Y-116029999D03*
X134014999Y-116029999D03*
X131474999Y-118569999D03*
X134014999Y-118569999D03*
%TD*%
D22*
%TO.C,J2*%
X182024999Y-57309999D03*
D23*
X184564999Y-57309999D03*
X182024999Y-59849999D03*
X184564999Y-59849999D03*
X182024999Y-62389999D03*
X184564999Y-62389999D03*
X182024999Y-64929999D03*
X184564999Y-64929999D03*
X182024999Y-67469999D03*
X184564999Y-67469999D03*
X182024999Y-70009999D03*
X184564999Y-70009999D03*
X182024999Y-72549999D03*
X184564999Y-72549999D03*
X182024999Y-75089999D03*
X184564999Y-75089999D03*
X182024999Y-77629999D03*
X184564999Y-77629999D03*
X182024999Y-80169999D03*
X184564999Y-80169999D03*
X182024999Y-82709999D03*
X184564999Y-82709999D03*
X182024999Y-85249999D03*
X184564999Y-85249999D03*
X182024999Y-87789999D03*
X184564999Y-87789999D03*
X182024999Y-90329999D03*
X184564999Y-90329999D03*
X182024999Y-92869999D03*
X184564999Y-92869999D03*
X182024999Y-95409999D03*
X184564999Y-95409999D03*
X182024999Y-97949999D03*
X184564999Y-97949999D03*
X182024999Y-100489999D03*
X184564999Y-100489999D03*
X182024999Y-103029999D03*
X184564999Y-103029999D03*
X182024999Y-105569999D03*
X184564999Y-105569999D03*
X182024999Y-108109999D03*
X184564999Y-108109999D03*
X182024999Y-110649999D03*
X184564999Y-110649999D03*
X182024999Y-113189999D03*
X184564999Y-113189999D03*
X182024999Y-115729999D03*
X184564999Y-115729999D03*
X182024999Y-118269999D03*
X184564999Y-118269999D03*
%TD*%
M02*
