M48
; DRILL file {KiCad (7.0.0)} date Thu Jun  1 08:48:07 2023
; FORMAT={-:-/ absolute / inch / decimal}
; #@! TF.CreationDate,2023-06-01T08:48:07-06:00
; #@! TF.GenerationSoftware,Kicad,Pcbnew,(7.0.0)
; #@! TF.FileFunction,Plated,1,2,PTH
FMAT,2
INCH
; #@! TA.AperFunction,Plated,PTH,ComponentDrill
T1C0.0276
; #@! TA.AperFunction,Plated,PTH,ComponentDrill
T2C0.0315
; #@! TA.AperFunction,Plated,PTH,ComponentDrill
T3C0.0394
%
G90
G05
T1
X5.3868Y-2.4961
X5.3868Y-2.6961
X5.8809Y-3.2431
X5.9809Y-3.3431
X6.0809Y-3.2431
X6.2683Y-3.3622
X6.4683Y-3.3622
T2
X5.7007Y-2.5497
X5.7007Y-2.6497
X5.7007Y-2.7497
X5.7007Y-2.8497
X5.8372Y-3.7096
X6.1372Y-3.7096
T3
X5.1762Y-2.2681
X5.1762Y-2.3681
X5.1762Y-2.4681
X5.1762Y-2.5681
X5.1762Y-2.6681
X5.1762Y-2.7681
X5.1762Y-2.8681
X5.1762Y-2.9681
X5.1762Y-3.0681
X5.1762Y-3.1681
X5.1762Y-3.2681
X5.1762Y-3.3681
X5.1762Y-3.4681
X5.1762Y-3.5681
X5.1762Y-3.6681
X5.1762Y-3.7681
X5.1762Y-3.8681
X5.1762Y-3.9681
X5.1762Y-4.0681
X5.1762Y-4.1681
X5.1762Y-4.2681
X5.1762Y-4.3681
X5.1762Y-4.4681
X5.1762Y-4.5681
X5.1762Y-4.6681
X5.2762Y-2.2681
X5.2762Y-2.3681
X5.2762Y-2.4681
X5.2762Y-2.5681
X5.2762Y-2.6681
X5.2762Y-2.7681
X5.2762Y-2.8681
X5.2762Y-2.9681
X5.2762Y-3.0681
X5.2762Y-3.1681
X5.2762Y-3.2681
X5.2762Y-3.3681
X5.2762Y-3.4681
X5.2762Y-3.5681
X5.2762Y-3.6681
X5.2762Y-3.7681
X5.2762Y-3.8681
X5.2762Y-3.9681
X5.2762Y-4.0681
X5.2762Y-4.1681
X5.2762Y-4.2681
X5.2762Y-4.3681
X5.2762Y-4.4681
X5.2762Y-4.5681
X5.2762Y-4.6681
X7.1663Y-2.2563
X7.1663Y-2.3563
X7.1663Y-2.4563
X7.1663Y-2.5563
X7.1663Y-2.6563
X7.1663Y-2.7563
X7.1663Y-2.8563
X7.1663Y-2.9563
X7.1663Y-3.0563
X7.1663Y-3.1563
X7.1663Y-3.2563
X7.1663Y-3.3563
X7.1663Y-3.4563
X7.1663Y-3.5563
X7.1663Y-3.6563
X7.1663Y-3.7563
X7.1663Y-3.8563
X7.1663Y-3.9563
X7.1663Y-4.0563
X7.1663Y-4.1563
X7.1663Y-4.2563
X7.1663Y-4.3563
X7.1663Y-4.4563
X7.1663Y-4.5563
X7.1663Y-4.6563
X7.2663Y-2.2563
X7.2663Y-2.3563
X7.2663Y-2.4563
X7.2663Y-2.5563
X7.2663Y-2.6563
X7.2663Y-2.7563
X7.2663Y-2.8563
X7.2663Y-2.9563
X7.2663Y-3.0563
X7.2663Y-3.1563
X7.2663Y-3.2563
X7.2663Y-3.3563
X7.2663Y-3.4563
X7.2663Y-3.5563
X7.2663Y-3.6563
X7.2663Y-3.7563
X7.2663Y-3.8563
X7.2663Y-3.9563
X7.2663Y-4.0563
X7.2663Y-4.1563
X7.2663Y-4.2563
X7.2663Y-4.3563
X7.2663Y-4.4563
X7.2663Y-4.5563
X7.2663Y-4.6563
T0
M30
