%TF.GenerationSoftware,KiCad,Pcbnew,(7.0.0)*%
%TF.CreationDate,2023-04-20T18:13:23-06:00*%
%TF.ProjectId,Phase_B_ATMEGA_v3,50686173-655f-4425-9f41-544d4547415f,rev?*%
%TF.SameCoordinates,Original*%
%TF.FileFunction,Copper,L2,Bot*%
%TF.FilePolarity,Positive*%
%FSLAX46Y46*%
G04 Gerber Fmt 4.6, Leading zero omitted, Abs format (unit mm)*
G04 Created by KiCad (PCBNEW (7.0.0)) date 2023-04-20 18:13:23*
%MOMM*%
%LPD*%
G01*
G04 APERTURE LIST*
%TA.AperFunction,ComponentPad*%
%ADD10C,3.800000*%
%TD*%
%TA.AperFunction,ComponentPad*%
%ADD11R,2.000000X2.000000*%
%TD*%
%TA.AperFunction,ComponentPad*%
%ADD12C,2.000000*%
%TD*%
%TA.AperFunction,ComponentPad*%
%ADD13R,1.700000X1.700000*%
%TD*%
%TA.AperFunction,ComponentPad*%
%ADD14O,1.700000X1.700000*%
%TD*%
%TA.AperFunction,ComponentPad*%
%ADD15R,1.500000X1.500000*%
%TD*%
%TA.AperFunction,ComponentPad*%
%ADD16C,1.500000*%
%TD*%
%TA.AperFunction,ViaPad*%
%ADD17C,0.800000*%
%TD*%
%TA.AperFunction,Conductor*%
%ADD18C,0.250000*%
%TD*%
G04 APERTURE END LIST*
D10*
%TO.P,REF\u002A\u002A,1*%
%TO.N,N/C*%
X206050000Y-120050000D03*
%TD*%
%TO.P,REF\u002A\u002A,1*%
%TO.N,N/C*%
X126500000Y-119625000D03*
%TD*%
%TO.P,REF\u002A\u002A,1*%
%TO.N,N/C*%
X207100000Y-65300000D03*
%TD*%
%TO.P,REF\u002A\u002A,1*%
%TO.N,N/C*%
X126600000Y-67200000D03*
%TD*%
D11*
%TO.P,LS1,1,1*%
%TO.N,Buzzer*%
X193374999Y-75224999D03*
D12*
%TO.P,LS1,2,2*%
%TO.N,GND*%
X200975000Y-75225000D03*
%TD*%
D13*
%TO.P,J1,1,MISO*%
%TO.N,MISO*%
X156524999Y-109039999D03*
D14*
%TO.P,J1,2,VCC*%
%TO.N,+5V*%
X156524999Y-106499999D03*
%TO.P,J1,3,SCK*%
%TO.N,SCK*%
X153984999Y-109039999D03*
%TO.P,J1,4,MOSI*%
%TO.N,MOSI*%
X153984999Y-106499999D03*
%TO.P,J1,5,~{RST}*%
%TO.N,RST*%
X151444999Y-109039999D03*
%TO.P,J1,6,GND*%
%TO.N,GND*%
X151444999Y-106499999D03*
%TD*%
D15*
%TO.P,U1,1,e*%
%TO.N,Net-(U1-e)*%
X147099999Y-56552499D03*
D16*
%TO.P,U1,2,d*%
%TO.N,Net-(U1-d)*%
X149640000Y-56552500D03*
%TO.P,U1,3,DPX*%
%TO.N,Net-(U1-DPX)*%
X152180000Y-56552500D03*
%TO.P,U1,4,c*%
%TO.N,Net-(U1-c)*%
X154720000Y-56552500D03*
%TO.P,U1,5,g*%
%TO.N,Net-(U1-g)*%
X157260000Y-56552500D03*
%TO.P,U1,6,CA4*%
%TO.N,Dig4*%
X159800000Y-56552500D03*
%TO.P,U1,7,b*%
%TO.N,Net-(U1-b)*%
X159800000Y-41312500D03*
%TO.P,U1,8,CA3*%
%TO.N,Dig3*%
X157260000Y-41312500D03*
%TO.P,U1,9,CA2*%
%TO.N,Dig2*%
X154720000Y-41312500D03*
%TO.P,U1,10,f*%
%TO.N,Net-(U1-f)*%
X152180000Y-41312500D03*
%TO.P,U1,11,a*%
%TO.N,Net-(U1-a)*%
X149640000Y-41312500D03*
%TO.P,U1,12,CA1*%
%TO.N,Dig1*%
X147100000Y-41312500D03*
%TD*%
D13*
%TO.P,J3,1,Pin_1*%
%TO.N,GND*%
X132754999Y-100834999D03*
D14*
%TO.P,J3,2,Pin_2*%
%TO.N,TX*%
X132754999Y-103374999D03*
%TO.P,J3,3,Pin_3*%
%TO.N,unconnected-(J3-Pin_3-Pad3)*%
X135294999Y-100834999D03*
%TO.P,J3,4,Pin_4*%
%TO.N,+3.3V*%
X135294999Y-103374999D03*
%TO.P,J3,5,Pin_5*%
%TO.N,Net-(J3-Pin_5)*%
X137834999Y-100834999D03*
%TO.P,J3,6,Pin_6*%
%TO.N,+3.3V*%
X137834999Y-103374999D03*
%TO.P,J3,7,Pin_7*%
%TO.N,RX*%
X140374999Y-100834999D03*
%TO.P,J3,8,Pin_8*%
%TO.N,+3.3V*%
X140374999Y-103374999D03*
%TD*%
D17*
%TO.N,+5V*%
X151725000Y-85750000D03*
X165937701Y-87137299D03*
X151725000Y-88300000D03*
X169800201Y-87300201D03*
%TO.N,GND*%
X158700000Y-90200000D03*
X141700000Y-94075000D03*
X159100000Y-84675000D03*
X177475000Y-93875000D03*
X167300000Y-93450000D03*
X147750000Y-98150000D03*
X175225000Y-80275000D03*
X148650000Y-76475000D03*
X160575000Y-116900000D03*
X136250000Y-90150000D03*
X176050000Y-73000000D03*
X166775000Y-111250000D03*
X166600000Y-99525000D03*
X185200000Y-98075000D03*
X173375000Y-92975000D03*
X167325000Y-79850000D03*
X167300000Y-84574502D03*
X184725000Y-76125000D03*
X171525000Y-107775000D03*
X163850000Y-110175000D03*
X174700000Y-84000000D03*
X185200000Y-112475000D03*
X158700000Y-88725000D03*
X147475000Y-90200000D03*
X142300000Y-72400000D03*
X158575000Y-71000000D03*
X147625000Y-92175000D03*
X144175000Y-93075000D03*
X163275000Y-80450000D03*
X164300000Y-88125000D03*
X172050000Y-84400000D03*
X153125000Y-73300000D03*
X159850000Y-82175000D03*
X169125000Y-106450000D03*
%TO.N,MISO*%
X158750000Y-110025000D03*
X160125000Y-107525000D03*
%TO.N,RST*%
X159725201Y-110724799D03*
X161075000Y-108700000D03*
%TO.N,TX*%
X176500000Y-104350000D03*
X176500000Y-97850000D03*
%TO.N,RX*%
X174700000Y-102200000D03*
X174775000Y-96200000D03*
%TO.N,Buzzer*%
X185825000Y-89825000D03*
X182800000Y-89775000D03*
%TO.N,RED_LED*%
X176275000Y-84625000D03*
X176300000Y-86525000D03*
%TO.N,Net-(U1-b)*%
X156725000Y-49875000D03*
X159825000Y-44900000D03*
%TO.N,Dig4*%
X180275000Y-84150000D03*
X180325000Y-87100000D03*
%TO.N,Dig3*%
X176625000Y-60225000D03*
X165750000Y-92375000D03*
%TO.N,Dig2*%
X178600000Y-90600000D03*
X182600000Y-81950000D03*
%TO.N,Dig1*%
X143450000Y-40950000D03*
X145525000Y-43450000D03*
%TD*%
D18*
%TO.N,+5V*%
X169800201Y-87300201D02*
X169637299Y-87137299D01*
X169637299Y-87137299D02*
X165937701Y-87137299D01*
X151725000Y-85750000D02*
X151725000Y-88300000D01*
%TO.N,MISO*%
X158750000Y-108900000D02*
X160125000Y-107525000D01*
X158750000Y-110025000D02*
X158750000Y-108900000D01*
%TO.N,RST*%
X159725201Y-110049799D02*
X161075000Y-108700000D01*
X159725201Y-110724799D02*
X159725201Y-110049799D01*
%TO.N,TX*%
X176500000Y-97850000D02*
X176500000Y-104350000D01*
%TO.N,RX*%
X174775000Y-102125000D02*
X174700000Y-102200000D01*
X174775000Y-96200000D02*
X174775000Y-102125000D01*
%TO.N,Buzzer*%
X182850000Y-89825000D02*
X182800000Y-89775000D01*
X185825000Y-89825000D02*
X182850000Y-89825000D01*
%TO.N,RED_LED*%
X176275000Y-84625000D02*
X176275000Y-86500000D01*
X176275000Y-86500000D02*
X176300000Y-86525000D01*
%TO.N,Net-(U1-b)*%
X159825000Y-46775000D02*
X159825000Y-44900000D01*
X156725000Y-49875000D02*
X159825000Y-46775000D01*
%TO.N,Dig4*%
X180275000Y-87050000D02*
X180325000Y-87100000D01*
X180275000Y-84150000D02*
X180275000Y-87050000D01*
%TO.N,Dig3*%
X173975000Y-84150000D02*
X165750000Y-92375000D01*
X173975000Y-62875000D02*
X173975000Y-84150000D01*
X176625000Y-60225000D02*
X173975000Y-62875000D01*
%TO.N,Dig2*%
X182600000Y-81950000D02*
X182600000Y-86600000D01*
X182600000Y-86600000D02*
X178600000Y-90600000D01*
%TO.N,Dig1*%
X143450000Y-41375000D02*
X143450000Y-40950000D01*
X145525000Y-43450000D02*
X143450000Y-41375000D01*
%TD*%
%TA.AperFunction,Conductor*%
%TO.N,GND*%
G36*
X210812500Y-34492113D02*
G01*
X210857887Y-34537500D01*
X210874500Y-34599500D01*
X210874500Y-95394840D01*
X210850124Y-124800603D01*
X210833477Y-124862559D01*
X210788094Y-124907904D01*
X210726124Y-124924500D01*
X165090250Y-124924500D01*
X121249431Y-124900069D01*
X121187460Y-124883433D01*
X121142101Y-124838049D01*
X121125500Y-124776069D01*
X121125500Y-119625000D01*
X124094754Y-119625000D01*
X124113720Y-119926457D01*
X124114447Y-119930269D01*
X124114449Y-119930283D01*
X124169588Y-120219330D01*
X124170319Y-120223160D01*
X124171523Y-120226867D01*
X124171524Y-120226869D01*
X124213248Y-120355283D01*
X124263659Y-120510430D01*
X124392267Y-120783736D01*
X124394349Y-120787017D01*
X124394352Y-120787022D01*
X124552024Y-121035474D01*
X124552028Y-121035480D01*
X124554115Y-121038768D01*
X124746651Y-121271504D01*
X124966838Y-121478274D01*
X125211205Y-121655816D01*
X125475896Y-121801332D01*
X125756738Y-121912525D01*
X126049302Y-121987642D01*
X126348973Y-122025500D01*
X126647133Y-122025500D01*
X126651027Y-122025500D01*
X126950698Y-121987642D01*
X127243262Y-121912525D01*
X127524104Y-121801332D01*
X127788795Y-121655816D01*
X128033162Y-121478274D01*
X128253349Y-121271504D01*
X128445885Y-121038768D01*
X128607733Y-120783736D01*
X128736341Y-120510430D01*
X128829681Y-120223160D01*
X128862713Y-120050000D01*
X203644754Y-120050000D01*
X203663720Y-120351457D01*
X203664447Y-120355269D01*
X203664449Y-120355283D01*
X203719588Y-120644330D01*
X203720319Y-120648160D01*
X203813659Y-120935430D01*
X203942267Y-121208736D01*
X203944349Y-121212017D01*
X203944352Y-121212022D01*
X204102024Y-121460474D01*
X204102028Y-121460480D01*
X204104115Y-121463768D01*
X204296651Y-121696504D01*
X204516838Y-121903274D01*
X204761205Y-122080816D01*
X205025896Y-122226332D01*
X205306738Y-122337525D01*
X205599302Y-122412642D01*
X205898973Y-122450500D01*
X206197133Y-122450500D01*
X206201027Y-122450500D01*
X206500698Y-122412642D01*
X206793262Y-122337525D01*
X207074104Y-122226332D01*
X207338795Y-122080816D01*
X207583162Y-121903274D01*
X207803349Y-121696504D01*
X207995885Y-121463768D01*
X208157733Y-121208736D01*
X208286341Y-120935430D01*
X208379681Y-120648160D01*
X208436280Y-120351457D01*
X208455246Y-120050000D01*
X208436280Y-119748543D01*
X208379681Y-119451840D01*
X208286341Y-119164570D01*
X208157733Y-118891264D01*
X207995885Y-118636232D01*
X207803349Y-118403496D01*
X207583162Y-118196726D01*
X207338795Y-118019184D01*
X207335391Y-118017313D01*
X207335387Y-118017310D01*
X207077521Y-117875546D01*
X207077514Y-117875542D01*
X207074104Y-117873668D01*
X207070478Y-117872232D01*
X207070473Y-117872230D01*
X206796890Y-117763911D01*
X206796884Y-117763909D01*
X206793262Y-117762475D01*
X206789484Y-117761505D01*
X206789481Y-117761504D01*
X206504476Y-117688328D01*
X206504475Y-117688327D01*
X206500698Y-117687358D01*
X206496835Y-117686870D01*
X206496830Y-117686869D01*
X206204891Y-117649988D01*
X206204888Y-117649987D01*
X206201027Y-117649500D01*
X205898973Y-117649500D01*
X205895112Y-117649987D01*
X205895108Y-117649988D01*
X205603169Y-117686869D01*
X205603161Y-117686870D01*
X205599302Y-117687358D01*
X205595527Y-117688327D01*
X205595523Y-117688328D01*
X205310518Y-117761504D01*
X205310511Y-117761506D01*
X205306738Y-117762475D01*
X205303120Y-117763907D01*
X205303109Y-117763911D01*
X205029526Y-117872230D01*
X205029515Y-117872234D01*
X205025896Y-117873668D01*
X205022491Y-117875539D01*
X205022478Y-117875546D01*
X204764612Y-118017310D01*
X204764600Y-118017317D01*
X204761205Y-118019184D01*
X204758061Y-118021467D01*
X204758055Y-118021472D01*
X204519994Y-118194432D01*
X204519983Y-118194440D01*
X204516838Y-118196726D01*
X204514003Y-118199387D01*
X204513996Y-118199394D01*
X204299488Y-118400831D01*
X204299481Y-118400838D01*
X204296651Y-118403496D01*
X204294176Y-118406487D01*
X204294172Y-118406492D01*
X204106598Y-118633229D01*
X204106588Y-118633241D01*
X204104115Y-118636232D01*
X204102033Y-118639511D01*
X204102024Y-118639525D01*
X203944352Y-118887977D01*
X203944345Y-118887988D01*
X203942267Y-118891264D01*
X203940614Y-118894774D01*
X203940611Y-118894782D01*
X203876668Y-119030669D01*
X203813659Y-119164570D01*
X203812457Y-119168267D01*
X203812455Y-119168274D01*
X203762005Y-119323543D01*
X203720319Y-119451840D01*
X203719590Y-119455660D01*
X203719588Y-119455669D01*
X203664449Y-119744716D01*
X203664446Y-119744732D01*
X203663720Y-119748543D01*
X203644754Y-120050000D01*
X128862713Y-120050000D01*
X128886280Y-119926457D01*
X128905246Y-119625000D01*
X128886280Y-119323543D01*
X128829681Y-119026840D01*
X128736341Y-118739570D01*
X128607733Y-118466264D01*
X128445885Y-118211232D01*
X128253349Y-117978496D01*
X128033162Y-117771726D01*
X127788795Y-117594184D01*
X127785391Y-117592313D01*
X127785387Y-117592310D01*
X127527521Y-117450546D01*
X127527514Y-117450542D01*
X127524104Y-117448668D01*
X127520478Y-117447232D01*
X127520473Y-117447230D01*
X127246890Y-117338911D01*
X127246884Y-117338909D01*
X127243262Y-117337475D01*
X127239484Y-117336505D01*
X127239481Y-117336504D01*
X126954476Y-117263328D01*
X126954475Y-117263327D01*
X126950698Y-117262358D01*
X126946835Y-117261870D01*
X126946830Y-117261869D01*
X126654891Y-117224988D01*
X126654888Y-117224987D01*
X126651027Y-117224500D01*
X126348973Y-117224500D01*
X126345112Y-117224987D01*
X126345108Y-117224988D01*
X126053169Y-117261869D01*
X126053161Y-117261870D01*
X126049302Y-117262358D01*
X126045527Y-117263327D01*
X126045523Y-117263328D01*
X125760518Y-117336504D01*
X125760511Y-117336506D01*
X125756738Y-117337475D01*
X125753120Y-117338907D01*
X125753109Y-117338911D01*
X125479526Y-117447230D01*
X125479515Y-117447234D01*
X125475896Y-117448668D01*
X125472491Y-117450539D01*
X125472478Y-117450546D01*
X125214612Y-117592310D01*
X125214600Y-117592317D01*
X125211205Y-117594184D01*
X125208061Y-117596467D01*
X125208055Y-117596472D01*
X124969994Y-117769432D01*
X124969983Y-117769440D01*
X124966838Y-117771726D01*
X124964003Y-117774387D01*
X124963996Y-117774394D01*
X124749488Y-117975831D01*
X124749481Y-117975838D01*
X124746651Y-117978496D01*
X124744176Y-117981487D01*
X124744172Y-117981492D01*
X124556598Y-118208229D01*
X124556588Y-118208241D01*
X124554115Y-118211232D01*
X124552033Y-118214511D01*
X124552024Y-118214525D01*
X124394352Y-118462977D01*
X124394345Y-118462988D01*
X124392267Y-118466264D01*
X124390614Y-118469774D01*
X124390611Y-118469782D01*
X124265315Y-118736050D01*
X124263659Y-118739570D01*
X124170319Y-119026840D01*
X124169590Y-119030660D01*
X124169588Y-119030669D01*
X124114449Y-119319716D01*
X124114446Y-119319732D01*
X124113720Y-119323543D01*
X124094754Y-119625000D01*
X121125500Y-119625000D01*
X121125500Y-109040000D01*
X150089341Y-109040000D01*
X150089813Y-109045395D01*
X150104699Y-109215546D01*
X150109937Y-109275408D01*
X150111336Y-109280630D01*
X150111337Y-109280634D01*
X150169694Y-109498430D01*
X150169697Y-109498438D01*
X150171097Y-109503663D01*
X150173385Y-109508570D01*
X150173386Y-109508572D01*
X150268678Y-109712927D01*
X150268681Y-109712933D01*
X150270965Y-109717830D01*
X150274064Y-109722257D01*
X150274066Y-109722259D01*
X150403399Y-109906966D01*
X150403402Y-109906970D01*
X150406505Y-109911401D01*
X150573599Y-110078495D01*
X150578031Y-110081598D01*
X150578033Y-110081600D01*
X150713495Y-110176451D01*
X150767170Y-110214035D01*
X150981337Y-110313903D01*
X151209592Y-110375063D01*
X151445000Y-110395659D01*
X151680408Y-110375063D01*
X151908663Y-110313903D01*
X152122830Y-110214035D01*
X152316401Y-110078495D01*
X152483495Y-109911401D01*
X152613424Y-109725842D01*
X152657743Y-109686976D01*
X152715000Y-109672965D01*
X152772257Y-109686976D01*
X152816575Y-109725842D01*
X152943395Y-109906961D01*
X152943401Y-109906968D01*
X152946505Y-109911401D01*
X153113599Y-110078495D01*
X153118031Y-110081598D01*
X153118033Y-110081600D01*
X153253495Y-110176451D01*
X153307170Y-110214035D01*
X153521337Y-110313903D01*
X153749592Y-110375063D01*
X153985000Y-110395659D01*
X154220408Y-110375063D01*
X154448663Y-110313903D01*
X154662830Y-110214035D01*
X154856401Y-110078495D01*
X154978329Y-109956566D01*
X155031072Y-109925273D01*
X155092365Y-109923084D01*
X155147210Y-109950537D01*
X155182189Y-110000916D01*
X155231204Y-110132331D01*
X155236518Y-110139430D01*
X155236519Y-110139431D01*
X155292367Y-110214035D01*
X155317454Y-110247546D01*
X155432669Y-110333796D01*
X155567517Y-110384091D01*
X155627127Y-110390500D01*
X157422872Y-110390499D01*
X157482483Y-110384091D01*
X157617331Y-110333796D01*
X157708804Y-110265318D01*
X157762406Y-110242328D01*
X157820589Y-110246384D01*
X157870482Y-110276592D01*
X157901046Y-110326268D01*
X157917053Y-110375534D01*
X157922821Y-110393284D01*
X158017467Y-110557216D01*
X158144129Y-110697888D01*
X158149387Y-110701708D01*
X158149388Y-110701709D01*
X158181169Y-110724799D01*
X158297270Y-110809151D01*
X158470197Y-110886144D01*
X158655354Y-110925500D01*
X158753480Y-110925500D01*
X158803915Y-110936220D01*
X158845630Y-110966528D01*
X158871410Y-111011181D01*
X158898022Y-111093083D01*
X158992668Y-111257015D01*
X159119330Y-111397687D01*
X159272471Y-111508950D01*
X159445398Y-111585943D01*
X159630555Y-111625299D01*
X159813344Y-111625299D01*
X159819847Y-111625299D01*
X160005004Y-111585943D01*
X160177931Y-111508950D01*
X160331072Y-111397687D01*
X160457734Y-111257015D01*
X160552380Y-111093083D01*
X160610875Y-110913055D01*
X160630661Y-110724799D01*
X160610875Y-110536543D01*
X160552380Y-110356515D01*
X160508702Y-110280862D01*
X160492561Y-110229669D01*
X160499567Y-110176451D01*
X160528406Y-110131184D01*
X161022771Y-109636819D01*
X161063000Y-109609939D01*
X161110453Y-109600500D01*
X161163143Y-109600500D01*
X161169646Y-109600500D01*
X161354803Y-109561144D01*
X161527730Y-109484151D01*
X161680871Y-109372888D01*
X161807533Y-109232216D01*
X161902179Y-109068284D01*
X161960674Y-108888256D01*
X161980460Y-108700000D01*
X161960674Y-108511744D01*
X161902179Y-108331716D01*
X161807533Y-108167784D01*
X161797746Y-108156915D01*
X161685220Y-108031942D01*
X161685219Y-108031941D01*
X161680871Y-108027112D01*
X161675613Y-108023292D01*
X161675611Y-108023290D01*
X161532988Y-107919669D01*
X161532987Y-107919668D01*
X161527730Y-107915849D01*
X161521792Y-107913205D01*
X161360745Y-107841501D01*
X161360740Y-107841499D01*
X161354803Y-107838856D01*
X161348444Y-107837504D01*
X161348440Y-107837503D01*
X161176008Y-107800852D01*
X161176005Y-107800851D01*
X161169646Y-107799500D01*
X161163143Y-107799500D01*
X161139325Y-107799500D01*
X161073615Y-107780658D01*
X161027875Y-107729858D01*
X161016004Y-107662539D01*
X161030460Y-107525000D01*
X161010674Y-107336744D01*
X160952179Y-107156716D01*
X160857533Y-106992784D01*
X160826600Y-106958430D01*
X160735220Y-106856942D01*
X160735219Y-106856941D01*
X160730871Y-106852112D01*
X160725613Y-106848292D01*
X160725611Y-106848290D01*
X160582988Y-106744669D01*
X160582987Y-106744668D01*
X160577730Y-106740849D01*
X160571792Y-106738205D01*
X160410745Y-106666501D01*
X160410740Y-106666499D01*
X160404803Y-106663856D01*
X160398444Y-106662504D01*
X160398440Y-106662503D01*
X160226008Y-106625852D01*
X160226005Y-106625851D01*
X160219646Y-106624500D01*
X160030354Y-106624500D01*
X160023995Y-106625851D01*
X160023991Y-106625852D01*
X159851559Y-106662503D01*
X159851552Y-106662505D01*
X159845197Y-106663856D01*
X159839262Y-106666498D01*
X159839254Y-106666501D01*
X159678207Y-106738205D01*
X159678202Y-106738207D01*
X159672270Y-106740849D01*
X159667016Y-106744665D01*
X159667011Y-106744669D01*
X159524388Y-106848290D01*
X159524381Y-106848295D01*
X159519129Y-106852112D01*
X159514784Y-106856937D01*
X159514779Y-106856942D01*
X159396813Y-106987956D01*
X159396808Y-106987962D01*
X159392467Y-106992784D01*
X159389222Y-106998404D01*
X159389218Y-106998410D01*
X159301069Y-107151089D01*
X159301066Y-107151094D01*
X159297821Y-107156716D01*
X159295815Y-107162888D01*
X159295813Y-107162894D01*
X159241333Y-107330564D01*
X159241331Y-107330573D01*
X159239326Y-107336744D01*
X159238647Y-107343203D01*
X159238647Y-107343204D01*
X159221678Y-107504650D01*
X159210278Y-107545072D01*
X159186038Y-107579369D01*
X158362696Y-108402711D01*
X158354511Y-108410159D01*
X158348123Y-108414214D01*
X158342788Y-108419894D01*
X158342783Y-108419899D01*
X158302096Y-108463225D01*
X158299392Y-108466016D01*
X158282628Y-108482780D01*
X158282621Y-108482787D01*
X158279880Y-108485529D01*
X158277500Y-108488596D01*
X158277489Y-108488609D01*
X158277400Y-108488725D01*
X158269842Y-108497570D01*
X158245280Y-108523727D01*
X158245273Y-108523736D01*
X158239938Y-108529418D01*
X158236182Y-108536249D01*
X158236179Y-108536254D01*
X158230285Y-108546975D01*
X158219609Y-108563227D01*
X158212109Y-108572896D01*
X158212101Y-108572907D01*
X158207327Y-108579064D01*
X158204234Y-108586208D01*
X158204229Y-108586219D01*
X158189974Y-108619160D01*
X158184838Y-108629643D01*
X158163803Y-108667908D01*
X158161864Y-108675456D01*
X158161863Y-108675461D01*
X158158822Y-108687307D01*
X158152521Y-108705711D01*
X158147658Y-108716948D01*
X158147656Y-108716952D01*
X158144562Y-108724104D01*
X158143342Y-108731803D01*
X158143342Y-108731805D01*
X158137729Y-108767241D01*
X158135361Y-108778676D01*
X158126438Y-108813428D01*
X158126436Y-108813436D01*
X158124500Y-108820981D01*
X158124500Y-108828777D01*
X158124500Y-108841017D01*
X158122974Y-108860404D01*
X158121971Y-108866735D01*
X158113382Y-108886729D01*
X158122949Y-108913086D01*
X158123950Y-108923676D01*
X158124500Y-108935345D01*
X158124500Y-109326313D01*
X158116267Y-109370743D01*
X158092660Y-109409274D01*
X158091659Y-109410386D01*
X158042733Y-109443644D01*
X157983967Y-109450448D01*
X157928736Y-109429251D01*
X157889611Y-109384876D01*
X157875499Y-109327425D01*
X157875499Y-108924755D01*
X157885436Y-108886466D01*
X157875499Y-108847338D01*
X157875499Y-108145439D01*
X157875499Y-108142128D01*
X157869091Y-108082517D01*
X157818796Y-107947669D01*
X157732546Y-107832454D01*
X157725196Y-107826952D01*
X157624431Y-107751519D01*
X157624430Y-107751518D01*
X157617331Y-107746204D01*
X157528993Y-107713256D01*
X157485916Y-107697189D01*
X157435537Y-107662210D01*
X157408084Y-107607365D01*
X157410273Y-107546072D01*
X157441566Y-107493329D01*
X157563495Y-107371401D01*
X157699035Y-107177830D01*
X157798903Y-106963663D01*
X157860063Y-106735408D01*
X157880659Y-106500000D01*
X157860063Y-106264592D01*
X157798903Y-106036337D01*
X157699035Y-105822171D01*
X157563495Y-105628599D01*
X157396401Y-105461505D01*
X157391970Y-105458402D01*
X157391966Y-105458399D01*
X157207259Y-105329066D01*
X157207257Y-105329064D01*
X157202830Y-105325965D01*
X157197933Y-105323681D01*
X157197927Y-105323678D01*
X156993572Y-105228386D01*
X156993570Y-105228385D01*
X156988663Y-105226097D01*
X156983438Y-105224697D01*
X156983430Y-105224694D01*
X156765634Y-105166337D01*
X156765630Y-105166336D01*
X156760408Y-105164937D01*
X156755020Y-105164465D01*
X156755017Y-105164465D01*
X156530395Y-105144813D01*
X156525000Y-105144341D01*
X156519605Y-105144813D01*
X156294982Y-105164465D01*
X156294977Y-105164465D01*
X156289592Y-105164937D01*
X156284371Y-105166335D01*
X156284365Y-105166337D01*
X156066569Y-105224694D01*
X156066557Y-105224698D01*
X156061337Y-105226097D01*
X156056432Y-105228383D01*
X156056427Y-105228386D01*
X155852081Y-105323675D01*
X155852077Y-105323677D01*
X155847171Y-105325965D01*
X155842738Y-105329068D01*
X155842731Y-105329073D01*
X155658034Y-105458399D01*
X155658029Y-105458402D01*
X155653599Y-105461505D01*
X155649775Y-105465328D01*
X155649769Y-105465334D01*
X155490334Y-105624769D01*
X155490328Y-105624775D01*
X155486505Y-105628599D01*
X155483402Y-105633029D01*
X155483399Y-105633034D01*
X155356575Y-105814159D01*
X155312257Y-105853025D01*
X155255000Y-105867036D01*
X155197743Y-105853025D01*
X155153425Y-105814159D01*
X155142327Y-105798310D01*
X155023495Y-105628599D01*
X154856401Y-105461505D01*
X154851970Y-105458402D01*
X154851966Y-105458399D01*
X154667259Y-105329066D01*
X154667257Y-105329064D01*
X154662830Y-105325965D01*
X154657933Y-105323681D01*
X154657927Y-105323678D01*
X154453572Y-105228386D01*
X154453570Y-105228385D01*
X154448663Y-105226097D01*
X154443438Y-105224697D01*
X154443430Y-105224694D01*
X154225634Y-105166337D01*
X154225630Y-105166336D01*
X154220408Y-105164937D01*
X154215020Y-105164465D01*
X154215017Y-105164465D01*
X153990395Y-105144813D01*
X153985000Y-105144341D01*
X153979605Y-105144813D01*
X153754982Y-105164465D01*
X153754977Y-105164465D01*
X153749592Y-105164937D01*
X153744371Y-105166335D01*
X153744365Y-105166337D01*
X153526569Y-105224694D01*
X153526557Y-105224698D01*
X153521337Y-105226097D01*
X153516432Y-105228383D01*
X153516427Y-105228386D01*
X153312081Y-105323675D01*
X153312077Y-105323677D01*
X153307171Y-105325965D01*
X153302738Y-105329068D01*
X153302731Y-105329073D01*
X153118034Y-105458399D01*
X153118029Y-105458402D01*
X153113599Y-105461505D01*
X153109775Y-105465328D01*
X153109769Y-105465334D01*
X152950334Y-105624769D01*
X152950328Y-105624775D01*
X152946505Y-105628599D01*
X152943403Y-105633028D01*
X152943403Y-105633029D01*
X152816269Y-105814596D01*
X152771951Y-105853461D01*
X152714694Y-105867472D01*
X152657437Y-105853461D01*
X152613119Y-105814595D01*
X152486215Y-105633357D01*
X152479280Y-105625092D01*
X152319909Y-105465721D01*
X152311643Y-105458784D01*
X152127008Y-105329501D01*
X152117676Y-105324113D01*
X151913397Y-105228856D01*
X151903263Y-105225168D01*
X151708780Y-105173056D01*
X151697551Y-105172688D01*
X151695000Y-105183631D01*
X151695000Y-106626000D01*
X151678387Y-106688000D01*
X151633000Y-106733387D01*
X151571000Y-106750000D01*
X150128631Y-106750000D01*
X150117688Y-106752551D01*
X150118056Y-106763780D01*
X150170168Y-106958263D01*
X150173856Y-106968397D01*
X150269113Y-107172676D01*
X150274501Y-107182008D01*
X150403784Y-107366643D01*
X150410721Y-107374909D01*
X150570090Y-107534278D01*
X150578356Y-107541215D01*
X150759595Y-107668120D01*
X150798460Y-107712438D01*
X150812471Y-107769695D01*
X150798460Y-107826952D01*
X150759594Y-107871270D01*
X150578034Y-107998399D01*
X150578029Y-107998402D01*
X150573599Y-108001505D01*
X150569775Y-108005328D01*
X150569769Y-108005334D01*
X150410334Y-108164769D01*
X150410328Y-108164775D01*
X150406505Y-108168599D01*
X150403402Y-108173029D01*
X150403399Y-108173034D01*
X150274073Y-108357731D01*
X150274068Y-108357738D01*
X150270965Y-108362171D01*
X150268677Y-108367077D01*
X150268675Y-108367081D01*
X150173386Y-108571427D01*
X150173383Y-108571432D01*
X150171097Y-108576337D01*
X150169698Y-108581557D01*
X150169694Y-108581569D01*
X150111337Y-108799365D01*
X150111335Y-108799371D01*
X150109937Y-108804592D01*
X150109465Y-108809977D01*
X150109465Y-108809982D01*
X150100445Y-108913086D01*
X150089341Y-109040000D01*
X121125500Y-109040000D01*
X121125500Y-106247448D01*
X150117688Y-106247448D01*
X150128631Y-106250000D01*
X151178674Y-106250000D01*
X151191549Y-106246549D01*
X151195000Y-106233674D01*
X151195000Y-105183631D01*
X151192448Y-105172688D01*
X151181219Y-105173056D01*
X150986736Y-105225168D01*
X150976602Y-105228856D01*
X150772332Y-105324110D01*
X150762982Y-105329508D01*
X150578357Y-105458784D01*
X150570092Y-105465719D01*
X150410719Y-105625092D01*
X150403784Y-105633357D01*
X150274508Y-105817982D01*
X150269110Y-105827332D01*
X150173856Y-106031602D01*
X150170168Y-106041736D01*
X150118056Y-106236219D01*
X150117688Y-106247448D01*
X121125500Y-106247448D01*
X121125500Y-103375000D01*
X131399341Y-103375000D01*
X131419937Y-103610408D01*
X131421336Y-103615630D01*
X131421337Y-103615634D01*
X131479694Y-103833430D01*
X131479697Y-103833438D01*
X131481097Y-103838663D01*
X131483385Y-103843570D01*
X131483386Y-103843572D01*
X131578678Y-104047927D01*
X131578681Y-104047933D01*
X131580965Y-104052830D01*
X131584064Y-104057257D01*
X131584066Y-104057259D01*
X131713399Y-104241966D01*
X131713402Y-104241970D01*
X131716505Y-104246401D01*
X131883599Y-104413495D01*
X132077170Y-104549035D01*
X132291337Y-104648903D01*
X132519592Y-104710063D01*
X132755000Y-104730659D01*
X132990408Y-104710063D01*
X133218663Y-104648903D01*
X133432830Y-104549035D01*
X133626401Y-104413495D01*
X133793495Y-104246401D01*
X133923424Y-104060842D01*
X133967743Y-104021976D01*
X134025000Y-104007965D01*
X134082257Y-104021976D01*
X134126575Y-104060842D01*
X134253395Y-104241961D01*
X134253401Y-104241968D01*
X134256505Y-104246401D01*
X134423599Y-104413495D01*
X134617170Y-104549035D01*
X134831337Y-104648903D01*
X135059592Y-104710063D01*
X135295000Y-104730659D01*
X135530408Y-104710063D01*
X135758663Y-104648903D01*
X135972830Y-104549035D01*
X136166401Y-104413495D01*
X136333495Y-104246401D01*
X136463424Y-104060842D01*
X136507743Y-104021976D01*
X136565000Y-104007965D01*
X136622257Y-104021976D01*
X136666575Y-104060842D01*
X136793395Y-104241961D01*
X136793401Y-104241968D01*
X136796505Y-104246401D01*
X136963599Y-104413495D01*
X137157170Y-104549035D01*
X137371337Y-104648903D01*
X137599592Y-104710063D01*
X137835000Y-104730659D01*
X138070408Y-104710063D01*
X138298663Y-104648903D01*
X138512830Y-104549035D01*
X138706401Y-104413495D01*
X138873495Y-104246401D01*
X139003424Y-104060842D01*
X139047743Y-104021976D01*
X139105000Y-104007965D01*
X139162257Y-104021976D01*
X139206575Y-104060842D01*
X139333395Y-104241961D01*
X139333401Y-104241968D01*
X139336505Y-104246401D01*
X139503599Y-104413495D01*
X139697170Y-104549035D01*
X139911337Y-104648903D01*
X140139592Y-104710063D01*
X140375000Y-104730659D01*
X140610408Y-104710063D01*
X140838663Y-104648903D01*
X141052830Y-104549035D01*
X141246401Y-104413495D01*
X141413495Y-104246401D01*
X141549035Y-104052830D01*
X141648903Y-103838663D01*
X141710063Y-103610408D01*
X141730659Y-103375000D01*
X141710063Y-103139592D01*
X141648903Y-102911337D01*
X141549035Y-102697171D01*
X141413495Y-102503599D01*
X141246401Y-102336505D01*
X141241968Y-102333401D01*
X141241961Y-102333395D01*
X141060842Y-102206575D01*
X141055076Y-102200000D01*
X173794540Y-102200000D01*
X173795219Y-102206460D01*
X173813646Y-102381795D01*
X173813647Y-102381803D01*
X173814326Y-102388256D01*
X173816331Y-102394428D01*
X173816333Y-102394435D01*
X173851803Y-102503599D01*
X173872821Y-102568284D01*
X173876068Y-102573908D01*
X173876069Y-102573910D01*
X173950068Y-102702081D01*
X173967467Y-102732216D01*
X174094129Y-102872888D01*
X174247270Y-102984151D01*
X174420197Y-103061144D01*
X174605354Y-103100500D01*
X174788143Y-103100500D01*
X174794646Y-103100500D01*
X174979803Y-103061144D01*
X175152730Y-102984151D01*
X175305871Y-102872888D01*
X175432533Y-102732216D01*
X175527179Y-102568284D01*
X175585674Y-102388256D01*
X175605460Y-102200000D01*
X175585674Y-102011744D01*
X175527179Y-101831716D01*
X175432533Y-101667784D01*
X175428185Y-101662955D01*
X175424363Y-101657694D01*
X175425703Y-101656720D01*
X175408749Y-101629080D01*
X175400500Y-101584608D01*
X175400500Y-98163072D01*
X175419803Y-98096630D01*
X175471703Y-98050873D01*
X175540041Y-98040050D01*
X175603540Y-98067528D01*
X175642431Y-98124754D01*
X175672821Y-98218284D01*
X175767467Y-98382216D01*
X175771811Y-98387041D01*
X175771813Y-98387043D01*
X175842650Y-98465715D01*
X175866264Y-98504249D01*
X175874500Y-98548687D01*
X175874500Y-103651313D01*
X175866264Y-103695751D01*
X175842650Y-103734285D01*
X175771813Y-103812956D01*
X175771808Y-103812962D01*
X175767467Y-103817784D01*
X175764222Y-103823404D01*
X175764218Y-103823410D01*
X175676069Y-103976089D01*
X175676066Y-103976094D01*
X175672821Y-103981716D01*
X175670815Y-103987888D01*
X175670813Y-103987894D01*
X175616333Y-104155564D01*
X175616331Y-104155573D01*
X175614326Y-104161744D01*
X175613648Y-104168194D01*
X175613646Y-104168204D01*
X175595962Y-104336464D01*
X175594540Y-104350000D01*
X175595219Y-104356460D01*
X175613646Y-104531795D01*
X175613647Y-104531803D01*
X175614326Y-104538256D01*
X175616331Y-104544428D01*
X175616333Y-104544435D01*
X175670150Y-104710063D01*
X175672821Y-104718284D01*
X175767467Y-104882216D01*
X175894129Y-105022888D01*
X176047270Y-105134151D01*
X176220197Y-105211144D01*
X176405354Y-105250500D01*
X176588143Y-105250500D01*
X176594646Y-105250500D01*
X176779803Y-105211144D01*
X176952730Y-105134151D01*
X177105871Y-105022888D01*
X177232533Y-104882216D01*
X177327179Y-104718284D01*
X177385674Y-104538256D01*
X177405460Y-104350000D01*
X177385674Y-104161744D01*
X177327179Y-103981716D01*
X177232533Y-103817784D01*
X177157349Y-103734284D01*
X177133736Y-103695751D01*
X177125500Y-103651313D01*
X177125500Y-98548687D01*
X177133736Y-98504249D01*
X177157350Y-98465715D01*
X177232533Y-98382216D01*
X177327179Y-98218284D01*
X177385674Y-98038256D01*
X177405460Y-97850000D01*
X177385674Y-97661744D01*
X177327179Y-97481716D01*
X177232533Y-97317784D01*
X177105871Y-97177112D01*
X177100613Y-97173292D01*
X177100611Y-97173290D01*
X176957988Y-97069669D01*
X176957987Y-97069668D01*
X176952730Y-97065849D01*
X176946792Y-97063205D01*
X176785745Y-96991501D01*
X176785740Y-96991499D01*
X176779803Y-96988856D01*
X176773444Y-96987504D01*
X176773440Y-96987503D01*
X176601008Y-96950852D01*
X176601005Y-96950851D01*
X176594646Y-96949500D01*
X176405354Y-96949500D01*
X176398995Y-96950851D01*
X176398991Y-96950852D01*
X176226559Y-96987503D01*
X176226552Y-96987505D01*
X176220197Y-96988856D01*
X176214262Y-96991498D01*
X176214254Y-96991501D01*
X176053207Y-97063205D01*
X176053202Y-97063207D01*
X176047270Y-97065849D01*
X176042016Y-97069665D01*
X176042011Y-97069669D01*
X175899388Y-97173290D01*
X175899381Y-97173295D01*
X175894129Y-97177112D01*
X175889784Y-97181937D01*
X175889779Y-97181942D01*
X175771813Y-97312956D01*
X175771808Y-97312962D01*
X175767467Y-97317784D01*
X175764222Y-97323404D01*
X175764218Y-97323410D01*
X175676069Y-97476089D01*
X175676066Y-97476094D01*
X175672821Y-97481716D01*
X175670815Y-97487888D01*
X175670813Y-97487894D01*
X175642431Y-97575246D01*
X175603540Y-97632472D01*
X175540041Y-97659950D01*
X175471703Y-97649127D01*
X175419803Y-97603370D01*
X175400500Y-97536928D01*
X175400500Y-96898687D01*
X175408736Y-96854249D01*
X175432350Y-96815715D01*
X175507533Y-96732216D01*
X175602179Y-96568284D01*
X175660674Y-96388256D01*
X175680460Y-96200000D01*
X175660674Y-96011744D01*
X175602179Y-95831716D01*
X175507533Y-95667784D01*
X175380871Y-95527112D01*
X175375613Y-95523292D01*
X175375611Y-95523290D01*
X175232988Y-95419669D01*
X175232987Y-95419668D01*
X175227730Y-95415849D01*
X175180544Y-95394840D01*
X175060745Y-95341501D01*
X175060740Y-95341499D01*
X175054803Y-95338856D01*
X175048444Y-95337504D01*
X175048440Y-95337503D01*
X174876008Y-95300852D01*
X174876005Y-95300851D01*
X174869646Y-95299500D01*
X174680354Y-95299500D01*
X174673995Y-95300851D01*
X174673991Y-95300852D01*
X174501559Y-95337503D01*
X174501552Y-95337505D01*
X174495197Y-95338856D01*
X174489262Y-95341498D01*
X174489254Y-95341501D01*
X174328207Y-95413205D01*
X174328202Y-95413207D01*
X174322270Y-95415849D01*
X174317016Y-95419665D01*
X174317011Y-95419669D01*
X174174388Y-95523290D01*
X174174381Y-95523295D01*
X174169129Y-95527112D01*
X174164784Y-95531937D01*
X174164779Y-95531942D01*
X174046813Y-95662956D01*
X174046808Y-95662962D01*
X174042467Y-95667784D01*
X174039222Y-95673404D01*
X174039218Y-95673410D01*
X173951069Y-95826089D01*
X173951066Y-95826094D01*
X173947821Y-95831716D01*
X173945815Y-95837888D01*
X173945813Y-95837894D01*
X173891333Y-96005564D01*
X173891331Y-96005573D01*
X173889326Y-96011744D01*
X173888648Y-96018194D01*
X173888646Y-96018204D01*
X173870962Y-96186464D01*
X173869540Y-96200000D01*
X173870219Y-96206460D01*
X173888646Y-96381795D01*
X173888647Y-96381803D01*
X173889326Y-96388256D01*
X173891331Y-96394428D01*
X173891333Y-96394435D01*
X173945813Y-96562105D01*
X173947821Y-96568284D01*
X174042467Y-96732216D01*
X174046811Y-96737041D01*
X174046813Y-96737043D01*
X174117650Y-96815715D01*
X174141264Y-96854249D01*
X174149500Y-96898687D01*
X174149500Y-101423702D01*
X174135984Y-101479998D01*
X174103447Y-101518092D01*
X174104215Y-101518945D01*
X174099386Y-101523292D01*
X174094129Y-101527112D01*
X174089784Y-101531937D01*
X174089779Y-101531942D01*
X173971813Y-101662956D01*
X173971808Y-101662962D01*
X173967467Y-101667784D01*
X173964222Y-101673404D01*
X173964218Y-101673410D01*
X173876069Y-101826089D01*
X173876066Y-101826094D01*
X173872821Y-101831716D01*
X173870815Y-101837888D01*
X173870813Y-101837894D01*
X173816333Y-102005564D01*
X173816331Y-102005573D01*
X173814326Y-102011744D01*
X173813648Y-102018194D01*
X173813646Y-102018204D01*
X173798507Y-102162257D01*
X173794540Y-102200000D01*
X141055076Y-102200000D01*
X141021976Y-102162257D01*
X141007965Y-102105000D01*
X141021976Y-102047743D01*
X141060842Y-102003425D01*
X141241961Y-101876604D01*
X141241961Y-101876603D01*
X141246401Y-101873495D01*
X141413495Y-101706401D01*
X141549035Y-101512830D01*
X141648903Y-101298663D01*
X141710063Y-101070408D01*
X141730659Y-100835000D01*
X141710063Y-100599592D01*
X141648903Y-100371337D01*
X141549035Y-100157171D01*
X141413495Y-99963599D01*
X141246401Y-99796505D01*
X141241970Y-99793402D01*
X141241966Y-99793399D01*
X141057259Y-99664066D01*
X141057257Y-99664064D01*
X141052830Y-99660965D01*
X141047933Y-99658681D01*
X141047927Y-99658678D01*
X140843572Y-99563386D01*
X140843570Y-99563385D01*
X140838663Y-99561097D01*
X140833438Y-99559697D01*
X140833430Y-99559694D01*
X140615634Y-99501337D01*
X140615630Y-99501336D01*
X140610408Y-99499937D01*
X140605020Y-99499465D01*
X140605017Y-99499465D01*
X140380395Y-99479813D01*
X140375000Y-99479341D01*
X140369605Y-99479813D01*
X140144982Y-99499465D01*
X140144977Y-99499465D01*
X140139592Y-99499937D01*
X140134371Y-99501335D01*
X140134365Y-99501337D01*
X139916569Y-99559694D01*
X139916557Y-99559698D01*
X139911337Y-99561097D01*
X139906432Y-99563383D01*
X139906427Y-99563386D01*
X139702081Y-99658675D01*
X139702077Y-99658677D01*
X139697171Y-99660965D01*
X139692738Y-99664068D01*
X139692731Y-99664073D01*
X139508034Y-99793399D01*
X139508029Y-99793402D01*
X139503599Y-99796505D01*
X139499775Y-99800328D01*
X139499769Y-99800334D01*
X139340334Y-99959769D01*
X139340328Y-99959775D01*
X139336505Y-99963599D01*
X139333402Y-99968029D01*
X139333399Y-99968034D01*
X139206575Y-100149159D01*
X139162257Y-100188025D01*
X139105000Y-100202036D01*
X139047743Y-100188025D01*
X139003425Y-100149159D01*
X138876600Y-99968034D01*
X138873495Y-99963599D01*
X138706401Y-99796505D01*
X138701970Y-99793402D01*
X138701966Y-99793399D01*
X138517259Y-99664066D01*
X138517257Y-99664064D01*
X138512830Y-99660965D01*
X138507933Y-99658681D01*
X138507927Y-99658678D01*
X138303572Y-99563386D01*
X138303570Y-99563385D01*
X138298663Y-99561097D01*
X138293438Y-99559697D01*
X138293430Y-99559694D01*
X138075634Y-99501337D01*
X138075630Y-99501336D01*
X138070408Y-99499937D01*
X138065020Y-99499465D01*
X138065017Y-99499465D01*
X137840395Y-99479813D01*
X137835000Y-99479341D01*
X137829605Y-99479813D01*
X137604982Y-99499465D01*
X137604977Y-99499465D01*
X137599592Y-99499937D01*
X137594371Y-99501335D01*
X137594365Y-99501337D01*
X137376569Y-99559694D01*
X137376557Y-99559698D01*
X137371337Y-99561097D01*
X137366432Y-99563383D01*
X137366427Y-99563386D01*
X137162081Y-99658675D01*
X137162077Y-99658677D01*
X137157171Y-99660965D01*
X137152738Y-99664068D01*
X137152731Y-99664073D01*
X136968034Y-99793399D01*
X136968029Y-99793402D01*
X136963599Y-99796505D01*
X136959775Y-99800328D01*
X136959769Y-99800334D01*
X136800334Y-99959769D01*
X136800328Y-99959775D01*
X136796505Y-99963599D01*
X136793402Y-99968029D01*
X136793399Y-99968034D01*
X136666575Y-100149159D01*
X136622257Y-100188025D01*
X136565000Y-100202036D01*
X136507743Y-100188025D01*
X136463425Y-100149159D01*
X136336600Y-99968034D01*
X136333495Y-99963599D01*
X136166401Y-99796505D01*
X136161970Y-99793402D01*
X136161966Y-99793399D01*
X135977259Y-99664066D01*
X135977257Y-99664064D01*
X135972830Y-99660965D01*
X135967933Y-99658681D01*
X135967927Y-99658678D01*
X135763572Y-99563386D01*
X135763570Y-99563385D01*
X135758663Y-99561097D01*
X135753438Y-99559697D01*
X135753430Y-99559694D01*
X135535634Y-99501337D01*
X135535630Y-99501336D01*
X135530408Y-99499937D01*
X135525020Y-99499465D01*
X135525017Y-99499465D01*
X135300395Y-99479813D01*
X135295000Y-99479341D01*
X135289605Y-99479813D01*
X135064982Y-99499465D01*
X135064977Y-99499465D01*
X135059592Y-99499937D01*
X135054371Y-99501335D01*
X135054365Y-99501337D01*
X134836569Y-99559694D01*
X134836557Y-99559698D01*
X134831337Y-99561097D01*
X134826432Y-99563383D01*
X134826427Y-99563386D01*
X134622081Y-99658675D01*
X134622077Y-99658677D01*
X134617171Y-99660965D01*
X134612738Y-99664068D01*
X134612731Y-99664073D01*
X134428034Y-99793399D01*
X134428029Y-99793402D01*
X134423599Y-99796505D01*
X134419775Y-99800328D01*
X134419775Y-99800329D01*
X134301285Y-99918819D01*
X134248538Y-99950114D01*
X134187246Y-99952303D01*
X134132401Y-99924850D01*
X134097422Y-99874471D01*
X134051451Y-99751220D01*
X134043037Y-99735810D01*
X133967501Y-99634907D01*
X133955092Y-99622498D01*
X133854189Y-99546962D01*
X133838777Y-99538547D01*
X133719641Y-99494111D01*
X133704667Y-99490573D01*
X133656114Y-99485353D01*
X133649518Y-99485000D01*
X133021326Y-99485000D01*
X133008450Y-99488450D01*
X133005000Y-99501326D01*
X133005000Y-100961000D01*
X132988387Y-101023000D01*
X132943000Y-101068387D01*
X132881000Y-101085000D01*
X131421326Y-101085000D01*
X131408450Y-101088450D01*
X131405000Y-101101326D01*
X131405000Y-101729518D01*
X131405353Y-101736114D01*
X131410573Y-101784667D01*
X131414111Y-101799641D01*
X131458547Y-101918777D01*
X131466962Y-101934189D01*
X131542498Y-102035092D01*
X131554907Y-102047501D01*
X131655810Y-102123037D01*
X131671220Y-102131451D01*
X131794471Y-102177422D01*
X131844850Y-102212401D01*
X131872303Y-102267246D01*
X131870114Y-102328538D01*
X131838819Y-102381285D01*
X131716505Y-102503599D01*
X131713402Y-102508029D01*
X131713399Y-102508034D01*
X131584073Y-102692731D01*
X131584068Y-102692738D01*
X131580965Y-102697171D01*
X131578677Y-102702077D01*
X131578675Y-102702081D01*
X131483386Y-102906427D01*
X131483383Y-102906432D01*
X131481097Y-102911337D01*
X131479698Y-102916557D01*
X131479694Y-102916569D01*
X131421337Y-103134365D01*
X131421335Y-103134371D01*
X131419937Y-103139592D01*
X131399341Y-103375000D01*
X121125500Y-103375000D01*
X121125500Y-100568674D01*
X131405000Y-100568674D01*
X131408450Y-100581549D01*
X131421326Y-100585000D01*
X132488674Y-100585000D01*
X132501549Y-100581549D01*
X132505000Y-100568674D01*
X132505000Y-99501326D01*
X132501549Y-99488450D01*
X132488674Y-99485000D01*
X131860482Y-99485000D01*
X131853885Y-99485353D01*
X131805332Y-99490573D01*
X131790358Y-99494111D01*
X131671222Y-99538547D01*
X131655810Y-99546962D01*
X131554907Y-99622498D01*
X131542498Y-99634907D01*
X131466962Y-99735810D01*
X131458547Y-99751222D01*
X131414111Y-99870358D01*
X131410573Y-99885332D01*
X131405353Y-99933885D01*
X131405000Y-99940482D01*
X131405000Y-100568674D01*
X121125500Y-100568674D01*
X121125500Y-92375000D01*
X164844540Y-92375000D01*
X164845219Y-92381460D01*
X164863646Y-92556795D01*
X164863647Y-92556803D01*
X164864326Y-92563256D01*
X164866331Y-92569428D01*
X164866333Y-92569435D01*
X164920813Y-92737105D01*
X164922821Y-92743284D01*
X165017467Y-92907216D01*
X165144129Y-93047888D01*
X165297270Y-93159151D01*
X165470197Y-93236144D01*
X165655354Y-93275500D01*
X165838143Y-93275500D01*
X165844646Y-93275500D01*
X166029803Y-93236144D01*
X166202730Y-93159151D01*
X166355871Y-93047888D01*
X166482533Y-92907216D01*
X166577179Y-92743284D01*
X166635674Y-92563256D01*
X166653321Y-92395344D01*
X166664721Y-92354925D01*
X166688958Y-92320630D01*
X168409588Y-90600000D01*
X177694540Y-90600000D01*
X177695219Y-90606460D01*
X177713646Y-90781795D01*
X177713647Y-90781803D01*
X177714326Y-90788256D01*
X177716331Y-90794428D01*
X177716333Y-90794435D01*
X177770813Y-90962105D01*
X177772821Y-90968284D01*
X177776068Y-90973908D01*
X177776069Y-90973910D01*
X177821618Y-91052804D01*
X177867467Y-91132216D01*
X177871811Y-91137041D01*
X177871813Y-91137043D01*
X177926853Y-91198171D01*
X177994129Y-91272888D01*
X178147270Y-91384151D01*
X178320197Y-91461144D01*
X178505354Y-91500500D01*
X178688143Y-91500500D01*
X178694646Y-91500500D01*
X178879803Y-91461144D01*
X179052730Y-91384151D01*
X179205871Y-91272888D01*
X179332533Y-91132216D01*
X179427179Y-90968284D01*
X179485674Y-90788256D01*
X179503321Y-90620344D01*
X179514721Y-90579925D01*
X179538958Y-90545630D01*
X180309588Y-89775000D01*
X181894540Y-89775000D01*
X181895219Y-89781460D01*
X181913646Y-89956795D01*
X181913647Y-89956803D01*
X181914326Y-89963256D01*
X181916331Y-89969428D01*
X181916333Y-89969435D01*
X181970813Y-90137105D01*
X181972821Y-90143284D01*
X181976068Y-90148908D01*
X181976069Y-90148910D01*
X182058335Y-90291400D01*
X182067467Y-90307216D01*
X182071811Y-90312041D01*
X182071813Y-90312043D01*
X182156020Y-90405564D01*
X182194129Y-90447888D01*
X182199387Y-90451708D01*
X182199388Y-90451709D01*
X182252518Y-90490310D01*
X182347270Y-90559151D01*
X182465507Y-90611794D01*
X182508789Y-90631065D01*
X182520197Y-90636144D01*
X182705354Y-90675500D01*
X182888143Y-90675500D01*
X182894646Y-90675500D01*
X183079803Y-90636144D01*
X183252730Y-90559151D01*
X183369681Y-90474181D01*
X183404247Y-90456569D01*
X183442565Y-90450500D01*
X185121252Y-90450500D01*
X185171685Y-90461219D01*
X185209781Y-90488895D01*
X185209950Y-90488709D01*
X185211728Y-90490310D01*
X185213398Y-90491523D01*
X185219129Y-90497888D01*
X185372270Y-90609151D01*
X185545197Y-90686144D01*
X185730354Y-90725500D01*
X185913143Y-90725500D01*
X185919646Y-90725500D01*
X186104803Y-90686144D01*
X186277730Y-90609151D01*
X186430871Y-90497888D01*
X186557533Y-90357216D01*
X186652179Y-90193284D01*
X186710674Y-90013256D01*
X186730460Y-89825000D01*
X186710674Y-89636744D01*
X186652179Y-89456716D01*
X186557533Y-89292784D01*
X186473539Y-89199500D01*
X186435220Y-89156942D01*
X186435219Y-89156941D01*
X186430871Y-89152112D01*
X186425613Y-89148292D01*
X186425611Y-89148290D01*
X186282988Y-89044669D01*
X186282987Y-89044668D01*
X186277730Y-89040849D01*
X186271792Y-89038205D01*
X186110745Y-88966501D01*
X186110740Y-88966499D01*
X186104803Y-88963856D01*
X186098444Y-88962504D01*
X186098440Y-88962503D01*
X185926008Y-88925852D01*
X185926005Y-88925851D01*
X185919646Y-88924500D01*
X185730354Y-88924500D01*
X185723995Y-88925851D01*
X185723991Y-88925852D01*
X185551559Y-88962503D01*
X185551552Y-88962505D01*
X185545197Y-88963856D01*
X185539262Y-88966498D01*
X185539254Y-88966501D01*
X185378207Y-89038205D01*
X185378202Y-89038207D01*
X185372270Y-89040849D01*
X185367016Y-89044665D01*
X185367011Y-89044669D01*
X185224388Y-89148290D01*
X185224381Y-89148295D01*
X185219129Y-89152112D01*
X185213403Y-89158472D01*
X185213399Y-89158476D01*
X185211728Y-89159689D01*
X185209950Y-89161291D01*
X185209781Y-89161104D01*
X185171685Y-89188781D01*
X185121252Y-89199500D01*
X183548768Y-89199500D01*
X183498333Y-89188780D01*
X183456618Y-89158472D01*
X183455239Y-89156941D01*
X183405871Y-89102112D01*
X183400613Y-89098292D01*
X183400611Y-89098290D01*
X183257988Y-88994669D01*
X183257987Y-88994668D01*
X183252730Y-88990849D01*
X183246792Y-88988205D01*
X183085745Y-88916501D01*
X183085740Y-88916499D01*
X183079803Y-88913856D01*
X183073444Y-88912504D01*
X183073440Y-88912503D01*
X182901008Y-88875852D01*
X182901005Y-88875851D01*
X182894646Y-88874500D01*
X182705354Y-88874500D01*
X182698995Y-88875851D01*
X182698991Y-88875852D01*
X182526559Y-88912503D01*
X182526552Y-88912505D01*
X182520197Y-88913856D01*
X182514262Y-88916498D01*
X182514254Y-88916501D01*
X182353207Y-88988205D01*
X182353202Y-88988207D01*
X182347270Y-88990849D01*
X182342016Y-88994665D01*
X182342011Y-88994669D01*
X182199388Y-89098290D01*
X182199381Y-89098295D01*
X182194129Y-89102112D01*
X182189784Y-89106937D01*
X182189779Y-89106942D01*
X182071813Y-89237956D01*
X182071808Y-89237962D01*
X182067467Y-89242784D01*
X182064222Y-89248404D01*
X182064218Y-89248410D01*
X181976069Y-89401089D01*
X181976066Y-89401094D01*
X181972821Y-89406716D01*
X181970815Y-89412888D01*
X181970813Y-89412894D01*
X181916333Y-89580564D01*
X181916331Y-89580573D01*
X181914326Y-89586744D01*
X181913648Y-89593194D01*
X181913646Y-89593204D01*
X181906292Y-89663181D01*
X181894540Y-89775000D01*
X180309588Y-89775000D01*
X182987311Y-87097278D01*
X182995481Y-87089844D01*
X183001877Y-87085786D01*
X183047918Y-87036756D01*
X183050535Y-87034054D01*
X183070120Y-87014471D01*
X183072585Y-87011292D01*
X183080167Y-87002416D01*
X183110062Y-86970582D01*
X183119713Y-86953023D01*
X183130390Y-86936770D01*
X183142673Y-86920936D01*
X183160018Y-86880852D01*
X183165151Y-86870371D01*
X183186197Y-86832092D01*
X183191179Y-86812684D01*
X183197482Y-86794276D01*
X183205437Y-86775896D01*
X183212271Y-86732744D01*
X183214633Y-86721338D01*
X183225500Y-86679019D01*
X183225500Y-86658983D01*
X183227027Y-86639585D01*
X183228939Y-86627513D01*
X183228938Y-86627513D01*
X183230160Y-86619804D01*
X183226050Y-86576324D01*
X183225500Y-86564655D01*
X183225500Y-82648687D01*
X183233736Y-82604249D01*
X183257350Y-82565715D01*
X183332533Y-82482216D01*
X183427179Y-82318284D01*
X183485674Y-82138256D01*
X183505460Y-81950000D01*
X183485674Y-81761744D01*
X183427179Y-81581716D01*
X183332533Y-81417784D01*
X183205871Y-81277112D01*
X183200613Y-81273292D01*
X183200611Y-81273290D01*
X183057988Y-81169669D01*
X183057987Y-81169668D01*
X183052730Y-81165849D01*
X183046792Y-81163205D01*
X182885745Y-81091501D01*
X182885740Y-81091499D01*
X182879803Y-81088856D01*
X182873444Y-81087504D01*
X182873440Y-81087503D01*
X182701008Y-81050852D01*
X182701005Y-81050851D01*
X182694646Y-81049500D01*
X182505354Y-81049500D01*
X182498995Y-81050851D01*
X182498991Y-81050852D01*
X182326559Y-81087503D01*
X182326552Y-81087505D01*
X182320197Y-81088856D01*
X182314262Y-81091498D01*
X182314254Y-81091501D01*
X182153207Y-81163205D01*
X182153202Y-81163207D01*
X182147270Y-81165849D01*
X182142016Y-81169665D01*
X182142011Y-81169669D01*
X181999388Y-81273290D01*
X181999381Y-81273295D01*
X181994129Y-81277112D01*
X181989784Y-81281937D01*
X181989779Y-81281942D01*
X181871813Y-81412956D01*
X181871808Y-81412962D01*
X181867467Y-81417784D01*
X181864222Y-81423404D01*
X181864218Y-81423410D01*
X181776069Y-81576089D01*
X181776066Y-81576094D01*
X181772821Y-81581716D01*
X181770815Y-81587888D01*
X181770813Y-81587894D01*
X181716333Y-81755564D01*
X181716331Y-81755573D01*
X181714326Y-81761744D01*
X181713648Y-81768194D01*
X181713646Y-81768204D01*
X181695962Y-81936464D01*
X181694540Y-81950000D01*
X181695219Y-81956460D01*
X181713646Y-82131795D01*
X181713647Y-82131803D01*
X181714326Y-82138256D01*
X181716331Y-82144428D01*
X181716333Y-82144435D01*
X181770813Y-82312105D01*
X181772821Y-82318284D01*
X181867467Y-82482216D01*
X181871811Y-82487041D01*
X181871813Y-82487043D01*
X181942650Y-82565715D01*
X181966264Y-82604249D01*
X181974500Y-82648687D01*
X181974500Y-86289547D01*
X181965061Y-86337000D01*
X181938181Y-86377228D01*
X181401084Y-86914323D01*
X181347061Y-86945987D01*
X181284455Y-86947216D01*
X181229231Y-86917698D01*
X181195473Y-86864962D01*
X181152179Y-86731716D01*
X181057533Y-86567784D01*
X181053180Y-86562950D01*
X180997470Y-86501078D01*
X180932349Y-86428753D01*
X180908736Y-86390221D01*
X180900500Y-86345783D01*
X180900500Y-84848687D01*
X180908736Y-84804249D01*
X180932350Y-84765715D01*
X181007533Y-84682216D01*
X181102179Y-84518284D01*
X181160674Y-84338256D01*
X181180460Y-84150000D01*
X181160674Y-83961744D01*
X181102179Y-83781716D01*
X181007533Y-83617784D01*
X180880871Y-83477112D01*
X180875613Y-83473292D01*
X180875611Y-83473290D01*
X180732988Y-83369669D01*
X180732987Y-83369668D01*
X180727730Y-83365849D01*
X180721792Y-83363205D01*
X180560745Y-83291501D01*
X180560740Y-83291499D01*
X180554803Y-83288856D01*
X180548444Y-83287504D01*
X180548440Y-83287503D01*
X180376008Y-83250852D01*
X180376005Y-83250851D01*
X180369646Y-83249500D01*
X180180354Y-83249500D01*
X180173995Y-83250851D01*
X180173991Y-83250852D01*
X180001559Y-83287503D01*
X180001552Y-83287505D01*
X179995197Y-83288856D01*
X179989262Y-83291498D01*
X179989254Y-83291501D01*
X179828207Y-83363205D01*
X179828202Y-83363207D01*
X179822270Y-83365849D01*
X179817016Y-83369665D01*
X179817011Y-83369669D01*
X179674388Y-83473290D01*
X179674381Y-83473295D01*
X179669129Y-83477112D01*
X179664784Y-83481937D01*
X179664779Y-83481942D01*
X179546813Y-83612956D01*
X179546808Y-83612962D01*
X179542467Y-83617784D01*
X179539222Y-83623404D01*
X179539218Y-83623410D01*
X179451069Y-83776089D01*
X179451066Y-83776094D01*
X179447821Y-83781716D01*
X179445815Y-83787888D01*
X179445813Y-83787894D01*
X179391333Y-83955564D01*
X179391331Y-83955573D01*
X179389326Y-83961744D01*
X179388648Y-83968194D01*
X179388646Y-83968204D01*
X179376061Y-84087956D01*
X179369540Y-84150000D01*
X179370219Y-84156460D01*
X179388646Y-84331795D01*
X179388647Y-84331803D01*
X179389326Y-84338256D01*
X179391331Y-84344428D01*
X179391333Y-84344435D01*
X179442865Y-84503032D01*
X179447821Y-84518284D01*
X179451068Y-84523908D01*
X179451069Y-84523910D01*
X179515660Y-84635786D01*
X179542467Y-84682216D01*
X179546811Y-84687041D01*
X179546813Y-84687043D01*
X179617650Y-84765715D01*
X179641264Y-84804249D01*
X179649500Y-84848687D01*
X179649500Y-86456843D01*
X179641264Y-86501281D01*
X179617649Y-86539816D01*
X179596817Y-86562950D01*
X179596806Y-86562964D01*
X179592467Y-86567784D01*
X179589220Y-86573407D01*
X179589217Y-86573412D01*
X179501069Y-86726089D01*
X179501066Y-86726094D01*
X179497821Y-86731716D01*
X179495815Y-86737888D01*
X179495813Y-86737894D01*
X179441333Y-86905564D01*
X179441331Y-86905573D01*
X179439326Y-86911744D01*
X179438648Y-86918194D01*
X179438646Y-86918204D01*
X179423529Y-87062043D01*
X179419540Y-87100000D01*
X179420219Y-87106460D01*
X179438646Y-87281795D01*
X179438647Y-87281803D01*
X179439326Y-87288256D01*
X179441331Y-87294428D01*
X179441333Y-87294435D01*
X179495813Y-87462105D01*
X179497821Y-87468284D01*
X179501068Y-87473908D01*
X179501069Y-87473910D01*
X179519355Y-87505583D01*
X179592467Y-87632216D01*
X179596811Y-87637041D01*
X179596813Y-87637043D01*
X179639350Y-87684285D01*
X179719129Y-87772888D01*
X179724387Y-87776708D01*
X179724388Y-87776709D01*
X179763819Y-87805357D01*
X179872270Y-87884151D01*
X180045197Y-87961144D01*
X180076698Y-87967839D01*
X180135087Y-87998072D01*
X180169810Y-88053910D01*
X180171102Y-88119651D01*
X180138598Y-88176810D01*
X178652228Y-89663181D01*
X178612000Y-89690061D01*
X178564547Y-89699500D01*
X178505354Y-89699500D01*
X178498995Y-89700851D01*
X178498991Y-89700852D01*
X178326559Y-89737503D01*
X178326552Y-89737505D01*
X178320197Y-89738856D01*
X178314262Y-89741498D01*
X178314254Y-89741501D01*
X178153207Y-89813205D01*
X178153202Y-89813207D01*
X178147270Y-89815849D01*
X178142016Y-89819665D01*
X178142011Y-89819669D01*
X177999388Y-89923290D01*
X177999381Y-89923295D01*
X177994129Y-89927112D01*
X177989784Y-89931937D01*
X177989779Y-89931942D01*
X177871813Y-90062956D01*
X177871808Y-90062962D01*
X177867467Y-90067784D01*
X177864222Y-90073404D01*
X177864218Y-90073410D01*
X177776069Y-90226089D01*
X177776066Y-90226094D01*
X177772821Y-90231716D01*
X177770815Y-90237888D01*
X177770813Y-90237894D01*
X177716333Y-90405564D01*
X177716331Y-90405573D01*
X177714326Y-90411744D01*
X177713648Y-90418194D01*
X177713646Y-90418204D01*
X177696650Y-90579925D01*
X177694540Y-90600000D01*
X168409588Y-90600000D01*
X174362306Y-84647282D01*
X174370482Y-84639843D01*
X174376877Y-84635786D01*
X174387005Y-84625000D01*
X175369540Y-84625000D01*
X175370219Y-84631460D01*
X175388646Y-84806795D01*
X175388647Y-84806803D01*
X175389326Y-84813256D01*
X175391331Y-84819428D01*
X175391333Y-84819435D01*
X175440148Y-84969669D01*
X175447821Y-84993284D01*
X175451068Y-84998908D01*
X175451069Y-84998910D01*
X175499007Y-85081942D01*
X175542467Y-85157216D01*
X175546811Y-85162041D01*
X175546813Y-85162043D01*
X175617650Y-85240715D01*
X175641264Y-85279249D01*
X175649500Y-85323687D01*
X175649500Y-85854078D01*
X175641264Y-85898516D01*
X175617649Y-85937050D01*
X175567467Y-85992784D01*
X175564222Y-85998404D01*
X175564218Y-85998410D01*
X175476069Y-86151089D01*
X175476066Y-86151094D01*
X175472821Y-86156716D01*
X175470815Y-86162888D01*
X175470813Y-86162894D01*
X175416333Y-86330564D01*
X175416331Y-86330573D01*
X175414326Y-86336744D01*
X175413648Y-86343194D01*
X175413646Y-86343204D01*
X175399963Y-86473403D01*
X175394540Y-86525000D01*
X175395219Y-86531460D01*
X175413646Y-86706795D01*
X175413647Y-86706803D01*
X175414326Y-86713256D01*
X175416331Y-86719428D01*
X175416333Y-86719435D01*
X175470813Y-86887105D01*
X175472821Y-86893284D01*
X175476068Y-86898908D01*
X175476069Y-86898910D01*
X175544377Y-87017224D01*
X175567467Y-87057216D01*
X175571811Y-87062041D01*
X175571813Y-87062043D01*
X175639574Y-87137299D01*
X175694129Y-87197888D01*
X175847270Y-87309151D01*
X176020197Y-87386144D01*
X176205354Y-87425500D01*
X176388143Y-87425500D01*
X176394646Y-87425500D01*
X176579803Y-87386144D01*
X176752730Y-87309151D01*
X176905871Y-87197888D01*
X177032533Y-87057216D01*
X177127179Y-86893284D01*
X177185674Y-86713256D01*
X177205460Y-86525000D01*
X177195567Y-86430872D01*
X177186353Y-86343204D01*
X177186352Y-86343203D01*
X177185674Y-86336744D01*
X177127179Y-86156716D01*
X177032533Y-85992784D01*
X176932349Y-85881519D01*
X176908736Y-85842986D01*
X176900500Y-85798548D01*
X176900500Y-85323687D01*
X176908736Y-85279249D01*
X176932350Y-85240715D01*
X177007533Y-85157216D01*
X177102179Y-84993284D01*
X177160674Y-84813256D01*
X177180460Y-84625000D01*
X177160674Y-84436744D01*
X177102179Y-84256716D01*
X177007533Y-84092784D01*
X176880871Y-83952112D01*
X176875613Y-83948292D01*
X176875611Y-83948290D01*
X176732988Y-83844669D01*
X176732987Y-83844668D01*
X176727730Y-83840849D01*
X176721792Y-83838205D01*
X176560745Y-83766501D01*
X176560740Y-83766499D01*
X176554803Y-83763856D01*
X176548444Y-83762504D01*
X176548440Y-83762503D01*
X176376008Y-83725852D01*
X176376005Y-83725851D01*
X176369646Y-83724500D01*
X176180354Y-83724500D01*
X176173995Y-83725851D01*
X176173991Y-83725852D01*
X176001559Y-83762503D01*
X176001552Y-83762505D01*
X175995197Y-83763856D01*
X175989262Y-83766498D01*
X175989254Y-83766501D01*
X175828207Y-83838205D01*
X175828202Y-83838207D01*
X175822270Y-83840849D01*
X175817016Y-83844665D01*
X175817011Y-83844669D01*
X175674388Y-83948290D01*
X175674381Y-83948295D01*
X175669129Y-83952112D01*
X175664784Y-83956937D01*
X175664779Y-83956942D01*
X175546813Y-84087956D01*
X175546808Y-84087962D01*
X175542467Y-84092784D01*
X175539222Y-84098404D01*
X175539218Y-84098410D01*
X175451069Y-84251089D01*
X175451066Y-84251094D01*
X175447821Y-84256716D01*
X175445815Y-84262888D01*
X175445813Y-84262894D01*
X175391333Y-84430564D01*
X175391331Y-84430573D01*
X175389326Y-84436744D01*
X175388648Y-84443194D01*
X175388646Y-84443204D01*
X175376720Y-84556684D01*
X175369540Y-84625000D01*
X174387005Y-84625000D01*
X174422933Y-84586740D01*
X174425550Y-84584038D01*
X174445120Y-84564470D01*
X174447565Y-84561316D01*
X174455155Y-84552428D01*
X174485062Y-84520582D01*
X174494709Y-84503032D01*
X174505393Y-84486766D01*
X174517674Y-84470936D01*
X174535018Y-84430851D01*
X174540160Y-84420356D01*
X174561197Y-84382092D01*
X174566179Y-84362689D01*
X174572480Y-84344283D01*
X174580438Y-84325895D01*
X174587269Y-84282756D01*
X174589639Y-84271315D01*
X174591802Y-84262894D01*
X174600500Y-84229019D01*
X174600500Y-84208983D01*
X174602025Y-84189597D01*
X174605160Y-84169804D01*
X174601050Y-84126324D01*
X174600500Y-84114655D01*
X174600500Y-76269578D01*
X191874500Y-76269578D01*
X191874501Y-76272872D01*
X191874853Y-76276150D01*
X191874854Y-76276161D01*
X191880079Y-76324768D01*
X191880080Y-76324773D01*
X191880909Y-76332483D01*
X191883619Y-76339749D01*
X191883620Y-76339753D01*
X191917217Y-76429831D01*
X191931204Y-76467331D01*
X191936518Y-76474430D01*
X191936519Y-76474431D01*
X191946299Y-76487496D01*
X192017454Y-76582546D01*
X192132669Y-76668796D01*
X192267517Y-76719091D01*
X192327127Y-76725500D01*
X194422872Y-76725499D01*
X194482483Y-76719091D01*
X194617331Y-76668796D01*
X194732546Y-76582546D01*
X194818796Y-76467331D01*
X194825913Y-76448248D01*
X200110749Y-76448248D01*
X200118855Y-76459439D01*
X200147717Y-76481903D01*
X200156279Y-76487496D01*
X200365885Y-76600929D01*
X200375239Y-76605032D01*
X200600656Y-76682417D01*
X200610568Y-76684928D01*
X200845643Y-76724155D01*
X200855839Y-76725000D01*
X201094161Y-76725000D01*
X201104356Y-76724155D01*
X201339431Y-76684928D01*
X201349343Y-76682417D01*
X201574760Y-76605032D01*
X201584114Y-76600929D01*
X201793723Y-76487495D01*
X201802281Y-76481903D01*
X201831146Y-76459437D01*
X201839250Y-76448250D01*
X201832589Y-76436142D01*
X200986542Y-75590095D01*
X200975000Y-75583431D01*
X200963457Y-75590095D01*
X200117408Y-76436143D01*
X200110749Y-76448248D01*
X194825913Y-76448248D01*
X194869091Y-76332483D01*
X194875500Y-76272873D01*
X194875500Y-75230117D01*
X199470283Y-75230117D01*
X199489962Y-75467618D01*
X199491646Y-75477712D01*
X199550153Y-75708747D01*
X199553472Y-75718414D01*
X199649208Y-75936673D01*
X199654070Y-75945656D01*
X199743999Y-76083304D01*
X199751963Y-76091024D01*
X199761345Y-76085100D01*
X200609904Y-75236542D01*
X200616568Y-75225000D01*
X201333431Y-75225000D01*
X201340095Y-75236542D01*
X202188653Y-76085100D01*
X202198034Y-76091024D01*
X202206002Y-76083299D01*
X202295924Y-75945664D01*
X202300792Y-75936669D01*
X202396527Y-75718414D01*
X202399846Y-75708747D01*
X202458353Y-75477712D01*
X202460037Y-75467618D01*
X202479717Y-75230117D01*
X202479717Y-75219883D01*
X202460037Y-74982381D01*
X202458353Y-74972287D01*
X202399846Y-74741252D01*
X202396527Y-74731585D01*
X202300792Y-74513330D01*
X202295924Y-74504335D01*
X202206002Y-74366699D01*
X202198034Y-74358974D01*
X202188653Y-74364898D01*
X201340095Y-75213457D01*
X201333431Y-75225000D01*
X200616568Y-75225000D01*
X200609904Y-75213457D01*
X199761345Y-74364898D01*
X199751964Y-74358974D01*
X199743997Y-74366699D01*
X199654072Y-74504338D01*
X199649207Y-74513328D01*
X199553472Y-74731585D01*
X199550153Y-74741252D01*
X199491646Y-74972287D01*
X199489962Y-74982381D01*
X199470283Y-75219883D01*
X199470283Y-75230117D01*
X194875500Y-75230117D01*
X194875499Y-74177128D01*
X194869091Y-74117517D01*
X194825912Y-74001749D01*
X200110748Y-74001749D01*
X200117408Y-74013855D01*
X200963457Y-74859904D01*
X200975000Y-74866568D01*
X200986542Y-74859904D01*
X201832590Y-74013855D01*
X201839250Y-74001749D01*
X201831143Y-73990559D01*
X201802286Y-73968099D01*
X201793719Y-73962503D01*
X201584114Y-73849070D01*
X201574760Y-73844967D01*
X201349343Y-73767582D01*
X201339431Y-73765071D01*
X201104356Y-73725844D01*
X201094161Y-73725000D01*
X200855839Y-73725000D01*
X200845643Y-73725844D01*
X200610568Y-73765071D01*
X200600656Y-73767582D01*
X200375239Y-73844967D01*
X200365885Y-73849070D01*
X200156276Y-73962504D01*
X200147717Y-73968096D01*
X200118854Y-73990560D01*
X200110748Y-74001749D01*
X194825912Y-74001749D01*
X194818796Y-73982669D01*
X194732546Y-73867454D01*
X194617331Y-73781204D01*
X194482483Y-73730909D01*
X194474770Y-73730079D01*
X194474767Y-73730079D01*
X194426180Y-73724855D01*
X194426169Y-73724854D01*
X194422873Y-73724500D01*
X194419550Y-73724500D01*
X192330439Y-73724500D01*
X192330420Y-73724500D01*
X192327128Y-73724501D01*
X192323850Y-73724853D01*
X192323838Y-73724854D01*
X192275231Y-73730079D01*
X192275225Y-73730080D01*
X192267517Y-73730909D01*
X192260252Y-73733618D01*
X192260246Y-73733620D01*
X192140980Y-73778104D01*
X192140978Y-73778104D01*
X192132669Y-73781204D01*
X192125572Y-73786516D01*
X192125568Y-73786519D01*
X192024550Y-73862141D01*
X192024546Y-73862144D01*
X192017454Y-73867454D01*
X192012144Y-73874546D01*
X192012141Y-73874550D01*
X191936519Y-73975568D01*
X191936516Y-73975572D01*
X191931204Y-73982669D01*
X191928104Y-73990978D01*
X191928104Y-73990980D01*
X191883620Y-74110247D01*
X191883619Y-74110250D01*
X191880909Y-74117517D01*
X191880079Y-74125227D01*
X191880079Y-74125232D01*
X191874855Y-74173819D01*
X191874854Y-74173831D01*
X191874500Y-74177127D01*
X191874500Y-74180448D01*
X191874500Y-74180449D01*
X191874500Y-76269560D01*
X191874500Y-76269578D01*
X174600500Y-76269578D01*
X174600500Y-65300000D01*
X204694754Y-65300000D01*
X204713720Y-65601457D01*
X204714447Y-65605269D01*
X204714449Y-65605283D01*
X204769588Y-65894330D01*
X204770319Y-65898160D01*
X204771523Y-65901867D01*
X204771524Y-65901869D01*
X204817959Y-66044782D01*
X204863659Y-66185430D01*
X204992267Y-66458736D01*
X204994349Y-66462017D01*
X204994352Y-66462022D01*
X205152024Y-66710474D01*
X205152028Y-66710480D01*
X205154115Y-66713768D01*
X205346651Y-66946504D01*
X205566838Y-67153274D01*
X205811205Y-67330816D01*
X206075896Y-67476332D01*
X206356738Y-67587525D01*
X206649302Y-67662642D01*
X206948973Y-67700500D01*
X207247133Y-67700500D01*
X207251027Y-67700500D01*
X207550698Y-67662642D01*
X207843262Y-67587525D01*
X208124104Y-67476332D01*
X208388795Y-67330816D01*
X208633162Y-67153274D01*
X208853349Y-66946504D01*
X209045885Y-66713768D01*
X209207733Y-66458736D01*
X209336341Y-66185430D01*
X209429681Y-65898160D01*
X209486280Y-65601457D01*
X209505246Y-65300000D01*
X209486280Y-64998543D01*
X209429681Y-64701840D01*
X209336341Y-64414570D01*
X209207733Y-64141264D01*
X209045885Y-63886232D01*
X208853349Y-63653496D01*
X208633162Y-63446726D01*
X208388795Y-63269184D01*
X208385391Y-63267313D01*
X208385387Y-63267310D01*
X208127521Y-63125546D01*
X208127514Y-63125542D01*
X208124104Y-63123668D01*
X208120478Y-63122232D01*
X208120473Y-63122230D01*
X207846890Y-63013911D01*
X207846884Y-63013909D01*
X207843262Y-63012475D01*
X207839484Y-63011505D01*
X207839481Y-63011504D01*
X207554476Y-62938328D01*
X207554475Y-62938327D01*
X207550698Y-62937358D01*
X207546835Y-62936870D01*
X207546830Y-62936869D01*
X207254891Y-62899988D01*
X207254888Y-62899987D01*
X207251027Y-62899500D01*
X206948973Y-62899500D01*
X206945112Y-62899987D01*
X206945108Y-62899988D01*
X206653169Y-62936869D01*
X206653161Y-62936870D01*
X206649302Y-62937358D01*
X206645527Y-62938327D01*
X206645523Y-62938328D01*
X206360518Y-63011504D01*
X206360511Y-63011506D01*
X206356738Y-63012475D01*
X206353120Y-63013907D01*
X206353109Y-63013911D01*
X206079526Y-63122230D01*
X206079515Y-63122234D01*
X206075896Y-63123668D01*
X206072491Y-63125539D01*
X206072478Y-63125546D01*
X205814612Y-63267310D01*
X205814600Y-63267317D01*
X205811205Y-63269184D01*
X205808061Y-63271467D01*
X205808055Y-63271472D01*
X205569994Y-63444432D01*
X205569983Y-63444440D01*
X205566838Y-63446726D01*
X205564003Y-63449387D01*
X205563996Y-63449394D01*
X205349488Y-63650831D01*
X205349481Y-63650838D01*
X205346651Y-63653496D01*
X205344176Y-63656487D01*
X205344172Y-63656492D01*
X205156598Y-63883229D01*
X205156588Y-63883241D01*
X205154115Y-63886232D01*
X205152033Y-63889511D01*
X205152024Y-63889525D01*
X204994352Y-64137977D01*
X204994345Y-64137988D01*
X204992267Y-64141264D01*
X204990614Y-64144774D01*
X204990611Y-64144782D01*
X204865315Y-64411050D01*
X204863659Y-64414570D01*
X204770319Y-64701840D01*
X204769590Y-64705660D01*
X204769588Y-64705669D01*
X204714449Y-64994716D01*
X204714446Y-64994732D01*
X204713720Y-64998543D01*
X204694754Y-65300000D01*
X174600500Y-65300000D01*
X174600500Y-63185452D01*
X174609939Y-63137999D01*
X174636819Y-63097771D01*
X176572772Y-61161819D01*
X176613000Y-61134939D01*
X176660453Y-61125500D01*
X176713143Y-61125500D01*
X176719646Y-61125500D01*
X176904803Y-61086144D01*
X177077730Y-61009151D01*
X177230871Y-60897888D01*
X177357533Y-60757216D01*
X177452179Y-60593284D01*
X177510674Y-60413256D01*
X177530460Y-60225000D01*
X177510674Y-60036744D01*
X177452179Y-59856716D01*
X177357533Y-59692784D01*
X177230871Y-59552112D01*
X177225613Y-59548292D01*
X177225611Y-59548290D01*
X177082988Y-59444669D01*
X177082987Y-59444668D01*
X177077730Y-59440849D01*
X177071792Y-59438205D01*
X176910745Y-59366501D01*
X176910740Y-59366499D01*
X176904803Y-59363856D01*
X176898444Y-59362504D01*
X176898440Y-59362503D01*
X176726008Y-59325852D01*
X176726005Y-59325851D01*
X176719646Y-59324500D01*
X176530354Y-59324500D01*
X176523995Y-59325851D01*
X176523991Y-59325852D01*
X176351559Y-59362503D01*
X176351552Y-59362505D01*
X176345197Y-59363856D01*
X176339262Y-59366498D01*
X176339254Y-59366501D01*
X176178207Y-59438205D01*
X176178202Y-59438207D01*
X176172270Y-59440849D01*
X176167016Y-59444665D01*
X176167011Y-59444669D01*
X176024388Y-59548290D01*
X176024381Y-59548295D01*
X176019129Y-59552112D01*
X176014784Y-59556937D01*
X176014779Y-59556942D01*
X175896813Y-59687956D01*
X175896808Y-59687962D01*
X175892467Y-59692784D01*
X175889222Y-59698404D01*
X175889218Y-59698410D01*
X175801069Y-59851089D01*
X175801066Y-59851094D01*
X175797821Y-59856716D01*
X175795815Y-59862888D01*
X175795813Y-59862894D01*
X175741333Y-60030564D01*
X175741331Y-60030573D01*
X175739326Y-60036744D01*
X175738647Y-60043203D01*
X175738647Y-60043204D01*
X175721678Y-60204650D01*
X175710278Y-60245072D01*
X175686038Y-60279369D01*
X173587696Y-62377711D01*
X173579511Y-62385159D01*
X173573123Y-62389214D01*
X173567788Y-62394894D01*
X173567783Y-62394899D01*
X173527096Y-62438225D01*
X173524392Y-62441016D01*
X173507628Y-62457780D01*
X173507621Y-62457787D01*
X173504880Y-62460529D01*
X173502500Y-62463596D01*
X173502489Y-62463609D01*
X173502400Y-62463725D01*
X173494842Y-62472570D01*
X173470280Y-62498727D01*
X173470273Y-62498736D01*
X173464938Y-62504418D01*
X173461182Y-62511249D01*
X173461179Y-62511254D01*
X173455285Y-62521975D01*
X173444609Y-62538227D01*
X173437109Y-62547896D01*
X173437101Y-62547907D01*
X173432327Y-62554064D01*
X173429234Y-62561208D01*
X173429229Y-62561219D01*
X173414974Y-62594160D01*
X173409838Y-62604643D01*
X173388803Y-62642908D01*
X173386864Y-62650456D01*
X173386863Y-62650461D01*
X173383822Y-62662307D01*
X173377521Y-62680711D01*
X173372658Y-62691948D01*
X173372656Y-62691952D01*
X173369562Y-62699104D01*
X173368342Y-62706803D01*
X173368342Y-62706805D01*
X173362729Y-62742241D01*
X173360361Y-62753676D01*
X173351438Y-62788428D01*
X173351436Y-62788436D01*
X173349500Y-62795981D01*
X173349500Y-62803777D01*
X173349500Y-62816017D01*
X173347974Y-62835402D01*
X173344840Y-62855196D01*
X173345574Y-62862961D01*
X173345574Y-62862964D01*
X173348950Y-62898676D01*
X173349500Y-62910345D01*
X173349500Y-83839548D01*
X173340061Y-83887001D01*
X173313181Y-83927229D01*
X170596555Y-86643853D01*
X170538871Y-86676489D01*
X170472617Y-86674753D01*
X170416723Y-86639142D01*
X170406072Y-86627313D01*
X170400814Y-86623493D01*
X170400812Y-86623491D01*
X170258189Y-86519870D01*
X170258188Y-86519869D01*
X170252931Y-86516050D01*
X170246993Y-86513406D01*
X170085946Y-86441702D01*
X170085941Y-86441700D01*
X170080004Y-86439057D01*
X170073645Y-86437705D01*
X170073641Y-86437704D01*
X169901209Y-86401053D01*
X169901206Y-86401052D01*
X169894847Y-86399701D01*
X169705555Y-86399701D01*
X169699196Y-86401052D01*
X169699192Y-86401053D01*
X169526760Y-86437704D01*
X169526753Y-86437706D01*
X169520398Y-86439057D01*
X169514463Y-86441699D01*
X169514455Y-86441702D01*
X169381098Y-86501078D01*
X169330662Y-86511799D01*
X166641449Y-86511799D01*
X166591016Y-86501080D01*
X166552919Y-86473403D01*
X166552751Y-86473590D01*
X166550972Y-86471988D01*
X166549302Y-86470775D01*
X166543572Y-86464411D01*
X166538314Y-86460591D01*
X166538312Y-86460589D01*
X166395689Y-86356968D01*
X166395688Y-86356967D01*
X166390431Y-86353148D01*
X166384493Y-86350504D01*
X166223446Y-86278800D01*
X166223441Y-86278798D01*
X166217504Y-86276155D01*
X166211145Y-86274803D01*
X166211141Y-86274802D01*
X166038709Y-86238151D01*
X166038706Y-86238150D01*
X166032347Y-86236799D01*
X165843055Y-86236799D01*
X165836696Y-86238150D01*
X165836692Y-86238151D01*
X165664260Y-86274802D01*
X165664253Y-86274804D01*
X165657898Y-86276155D01*
X165651963Y-86278797D01*
X165651955Y-86278800D01*
X165490908Y-86350504D01*
X165490903Y-86350506D01*
X165484971Y-86353148D01*
X165479717Y-86356964D01*
X165479712Y-86356968D01*
X165337089Y-86460589D01*
X165337082Y-86460594D01*
X165331830Y-86464411D01*
X165327485Y-86469236D01*
X165327480Y-86469241D01*
X165209514Y-86600255D01*
X165209509Y-86600261D01*
X165205168Y-86605083D01*
X165201923Y-86610703D01*
X165201919Y-86610709D01*
X165113770Y-86763388D01*
X165113767Y-86763393D01*
X165110522Y-86769015D01*
X165108516Y-86775187D01*
X165108514Y-86775193D01*
X165054034Y-86942863D01*
X165054032Y-86942872D01*
X165052027Y-86949043D01*
X165051349Y-86955493D01*
X165051347Y-86955503D01*
X165037273Y-87089424D01*
X165032241Y-87137299D01*
X165032920Y-87143759D01*
X165051347Y-87319094D01*
X165051348Y-87319102D01*
X165052027Y-87325555D01*
X165054032Y-87331727D01*
X165054034Y-87331734D01*
X165108514Y-87499404D01*
X165110522Y-87505583D01*
X165113769Y-87511207D01*
X165113770Y-87511209D01*
X165180384Y-87626589D01*
X165205168Y-87669515D01*
X165209512Y-87674340D01*
X165209514Y-87674342D01*
X165289303Y-87762956D01*
X165331830Y-87810187D01*
X165337088Y-87814007D01*
X165337089Y-87814008D01*
X165350450Y-87823715D01*
X165484971Y-87921450D01*
X165657898Y-87998443D01*
X165843055Y-88037799D01*
X166025844Y-88037799D01*
X166032347Y-88037799D01*
X166217504Y-87998443D01*
X166390431Y-87921450D01*
X166543572Y-87810187D01*
X166549302Y-87803822D01*
X166550972Y-87802609D01*
X166552751Y-87801008D01*
X166552919Y-87801194D01*
X166591016Y-87773518D01*
X166641449Y-87762799D01*
X168955883Y-87762799D01*
X169017884Y-87779413D01*
X169060253Y-87821783D01*
X169060599Y-87821532D01*
X169062185Y-87823715D01*
X169063270Y-87824800D01*
X169067668Y-87832417D01*
X169072012Y-87837242D01*
X169072014Y-87837244D01*
X169150174Y-87924049D01*
X169178846Y-87979127D01*
X169177220Y-88041200D01*
X169145705Y-88094702D01*
X165802228Y-91438181D01*
X165762000Y-91465061D01*
X165714547Y-91474500D01*
X165655354Y-91474500D01*
X165648995Y-91475851D01*
X165648991Y-91475852D01*
X165476559Y-91512503D01*
X165476552Y-91512505D01*
X165470197Y-91513856D01*
X165464262Y-91516498D01*
X165464254Y-91516501D01*
X165303207Y-91588205D01*
X165303202Y-91588207D01*
X165297270Y-91590849D01*
X165292016Y-91594665D01*
X165292011Y-91594669D01*
X165149388Y-91698290D01*
X165149381Y-91698295D01*
X165144129Y-91702112D01*
X165139784Y-91706937D01*
X165139779Y-91706942D01*
X165021813Y-91837956D01*
X165021808Y-91837962D01*
X165017467Y-91842784D01*
X165014222Y-91848404D01*
X165014218Y-91848410D01*
X164926069Y-92001089D01*
X164926066Y-92001094D01*
X164922821Y-92006716D01*
X164920815Y-92012888D01*
X164920813Y-92012894D01*
X164866333Y-92180564D01*
X164866331Y-92180573D01*
X164864326Y-92186744D01*
X164863648Y-92193194D01*
X164863646Y-92193204D01*
X164846650Y-92354925D01*
X164844540Y-92375000D01*
X121125500Y-92375000D01*
X121125500Y-90718935D01*
X131245669Y-90718935D01*
X131276135Y-90891711D01*
X131345623Y-91052804D01*
X131450390Y-91193530D01*
X131584786Y-91306302D01*
X131741567Y-91385040D01*
X131912279Y-91425500D01*
X132040111Y-91425500D01*
X132043709Y-91425500D01*
X132174255Y-91410241D01*
X132339117Y-91350237D01*
X132485696Y-91253830D01*
X132606092Y-91126218D01*
X132693812Y-90974281D01*
X132744130Y-90806210D01*
X132754331Y-90631065D01*
X132723865Y-90458289D01*
X132654377Y-90297196D01*
X132549610Y-90156470D01*
X132477747Y-90096170D01*
X132420745Y-90048339D01*
X132420744Y-90048338D01*
X132415214Y-90043698D01*
X132408763Y-90040458D01*
X132264883Y-89968199D01*
X132264880Y-89968198D01*
X132258433Y-89964960D01*
X132251407Y-89963294D01*
X132251405Y-89963294D01*
X132094749Y-89926165D01*
X132094743Y-89926164D01*
X132087721Y-89924500D01*
X131956291Y-89924500D01*
X131952725Y-89924916D01*
X131952721Y-89924917D01*
X131832915Y-89938920D01*
X131832907Y-89938921D01*
X131825745Y-89939759D01*
X131818967Y-89942225D01*
X131818958Y-89942228D01*
X131667674Y-89997291D01*
X131667671Y-89997292D01*
X131660883Y-89999763D01*
X131654850Y-90003730D01*
X131654842Y-90003735D01*
X131520340Y-90092199D01*
X131520334Y-90092203D01*
X131514304Y-90096170D01*
X131509351Y-90101419D01*
X131509346Y-90101424D01*
X131398865Y-90218527D01*
X131398861Y-90218531D01*
X131393908Y-90223782D01*
X131390299Y-90230032D01*
X131390296Y-90230037D01*
X131309799Y-90369463D01*
X131309796Y-90369468D01*
X131306188Y-90375719D01*
X131304117Y-90382634D01*
X131304117Y-90382636D01*
X131257941Y-90536869D01*
X131257939Y-90536877D01*
X131255870Y-90543790D01*
X131255450Y-90550996D01*
X131255449Y-90551004D01*
X131246088Y-90711725D01*
X131246088Y-90711733D01*
X131245669Y-90718935D01*
X121125500Y-90718935D01*
X121125500Y-88300000D01*
X150819540Y-88300000D01*
X150820219Y-88306460D01*
X150838646Y-88481795D01*
X150838647Y-88481803D01*
X150839326Y-88488256D01*
X150841331Y-88494428D01*
X150841333Y-88494435D01*
X150895813Y-88662105D01*
X150897821Y-88668284D01*
X150992467Y-88832216D01*
X150996811Y-88837041D01*
X150996813Y-88837043D01*
X151113378Y-88966501D01*
X151119129Y-88972888D01*
X151272270Y-89084151D01*
X151445197Y-89161144D01*
X151630354Y-89200500D01*
X151813143Y-89200500D01*
X151819646Y-89200500D01*
X152004803Y-89161144D01*
X152177730Y-89084151D01*
X152330871Y-88972888D01*
X152457533Y-88832216D01*
X152552179Y-88668284D01*
X152610674Y-88488256D01*
X152630460Y-88300000D01*
X152610674Y-88111744D01*
X152552179Y-87931716D01*
X152457533Y-87767784D01*
X152453044Y-87762799D01*
X152382350Y-87684285D01*
X152358736Y-87645751D01*
X152350500Y-87601313D01*
X152350500Y-86448687D01*
X152358736Y-86404249D01*
X152382350Y-86365715D01*
X152402619Y-86343204D01*
X152457533Y-86282216D01*
X152552179Y-86118284D01*
X152610674Y-85938256D01*
X152630460Y-85750000D01*
X152610674Y-85561744D01*
X152552179Y-85381716D01*
X152457533Y-85217784D01*
X152407343Y-85162043D01*
X152335220Y-85081942D01*
X152335219Y-85081941D01*
X152330871Y-85077112D01*
X152325613Y-85073292D01*
X152325611Y-85073290D01*
X152182988Y-84969669D01*
X152182987Y-84969668D01*
X152177730Y-84965849D01*
X152171792Y-84963205D01*
X152010745Y-84891501D01*
X152010740Y-84891499D01*
X152004803Y-84888856D01*
X151998444Y-84887504D01*
X151998440Y-84887503D01*
X151826008Y-84850852D01*
X151826005Y-84850851D01*
X151819646Y-84849500D01*
X151630354Y-84849500D01*
X151623995Y-84850851D01*
X151623991Y-84850852D01*
X151451559Y-84887503D01*
X151451552Y-84887505D01*
X151445197Y-84888856D01*
X151439262Y-84891498D01*
X151439254Y-84891501D01*
X151278207Y-84963205D01*
X151278202Y-84963207D01*
X151272270Y-84965849D01*
X151267016Y-84969665D01*
X151267011Y-84969669D01*
X151124388Y-85073290D01*
X151124381Y-85073295D01*
X151119129Y-85077112D01*
X151114784Y-85081937D01*
X151114779Y-85081942D01*
X150996813Y-85212956D01*
X150996808Y-85212962D01*
X150992467Y-85217784D01*
X150989222Y-85223404D01*
X150989218Y-85223410D01*
X150901069Y-85376089D01*
X150901066Y-85376094D01*
X150897821Y-85381716D01*
X150895815Y-85387888D01*
X150895813Y-85387894D01*
X150841333Y-85555564D01*
X150841331Y-85555573D01*
X150839326Y-85561744D01*
X150838648Y-85568194D01*
X150838646Y-85568204D01*
X150824645Y-85701424D01*
X150819540Y-85750000D01*
X150820219Y-85756460D01*
X150838646Y-85931795D01*
X150838647Y-85931803D01*
X150839326Y-85938256D01*
X150841331Y-85944428D01*
X150841333Y-85944435D01*
X150857043Y-85992784D01*
X150897821Y-86118284D01*
X150901068Y-86123908D01*
X150901069Y-86123910D01*
X150988967Y-86276155D01*
X150992467Y-86282216D01*
X150996811Y-86287041D01*
X150996813Y-86287043D01*
X151067650Y-86365715D01*
X151091264Y-86404249D01*
X151099500Y-86448687D01*
X151099500Y-87601313D01*
X151091264Y-87645751D01*
X151067650Y-87684285D01*
X150996813Y-87762956D01*
X150996808Y-87762962D01*
X150992467Y-87767784D01*
X150989222Y-87773404D01*
X150989218Y-87773410D01*
X150901069Y-87926089D01*
X150901066Y-87926094D01*
X150897821Y-87931716D01*
X150895815Y-87937888D01*
X150895813Y-87937894D01*
X150841333Y-88105564D01*
X150841331Y-88105573D01*
X150839326Y-88111744D01*
X150838648Y-88118194D01*
X150838646Y-88118204D01*
X150832487Y-88176810D01*
X150819540Y-88300000D01*
X121125500Y-88300000D01*
X121125500Y-86318935D01*
X131245669Y-86318935D01*
X131276135Y-86491711D01*
X131345623Y-86652804D01*
X131450390Y-86793530D01*
X131584786Y-86906302D01*
X131741567Y-86985040D01*
X131912279Y-87025500D01*
X132040111Y-87025500D01*
X132043709Y-87025500D01*
X132174255Y-87010241D01*
X132339117Y-86950237D01*
X132485696Y-86853830D01*
X132606092Y-86726218D01*
X132693812Y-86574281D01*
X132744130Y-86406210D01*
X132754331Y-86231065D01*
X132723865Y-86058289D01*
X132654377Y-85897196D01*
X132549610Y-85756470D01*
X132477747Y-85696170D01*
X132420745Y-85648339D01*
X132420744Y-85648338D01*
X132415214Y-85643698D01*
X132322810Y-85597291D01*
X132264883Y-85568199D01*
X132264880Y-85568198D01*
X132258433Y-85564960D01*
X132251407Y-85563294D01*
X132251405Y-85563294D01*
X132094749Y-85526165D01*
X132094743Y-85526164D01*
X132087721Y-85524500D01*
X131956291Y-85524500D01*
X131952725Y-85524916D01*
X131952721Y-85524917D01*
X131832915Y-85538920D01*
X131832907Y-85538921D01*
X131825745Y-85539759D01*
X131818967Y-85542225D01*
X131818958Y-85542228D01*
X131667674Y-85597291D01*
X131667671Y-85597292D01*
X131660883Y-85599763D01*
X131654850Y-85603730D01*
X131654842Y-85603735D01*
X131520340Y-85692199D01*
X131520334Y-85692203D01*
X131514304Y-85696170D01*
X131509351Y-85701419D01*
X131509346Y-85701424D01*
X131398865Y-85818527D01*
X131398861Y-85818531D01*
X131393908Y-85823782D01*
X131390299Y-85830032D01*
X131390296Y-85830037D01*
X131309799Y-85969463D01*
X131309796Y-85969468D01*
X131306188Y-85975719D01*
X131304117Y-85982634D01*
X131304117Y-85982636D01*
X131257941Y-86136869D01*
X131257939Y-86136877D01*
X131255870Y-86143790D01*
X131255450Y-86150996D01*
X131255449Y-86151004D01*
X131246088Y-86311725D01*
X131246088Y-86311733D01*
X131245669Y-86318935D01*
X121125500Y-86318935D01*
X121125500Y-67200000D01*
X124194754Y-67200000D01*
X124213720Y-67501457D01*
X124214447Y-67505269D01*
X124214449Y-67505283D01*
X124251596Y-67700011D01*
X124270319Y-67798160D01*
X124363659Y-68085430D01*
X124492267Y-68358736D01*
X124494349Y-68362017D01*
X124494352Y-68362022D01*
X124652024Y-68610474D01*
X124652028Y-68610480D01*
X124654115Y-68613768D01*
X124846651Y-68846504D01*
X125066838Y-69053274D01*
X125311205Y-69230816D01*
X125575896Y-69376332D01*
X125856738Y-69487525D01*
X126149302Y-69562642D01*
X126448973Y-69600500D01*
X126747133Y-69600500D01*
X126751027Y-69600500D01*
X127050698Y-69562642D01*
X127343262Y-69487525D01*
X127624104Y-69376332D01*
X127888795Y-69230816D01*
X128133162Y-69053274D01*
X128353349Y-68846504D01*
X128545885Y-68613768D01*
X128707733Y-68358736D01*
X128836341Y-68085430D01*
X128929681Y-67798160D01*
X128986280Y-67501457D01*
X129005246Y-67200000D01*
X128986280Y-66898543D01*
X128929681Y-66601840D01*
X128836341Y-66314570D01*
X128707733Y-66041264D01*
X128545885Y-65786232D01*
X128353349Y-65553496D01*
X128133162Y-65346726D01*
X128074208Y-65303894D01*
X127891944Y-65171472D01*
X127891945Y-65171472D01*
X127888795Y-65169184D01*
X127885391Y-65167313D01*
X127885387Y-65167310D01*
X127627521Y-65025546D01*
X127627514Y-65025542D01*
X127624104Y-65023668D01*
X127620478Y-65022232D01*
X127620473Y-65022230D01*
X127346890Y-64913911D01*
X127346884Y-64913909D01*
X127343262Y-64912475D01*
X127339484Y-64911505D01*
X127339481Y-64911504D01*
X127054476Y-64838328D01*
X127054475Y-64838327D01*
X127050698Y-64837358D01*
X127046835Y-64836870D01*
X127046830Y-64836869D01*
X126754891Y-64799988D01*
X126754888Y-64799987D01*
X126751027Y-64799500D01*
X126448973Y-64799500D01*
X126445112Y-64799987D01*
X126445108Y-64799988D01*
X126153169Y-64836869D01*
X126153161Y-64836870D01*
X126149302Y-64837358D01*
X126145527Y-64838327D01*
X126145523Y-64838328D01*
X125860518Y-64911504D01*
X125860511Y-64911506D01*
X125856738Y-64912475D01*
X125853120Y-64913907D01*
X125853109Y-64913911D01*
X125579526Y-65022230D01*
X125579515Y-65022234D01*
X125575896Y-65023668D01*
X125572491Y-65025539D01*
X125572478Y-65025546D01*
X125314612Y-65167310D01*
X125314600Y-65167317D01*
X125311205Y-65169184D01*
X125308061Y-65171467D01*
X125308055Y-65171472D01*
X125069994Y-65344432D01*
X125069983Y-65344440D01*
X125066838Y-65346726D01*
X125064003Y-65349387D01*
X125063996Y-65349394D01*
X124849488Y-65550831D01*
X124849481Y-65550838D01*
X124846651Y-65553496D01*
X124844176Y-65556487D01*
X124844172Y-65556492D01*
X124656598Y-65783229D01*
X124656588Y-65783241D01*
X124654115Y-65786232D01*
X124652033Y-65789511D01*
X124652024Y-65789525D01*
X124494352Y-66037977D01*
X124494345Y-66037988D01*
X124492267Y-66041264D01*
X124490614Y-66044774D01*
X124490611Y-66044782D01*
X124365315Y-66311050D01*
X124363659Y-66314570D01*
X124362457Y-66318267D01*
X124362455Y-66318274D01*
X124271524Y-66598130D01*
X124270319Y-66601840D01*
X124269590Y-66605660D01*
X124269588Y-66605669D01*
X124214449Y-66894716D01*
X124214446Y-66894732D01*
X124213720Y-66898543D01*
X124213475Y-66902434D01*
X124213475Y-66902436D01*
X124210535Y-66949168D01*
X124194754Y-67200000D01*
X121125500Y-67200000D01*
X121125500Y-57347078D01*
X145849500Y-57347078D01*
X145849501Y-57350372D01*
X145849853Y-57353650D01*
X145849854Y-57353661D01*
X145855079Y-57402268D01*
X145855080Y-57402273D01*
X145855909Y-57409983D01*
X145858619Y-57417249D01*
X145858620Y-57417253D01*
X145892217Y-57507331D01*
X145906204Y-57544831D01*
X145911518Y-57551930D01*
X145911519Y-57551931D01*
X145977149Y-57639602D01*
X145992454Y-57660046D01*
X146107669Y-57746296D01*
X146242517Y-57796591D01*
X146302127Y-57803000D01*
X147897872Y-57802999D01*
X147957483Y-57796591D01*
X148092331Y-57746296D01*
X148207546Y-57660046D01*
X148293796Y-57544831D01*
X148344091Y-57409983D01*
X148350500Y-57350373D01*
X148350499Y-57284361D01*
X148366045Y-57224248D01*
X148408788Y-57179206D01*
X148468008Y-57160533D01*
X148528856Y-57172912D01*
X148576074Y-57213239D01*
X148675296Y-57354942D01*
X148675299Y-57354946D01*
X148678402Y-57359377D01*
X148833123Y-57514098D01*
X149012361Y-57639602D01*
X149017261Y-57641887D01*
X149017263Y-57641888D01*
X149040983Y-57652949D01*
X149210670Y-57732075D01*
X149368522Y-57774371D01*
X149416790Y-57787305D01*
X149416791Y-57787305D01*
X149422023Y-57788707D01*
X149640000Y-57807777D01*
X149857977Y-57788707D01*
X150069330Y-57732075D01*
X150267639Y-57639602D01*
X150446877Y-57514098D01*
X150601598Y-57359377D01*
X150727102Y-57180139D01*
X150797617Y-57028917D01*
X150843375Y-56976741D01*
X150910000Y-56957321D01*
X150976625Y-56976741D01*
X151022382Y-57028917D01*
X151090609Y-57175232D01*
X151090613Y-57175239D01*
X151092898Y-57180139D01*
X151095997Y-57184566D01*
X151095999Y-57184568D01*
X151215296Y-57354942D01*
X151215299Y-57354946D01*
X151218402Y-57359377D01*
X151373123Y-57514098D01*
X151552361Y-57639602D01*
X151557261Y-57641887D01*
X151557263Y-57641888D01*
X151580983Y-57652949D01*
X151750670Y-57732075D01*
X151908522Y-57774371D01*
X151956790Y-57787305D01*
X151956791Y-57787305D01*
X151962023Y-57788707D01*
X152180000Y-57807777D01*
X152397977Y-57788707D01*
X152609330Y-57732075D01*
X152807639Y-57639602D01*
X152986877Y-57514098D01*
X153141598Y-57359377D01*
X153267102Y-57180139D01*
X153337617Y-57028917D01*
X153383375Y-56976741D01*
X153450000Y-56957321D01*
X153516625Y-56976741D01*
X153562382Y-57028917D01*
X153630609Y-57175232D01*
X153630613Y-57175239D01*
X153632898Y-57180139D01*
X153635997Y-57184566D01*
X153635999Y-57184568D01*
X153755296Y-57354942D01*
X153755299Y-57354946D01*
X153758402Y-57359377D01*
X153913123Y-57514098D01*
X154092361Y-57639602D01*
X154097261Y-57641887D01*
X154097263Y-57641888D01*
X154120983Y-57652949D01*
X154290670Y-57732075D01*
X154448522Y-57774371D01*
X154496790Y-57787305D01*
X154496791Y-57787305D01*
X154502023Y-57788707D01*
X154720000Y-57807777D01*
X154937977Y-57788707D01*
X155149330Y-57732075D01*
X155347639Y-57639602D01*
X155526877Y-57514098D01*
X155681598Y-57359377D01*
X155807102Y-57180139D01*
X155877617Y-57028917D01*
X155923375Y-56976741D01*
X155990000Y-56957321D01*
X156056625Y-56976741D01*
X156102382Y-57028917D01*
X156170609Y-57175232D01*
X156170613Y-57175239D01*
X156172898Y-57180139D01*
X156175997Y-57184566D01*
X156175999Y-57184568D01*
X156295296Y-57354942D01*
X156295299Y-57354946D01*
X156298402Y-57359377D01*
X156453123Y-57514098D01*
X156632361Y-57639602D01*
X156637261Y-57641887D01*
X156637263Y-57641888D01*
X156660983Y-57652949D01*
X156830670Y-57732075D01*
X156988522Y-57774371D01*
X157036790Y-57787305D01*
X157036791Y-57787305D01*
X157042023Y-57788707D01*
X157260000Y-57807777D01*
X157477977Y-57788707D01*
X157689330Y-57732075D01*
X157887639Y-57639602D01*
X158066877Y-57514098D01*
X158221598Y-57359377D01*
X158347102Y-57180139D01*
X158417617Y-57028917D01*
X158463375Y-56976741D01*
X158530000Y-56957321D01*
X158596625Y-56976741D01*
X158642382Y-57028917D01*
X158710609Y-57175232D01*
X158710613Y-57175239D01*
X158712898Y-57180139D01*
X158715997Y-57184566D01*
X158715999Y-57184568D01*
X158835296Y-57354942D01*
X158835299Y-57354946D01*
X158838402Y-57359377D01*
X158993123Y-57514098D01*
X159172361Y-57639602D01*
X159177261Y-57641887D01*
X159177263Y-57641888D01*
X159200983Y-57652949D01*
X159370670Y-57732075D01*
X159528522Y-57774371D01*
X159576790Y-57787305D01*
X159576791Y-57787305D01*
X159582023Y-57788707D01*
X159800000Y-57807777D01*
X160017977Y-57788707D01*
X160229330Y-57732075D01*
X160427639Y-57639602D01*
X160606877Y-57514098D01*
X160761598Y-57359377D01*
X160887102Y-57180139D01*
X160979575Y-56981830D01*
X161036207Y-56770477D01*
X161055277Y-56552500D01*
X161036207Y-56334523D01*
X160979575Y-56123170D01*
X160887102Y-55924862D01*
X160761598Y-55745623D01*
X160606877Y-55590902D01*
X160602446Y-55587799D01*
X160602442Y-55587796D01*
X160432068Y-55468499D01*
X160432066Y-55468497D01*
X160427639Y-55465398D01*
X160422742Y-55463114D01*
X160422736Y-55463111D01*
X160234236Y-55375212D01*
X160234229Y-55375209D01*
X160229330Y-55372925D01*
X160224103Y-55371524D01*
X160224102Y-55371524D01*
X160023209Y-55317694D01*
X160023199Y-55317692D01*
X160017977Y-55316293D01*
X160012585Y-55315821D01*
X160012578Y-55315820D01*
X159805395Y-55297695D01*
X159800000Y-55297223D01*
X159794605Y-55297695D01*
X159587421Y-55315820D01*
X159587412Y-55315821D01*
X159582023Y-55316293D01*
X159576802Y-55317691D01*
X159576790Y-55317694D01*
X159375897Y-55371524D01*
X159375892Y-55371525D01*
X159370670Y-55372925D01*
X159365774Y-55375207D01*
X159365763Y-55375212D01*
X159177272Y-55463108D01*
X159177268Y-55463110D01*
X159172362Y-55465398D01*
X159167929Y-55468501D01*
X159167922Y-55468506D01*
X158997558Y-55587796D01*
X158997553Y-55587799D01*
X158993123Y-55590902D01*
X158989299Y-55594725D01*
X158989293Y-55594731D01*
X158842231Y-55741793D01*
X158842225Y-55741799D01*
X158838402Y-55745623D01*
X158835299Y-55750053D01*
X158835296Y-55750058D01*
X158716006Y-55920422D01*
X158716001Y-55920429D01*
X158712898Y-55924862D01*
X158710610Y-55929768D01*
X158710608Y-55929772D01*
X158642382Y-56076083D01*
X158596625Y-56128259D01*
X158530000Y-56147678D01*
X158463375Y-56128259D01*
X158417618Y-56076083D01*
X158350472Y-55932090D01*
X158347102Y-55924862D01*
X158221598Y-55745623D01*
X158066877Y-55590902D01*
X158062446Y-55587799D01*
X158062442Y-55587796D01*
X157892068Y-55468499D01*
X157892066Y-55468497D01*
X157887639Y-55465398D01*
X157882742Y-55463114D01*
X157882736Y-55463111D01*
X157694236Y-55375212D01*
X157694229Y-55375209D01*
X157689330Y-55372925D01*
X157684103Y-55371524D01*
X157684102Y-55371524D01*
X157483209Y-55317694D01*
X157483199Y-55317692D01*
X157477977Y-55316293D01*
X157472585Y-55315821D01*
X157472578Y-55315820D01*
X157265395Y-55297695D01*
X157260000Y-55297223D01*
X157254605Y-55297695D01*
X157047421Y-55315820D01*
X157047412Y-55315821D01*
X157042023Y-55316293D01*
X157036802Y-55317691D01*
X157036790Y-55317694D01*
X156835897Y-55371524D01*
X156835892Y-55371525D01*
X156830670Y-55372925D01*
X156825774Y-55375207D01*
X156825763Y-55375212D01*
X156637272Y-55463108D01*
X156637268Y-55463110D01*
X156632362Y-55465398D01*
X156627929Y-55468501D01*
X156627922Y-55468506D01*
X156457558Y-55587796D01*
X156457553Y-55587799D01*
X156453123Y-55590902D01*
X156449299Y-55594725D01*
X156449293Y-55594731D01*
X156302231Y-55741793D01*
X156302225Y-55741799D01*
X156298402Y-55745623D01*
X156295299Y-55750053D01*
X156295296Y-55750058D01*
X156176006Y-55920422D01*
X156176001Y-55920429D01*
X156172898Y-55924862D01*
X156170610Y-55929768D01*
X156170608Y-55929772D01*
X156102382Y-56076083D01*
X156056625Y-56128259D01*
X155990000Y-56147678D01*
X155923375Y-56128259D01*
X155877618Y-56076083D01*
X155810472Y-55932090D01*
X155807102Y-55924862D01*
X155681598Y-55745623D01*
X155526877Y-55590902D01*
X155522446Y-55587799D01*
X155522442Y-55587796D01*
X155352068Y-55468499D01*
X155352066Y-55468497D01*
X155347639Y-55465398D01*
X155342742Y-55463114D01*
X155342736Y-55463111D01*
X155154236Y-55375212D01*
X155154229Y-55375209D01*
X155149330Y-55372925D01*
X155144103Y-55371524D01*
X155144102Y-55371524D01*
X154943209Y-55317694D01*
X154943199Y-55317692D01*
X154937977Y-55316293D01*
X154932585Y-55315821D01*
X154932578Y-55315820D01*
X154725395Y-55297695D01*
X154720000Y-55297223D01*
X154714605Y-55297695D01*
X154507421Y-55315820D01*
X154507412Y-55315821D01*
X154502023Y-55316293D01*
X154496802Y-55317691D01*
X154496790Y-55317694D01*
X154295897Y-55371524D01*
X154295892Y-55371525D01*
X154290670Y-55372925D01*
X154285774Y-55375207D01*
X154285763Y-55375212D01*
X154097272Y-55463108D01*
X154097268Y-55463110D01*
X154092362Y-55465398D01*
X154087929Y-55468501D01*
X154087922Y-55468506D01*
X153917558Y-55587796D01*
X153917553Y-55587799D01*
X153913123Y-55590902D01*
X153909299Y-55594725D01*
X153909293Y-55594731D01*
X153762231Y-55741793D01*
X153762225Y-55741799D01*
X153758402Y-55745623D01*
X153755299Y-55750053D01*
X153755296Y-55750058D01*
X153636006Y-55920422D01*
X153636001Y-55920429D01*
X153632898Y-55924862D01*
X153630610Y-55929768D01*
X153630608Y-55929772D01*
X153562382Y-56076083D01*
X153516625Y-56128259D01*
X153450000Y-56147678D01*
X153383375Y-56128259D01*
X153337618Y-56076083D01*
X153270472Y-55932090D01*
X153267102Y-55924862D01*
X153141598Y-55745623D01*
X152986877Y-55590902D01*
X152982446Y-55587799D01*
X152982442Y-55587796D01*
X152812068Y-55468499D01*
X152812066Y-55468497D01*
X152807639Y-55465398D01*
X152802742Y-55463114D01*
X152802736Y-55463111D01*
X152614236Y-55375212D01*
X152614229Y-55375209D01*
X152609330Y-55372925D01*
X152604103Y-55371524D01*
X152604102Y-55371524D01*
X152403209Y-55317694D01*
X152403199Y-55317692D01*
X152397977Y-55316293D01*
X152392585Y-55315821D01*
X152392578Y-55315820D01*
X152185395Y-55297695D01*
X152180000Y-55297223D01*
X152174605Y-55297695D01*
X151967421Y-55315820D01*
X151967412Y-55315821D01*
X151962023Y-55316293D01*
X151956802Y-55317691D01*
X151956790Y-55317694D01*
X151755897Y-55371524D01*
X151755892Y-55371525D01*
X151750670Y-55372925D01*
X151745774Y-55375207D01*
X151745763Y-55375212D01*
X151557272Y-55463108D01*
X151557268Y-55463110D01*
X151552362Y-55465398D01*
X151547929Y-55468501D01*
X151547922Y-55468506D01*
X151377558Y-55587796D01*
X151377553Y-55587799D01*
X151373123Y-55590902D01*
X151369299Y-55594725D01*
X151369293Y-55594731D01*
X151222231Y-55741793D01*
X151222225Y-55741799D01*
X151218402Y-55745623D01*
X151215299Y-55750053D01*
X151215296Y-55750058D01*
X151096006Y-55920422D01*
X151096001Y-55920429D01*
X151092898Y-55924862D01*
X151090610Y-55929768D01*
X151090608Y-55929772D01*
X151022382Y-56076083D01*
X150976625Y-56128259D01*
X150910000Y-56147678D01*
X150843375Y-56128259D01*
X150797618Y-56076083D01*
X150730472Y-55932090D01*
X150727102Y-55924862D01*
X150601598Y-55745623D01*
X150446877Y-55590902D01*
X150442446Y-55587799D01*
X150442442Y-55587796D01*
X150272068Y-55468499D01*
X150272066Y-55468497D01*
X150267639Y-55465398D01*
X150262742Y-55463114D01*
X150262736Y-55463111D01*
X150074236Y-55375212D01*
X150074229Y-55375209D01*
X150069330Y-55372925D01*
X150064103Y-55371524D01*
X150064102Y-55371524D01*
X149863209Y-55317694D01*
X149863199Y-55317692D01*
X149857977Y-55316293D01*
X149852585Y-55315821D01*
X149852578Y-55315820D01*
X149645395Y-55297695D01*
X149640000Y-55297223D01*
X149634605Y-55297695D01*
X149427421Y-55315820D01*
X149427412Y-55315821D01*
X149422023Y-55316293D01*
X149416802Y-55317691D01*
X149416790Y-55317694D01*
X149215897Y-55371524D01*
X149215892Y-55371525D01*
X149210670Y-55372925D01*
X149205774Y-55375207D01*
X149205763Y-55375212D01*
X149017272Y-55463108D01*
X149017268Y-55463110D01*
X149012362Y-55465398D01*
X149007929Y-55468501D01*
X149007922Y-55468506D01*
X148837558Y-55587796D01*
X148837553Y-55587799D01*
X148833123Y-55590902D01*
X148829299Y-55594725D01*
X148829293Y-55594731D01*
X148682231Y-55741793D01*
X148682225Y-55741799D01*
X148678402Y-55745623D01*
X148675299Y-55750053D01*
X148675296Y-55750058D01*
X148576074Y-55891763D01*
X148528857Y-55932090D01*
X148468009Y-55944470D01*
X148408789Y-55925798D01*
X148366046Y-55880756D01*
X148350499Y-55820640D01*
X148350499Y-55757939D01*
X148350499Y-55754628D01*
X148344091Y-55695017D01*
X148293796Y-55560169D01*
X148207546Y-55444954D01*
X148092331Y-55358704D01*
X148021965Y-55332459D01*
X147964752Y-55311120D01*
X147964750Y-55311119D01*
X147957483Y-55308409D01*
X147949770Y-55307579D01*
X147949767Y-55307579D01*
X147901180Y-55302355D01*
X147901169Y-55302354D01*
X147897873Y-55302000D01*
X147894550Y-55302000D01*
X146305439Y-55302000D01*
X146305420Y-55302000D01*
X146302128Y-55302001D01*
X146298850Y-55302353D01*
X146298838Y-55302354D01*
X146250231Y-55307579D01*
X146250225Y-55307580D01*
X146242517Y-55308409D01*
X146235252Y-55311118D01*
X146235246Y-55311120D01*
X146115980Y-55355604D01*
X146115978Y-55355604D01*
X146107669Y-55358704D01*
X146100572Y-55364016D01*
X146100568Y-55364019D01*
X145999550Y-55439641D01*
X145999546Y-55439644D01*
X145992454Y-55444954D01*
X145987144Y-55452046D01*
X145987141Y-55452050D01*
X145911519Y-55553068D01*
X145911516Y-55553072D01*
X145906204Y-55560169D01*
X145903104Y-55568478D01*
X145903104Y-55568480D01*
X145858620Y-55687747D01*
X145858619Y-55687750D01*
X145855909Y-55695017D01*
X145855079Y-55702727D01*
X145855079Y-55702732D01*
X145849855Y-55751319D01*
X145849854Y-55751331D01*
X145849500Y-55754627D01*
X145849500Y-55757948D01*
X145849500Y-55757949D01*
X145849500Y-57347060D01*
X145849500Y-57347078D01*
X121125500Y-57347078D01*
X121125500Y-49875000D01*
X155819540Y-49875000D01*
X155820219Y-49881460D01*
X155838646Y-50056795D01*
X155838647Y-50056803D01*
X155839326Y-50063256D01*
X155841331Y-50069428D01*
X155841333Y-50069435D01*
X155895813Y-50237105D01*
X155897821Y-50243284D01*
X155992467Y-50407216D01*
X156119129Y-50547888D01*
X156272270Y-50659151D01*
X156445197Y-50736144D01*
X156630354Y-50775500D01*
X156813143Y-50775500D01*
X156819646Y-50775500D01*
X157004803Y-50736144D01*
X157177730Y-50659151D01*
X157330871Y-50547888D01*
X157457533Y-50407216D01*
X157552179Y-50243284D01*
X157610674Y-50063256D01*
X157628321Y-49895345D01*
X157639721Y-49854926D01*
X157663958Y-49820631D01*
X160212311Y-47272278D01*
X160220481Y-47264844D01*
X160226877Y-47260786D01*
X160272918Y-47211756D01*
X160275535Y-47209054D01*
X160295120Y-47189471D01*
X160297585Y-47186292D01*
X160305167Y-47177416D01*
X160335062Y-47145582D01*
X160344713Y-47128023D01*
X160355390Y-47111770D01*
X160367673Y-47095936D01*
X160385026Y-47055832D01*
X160390158Y-47045361D01*
X160407435Y-47013935D01*
X160407435Y-47013934D01*
X160411197Y-47007092D01*
X160416177Y-46987691D01*
X160422481Y-46969281D01*
X160430438Y-46950896D01*
X160437272Y-46907741D01*
X160439638Y-46896321D01*
X160448560Y-46861574D01*
X160450500Y-46854019D01*
X160450500Y-46833983D01*
X160452025Y-46814597D01*
X160455160Y-46794804D01*
X160451050Y-46751324D01*
X160450500Y-46739655D01*
X160450500Y-45598687D01*
X160458736Y-45554249D01*
X160482350Y-45515715D01*
X160557533Y-45432216D01*
X160652179Y-45268284D01*
X160710674Y-45088256D01*
X160730460Y-44900000D01*
X160710674Y-44711744D01*
X160652179Y-44531716D01*
X160557533Y-44367784D01*
X160541970Y-44350500D01*
X160435220Y-44231942D01*
X160435219Y-44231941D01*
X160430871Y-44227112D01*
X160425613Y-44223292D01*
X160425611Y-44223290D01*
X160282988Y-44119669D01*
X160282987Y-44119668D01*
X160277730Y-44115849D01*
X160271792Y-44113205D01*
X160110745Y-44041501D01*
X160110740Y-44041499D01*
X160104803Y-44038856D01*
X160098444Y-44037504D01*
X160098440Y-44037503D01*
X159926008Y-44000852D01*
X159926005Y-44000851D01*
X159919646Y-43999500D01*
X159730354Y-43999500D01*
X159723995Y-44000851D01*
X159723991Y-44000852D01*
X159551559Y-44037503D01*
X159551552Y-44037505D01*
X159545197Y-44038856D01*
X159539262Y-44041498D01*
X159539254Y-44041501D01*
X159378207Y-44113205D01*
X159378202Y-44113207D01*
X159372270Y-44115849D01*
X159367016Y-44119665D01*
X159367011Y-44119669D01*
X159224388Y-44223290D01*
X159224381Y-44223295D01*
X159219129Y-44227112D01*
X159214784Y-44231937D01*
X159214779Y-44231942D01*
X159096813Y-44362956D01*
X159096808Y-44362962D01*
X159092467Y-44367784D01*
X159089222Y-44373404D01*
X159089218Y-44373410D01*
X159001069Y-44526089D01*
X159001066Y-44526094D01*
X158997821Y-44531716D01*
X158995815Y-44537888D01*
X158995813Y-44537894D01*
X158941333Y-44705564D01*
X158941331Y-44705573D01*
X158939326Y-44711744D01*
X158938648Y-44718194D01*
X158938646Y-44718204D01*
X158920962Y-44886464D01*
X158919540Y-44900000D01*
X158920219Y-44906460D01*
X158938646Y-45081795D01*
X158938647Y-45081803D01*
X158939326Y-45088256D01*
X158941331Y-45094428D01*
X158941333Y-45094435D01*
X158995813Y-45262105D01*
X158997821Y-45268284D01*
X159092467Y-45432216D01*
X159096811Y-45437041D01*
X159096813Y-45437043D01*
X159167650Y-45515715D01*
X159191264Y-45554249D01*
X159199500Y-45598687D01*
X159199500Y-46464548D01*
X159190061Y-46512001D01*
X159163181Y-46552229D01*
X156777228Y-48938181D01*
X156737000Y-48965061D01*
X156689547Y-48974500D01*
X156630354Y-48974500D01*
X156623995Y-48975851D01*
X156623991Y-48975852D01*
X156451559Y-49012503D01*
X156451552Y-49012505D01*
X156445197Y-49013856D01*
X156439262Y-49016498D01*
X156439254Y-49016501D01*
X156278207Y-49088205D01*
X156278202Y-49088207D01*
X156272270Y-49090849D01*
X156267016Y-49094665D01*
X156267011Y-49094669D01*
X156124388Y-49198290D01*
X156124381Y-49198295D01*
X156119129Y-49202112D01*
X156114784Y-49206937D01*
X156114779Y-49206942D01*
X155996813Y-49337956D01*
X155996808Y-49337962D01*
X155992467Y-49342784D01*
X155989222Y-49348404D01*
X155989218Y-49348410D01*
X155901069Y-49501089D01*
X155901066Y-49501094D01*
X155897821Y-49506716D01*
X155895815Y-49512888D01*
X155895813Y-49512894D01*
X155841333Y-49680564D01*
X155841331Y-49680573D01*
X155839326Y-49686744D01*
X155838648Y-49693194D01*
X155838646Y-49693204D01*
X155821650Y-49854926D01*
X155819540Y-49875000D01*
X121125500Y-49875000D01*
X121125500Y-40950000D01*
X142544540Y-40950000D01*
X142545219Y-40956460D01*
X142563646Y-41131795D01*
X142563647Y-41131803D01*
X142564326Y-41138256D01*
X142566331Y-41144428D01*
X142566333Y-41144435D01*
X142620813Y-41312105D01*
X142622821Y-41318284D01*
X142717467Y-41482216D01*
X142721811Y-41487041D01*
X142721813Y-41487043D01*
X142765632Y-41535709D01*
X142844129Y-41622888D01*
X142861333Y-41635387D01*
X142895856Y-41674545D01*
X142897514Y-41678732D01*
X142919440Y-41708912D01*
X142923181Y-41714060D01*
X142929593Y-41723822D01*
X142947856Y-41754702D01*
X142947859Y-41754707D01*
X142951830Y-41761420D01*
X142957344Y-41766934D01*
X142957345Y-41766935D01*
X142965990Y-41775580D01*
X142978626Y-41790374D01*
X142985819Y-41800275D01*
X142985823Y-41800279D01*
X142990406Y-41806587D01*
X142996415Y-41811558D01*
X142996416Y-41811559D01*
X143024058Y-41834426D01*
X143032699Y-41842289D01*
X144586038Y-43395629D01*
X144610278Y-43429927D01*
X144621678Y-43470348D01*
X144637091Y-43616998D01*
X144639326Y-43638256D01*
X144641331Y-43644428D01*
X144641333Y-43644435D01*
X144695813Y-43812105D01*
X144697821Y-43818284D01*
X144792467Y-43982216D01*
X144796811Y-43987041D01*
X144796813Y-43987043D01*
X144910410Y-44113205D01*
X144919129Y-44122888D01*
X145072270Y-44234151D01*
X145245197Y-44311144D01*
X145430354Y-44350500D01*
X145613143Y-44350500D01*
X145619646Y-44350500D01*
X145804803Y-44311144D01*
X145977730Y-44234151D01*
X146130871Y-44122888D01*
X146257533Y-43982216D01*
X146352179Y-43818284D01*
X146410674Y-43638256D01*
X146430460Y-43450000D01*
X146410674Y-43261744D01*
X146352179Y-43081716D01*
X146257533Y-42917784D01*
X146130871Y-42777112D01*
X146125613Y-42773292D01*
X146125611Y-42773290D01*
X145982988Y-42669669D01*
X145982987Y-42669668D01*
X145977730Y-42665849D01*
X145971792Y-42663205D01*
X145810745Y-42591501D01*
X145810740Y-42591499D01*
X145804803Y-42588856D01*
X145798444Y-42587504D01*
X145798440Y-42587503D01*
X145626008Y-42550852D01*
X145626005Y-42550851D01*
X145619646Y-42549500D01*
X145613143Y-42549500D01*
X145560453Y-42549500D01*
X145513000Y-42540061D01*
X145472772Y-42513181D01*
X144331080Y-41371489D01*
X144298187Y-41312754D01*
X144298197Y-41312500D01*
X145844723Y-41312500D01*
X145845195Y-41317895D01*
X145863320Y-41525078D01*
X145863321Y-41525085D01*
X145863793Y-41530477D01*
X145865192Y-41535699D01*
X145865194Y-41535709D01*
X145912984Y-41714060D01*
X145920425Y-41741830D01*
X145922709Y-41746729D01*
X145922712Y-41746736D01*
X146010611Y-41935236D01*
X146010614Y-41935242D01*
X146012898Y-41940139D01*
X146015997Y-41944566D01*
X146015999Y-41944568D01*
X146135296Y-42114942D01*
X146135299Y-42114946D01*
X146138402Y-42119377D01*
X146293123Y-42274098D01*
X146472361Y-42399602D01*
X146670670Y-42492075D01*
X146828522Y-42534371D01*
X146876790Y-42547305D01*
X146876791Y-42547305D01*
X146882023Y-42548707D01*
X147100000Y-42567777D01*
X147317977Y-42548707D01*
X147529330Y-42492075D01*
X147727639Y-42399602D01*
X147906877Y-42274098D01*
X148061598Y-42119377D01*
X148187102Y-41940139D01*
X148257617Y-41788917D01*
X148303375Y-41736741D01*
X148370000Y-41717321D01*
X148436625Y-41736741D01*
X148482382Y-41788917D01*
X148550609Y-41935232D01*
X148550613Y-41935239D01*
X148552898Y-41940139D01*
X148555997Y-41944566D01*
X148555999Y-41944568D01*
X148675296Y-42114942D01*
X148675299Y-42114946D01*
X148678402Y-42119377D01*
X148833123Y-42274098D01*
X149012361Y-42399602D01*
X149210670Y-42492075D01*
X149368522Y-42534371D01*
X149416790Y-42547305D01*
X149416791Y-42547305D01*
X149422023Y-42548707D01*
X149640000Y-42567777D01*
X149857977Y-42548707D01*
X150069330Y-42492075D01*
X150267639Y-42399602D01*
X150446877Y-42274098D01*
X150601598Y-42119377D01*
X150727102Y-41940139D01*
X150797617Y-41788917D01*
X150843375Y-41736741D01*
X150910000Y-41717321D01*
X150976625Y-41736741D01*
X151022382Y-41788917D01*
X151090609Y-41935232D01*
X151090613Y-41935239D01*
X151092898Y-41940139D01*
X151095997Y-41944566D01*
X151095999Y-41944568D01*
X151215296Y-42114942D01*
X151215299Y-42114946D01*
X151218402Y-42119377D01*
X151373123Y-42274098D01*
X151552361Y-42399602D01*
X151750670Y-42492075D01*
X151908522Y-42534371D01*
X151956790Y-42547305D01*
X151956791Y-42547305D01*
X151962023Y-42548707D01*
X152180000Y-42567777D01*
X152397977Y-42548707D01*
X152609330Y-42492075D01*
X152807639Y-42399602D01*
X152986877Y-42274098D01*
X153141598Y-42119377D01*
X153267102Y-41940139D01*
X153337617Y-41788917D01*
X153383375Y-41736741D01*
X153450000Y-41717321D01*
X153516625Y-41736741D01*
X153562382Y-41788917D01*
X153630609Y-41935232D01*
X153630613Y-41935239D01*
X153632898Y-41940139D01*
X153635997Y-41944566D01*
X153635999Y-41944568D01*
X153755296Y-42114942D01*
X153755299Y-42114946D01*
X153758402Y-42119377D01*
X153913123Y-42274098D01*
X154092361Y-42399602D01*
X154290670Y-42492075D01*
X154448522Y-42534371D01*
X154496790Y-42547305D01*
X154496791Y-42547305D01*
X154502023Y-42548707D01*
X154720000Y-42567777D01*
X154937977Y-42548707D01*
X155149330Y-42492075D01*
X155347639Y-42399602D01*
X155526877Y-42274098D01*
X155681598Y-42119377D01*
X155807102Y-41940139D01*
X155877617Y-41788917D01*
X155923375Y-41736741D01*
X155990000Y-41717321D01*
X156056625Y-41736741D01*
X156102382Y-41788917D01*
X156170609Y-41935232D01*
X156170613Y-41935239D01*
X156172898Y-41940139D01*
X156175997Y-41944566D01*
X156175999Y-41944568D01*
X156295296Y-42114942D01*
X156295299Y-42114946D01*
X156298402Y-42119377D01*
X156453123Y-42274098D01*
X156632361Y-42399602D01*
X156830670Y-42492075D01*
X156988522Y-42534371D01*
X157036790Y-42547305D01*
X157036791Y-42547305D01*
X157042023Y-42548707D01*
X157260000Y-42567777D01*
X157477977Y-42548707D01*
X157689330Y-42492075D01*
X157887639Y-42399602D01*
X158066877Y-42274098D01*
X158221598Y-42119377D01*
X158347102Y-41940139D01*
X158417617Y-41788917D01*
X158463375Y-41736741D01*
X158530000Y-41717321D01*
X158596625Y-41736741D01*
X158642382Y-41788917D01*
X158710609Y-41935232D01*
X158710613Y-41935239D01*
X158712898Y-41940139D01*
X158715997Y-41944566D01*
X158715999Y-41944568D01*
X158835296Y-42114942D01*
X158835299Y-42114946D01*
X158838402Y-42119377D01*
X158993123Y-42274098D01*
X159172361Y-42399602D01*
X159370670Y-42492075D01*
X159528522Y-42534371D01*
X159576790Y-42547305D01*
X159576791Y-42547305D01*
X159582023Y-42548707D01*
X159800000Y-42567777D01*
X160017977Y-42548707D01*
X160229330Y-42492075D01*
X160427639Y-42399602D01*
X160606877Y-42274098D01*
X160761598Y-42119377D01*
X160887102Y-41940139D01*
X160979575Y-41741830D01*
X161036207Y-41530477D01*
X161055277Y-41312500D01*
X161036207Y-41094523D01*
X160979575Y-40883170D01*
X160887102Y-40684862D01*
X160761598Y-40505623D01*
X160606877Y-40350902D01*
X160602446Y-40347799D01*
X160602442Y-40347796D01*
X160432068Y-40228499D01*
X160432066Y-40228497D01*
X160427639Y-40225398D01*
X160422742Y-40223114D01*
X160422736Y-40223111D01*
X160234236Y-40135212D01*
X160234229Y-40135209D01*
X160229330Y-40132925D01*
X160224103Y-40131524D01*
X160224102Y-40131524D01*
X160023209Y-40077694D01*
X160023199Y-40077692D01*
X160017977Y-40076293D01*
X160012585Y-40075821D01*
X160012578Y-40075820D01*
X159805395Y-40057695D01*
X159800000Y-40057223D01*
X159794605Y-40057695D01*
X159587421Y-40075820D01*
X159587412Y-40075821D01*
X159582023Y-40076293D01*
X159576802Y-40077691D01*
X159576790Y-40077694D01*
X159375897Y-40131524D01*
X159375892Y-40131525D01*
X159370670Y-40132925D01*
X159365774Y-40135207D01*
X159365763Y-40135212D01*
X159177272Y-40223108D01*
X159177268Y-40223110D01*
X159172362Y-40225398D01*
X159167929Y-40228501D01*
X159167922Y-40228506D01*
X158997558Y-40347796D01*
X158997553Y-40347799D01*
X158993123Y-40350902D01*
X158989299Y-40354725D01*
X158989293Y-40354731D01*
X158842231Y-40501793D01*
X158842225Y-40501799D01*
X158838402Y-40505623D01*
X158835299Y-40510053D01*
X158835296Y-40510058D01*
X158716006Y-40680422D01*
X158716001Y-40680429D01*
X158712898Y-40684862D01*
X158710610Y-40689768D01*
X158710608Y-40689772D01*
X158642382Y-40836083D01*
X158596625Y-40888259D01*
X158530000Y-40907678D01*
X158463375Y-40888259D01*
X158417618Y-40836083D01*
X158380071Y-40755564D01*
X158347102Y-40684862D01*
X158221598Y-40505623D01*
X158066877Y-40350902D01*
X158062446Y-40347799D01*
X158062442Y-40347796D01*
X157892068Y-40228499D01*
X157892066Y-40228497D01*
X157887639Y-40225398D01*
X157882742Y-40223114D01*
X157882736Y-40223111D01*
X157694236Y-40135212D01*
X157694229Y-40135209D01*
X157689330Y-40132925D01*
X157684103Y-40131524D01*
X157684102Y-40131524D01*
X157483209Y-40077694D01*
X157483199Y-40077692D01*
X157477977Y-40076293D01*
X157472585Y-40075821D01*
X157472578Y-40075820D01*
X157265395Y-40057695D01*
X157260000Y-40057223D01*
X157254605Y-40057695D01*
X157047421Y-40075820D01*
X157047412Y-40075821D01*
X157042023Y-40076293D01*
X157036802Y-40077691D01*
X157036790Y-40077694D01*
X156835897Y-40131524D01*
X156835892Y-40131525D01*
X156830670Y-40132925D01*
X156825774Y-40135207D01*
X156825763Y-40135212D01*
X156637272Y-40223108D01*
X156637268Y-40223110D01*
X156632362Y-40225398D01*
X156627929Y-40228501D01*
X156627922Y-40228506D01*
X156457558Y-40347796D01*
X156457553Y-40347799D01*
X156453123Y-40350902D01*
X156449299Y-40354725D01*
X156449293Y-40354731D01*
X156302231Y-40501793D01*
X156302225Y-40501799D01*
X156298402Y-40505623D01*
X156295299Y-40510053D01*
X156295296Y-40510058D01*
X156176006Y-40680422D01*
X156176001Y-40680429D01*
X156172898Y-40684862D01*
X156170610Y-40689768D01*
X156170608Y-40689772D01*
X156102382Y-40836083D01*
X156056625Y-40888259D01*
X155990000Y-40907678D01*
X155923375Y-40888259D01*
X155877618Y-40836083D01*
X155840071Y-40755564D01*
X155807102Y-40684862D01*
X155681598Y-40505623D01*
X155526877Y-40350902D01*
X155522446Y-40347799D01*
X155522442Y-40347796D01*
X155352068Y-40228499D01*
X155352066Y-40228497D01*
X155347639Y-40225398D01*
X155342742Y-40223114D01*
X155342736Y-40223111D01*
X155154236Y-40135212D01*
X155154229Y-40135209D01*
X155149330Y-40132925D01*
X155144103Y-40131524D01*
X155144102Y-40131524D01*
X154943209Y-40077694D01*
X154943199Y-40077692D01*
X154937977Y-40076293D01*
X154932585Y-40075821D01*
X154932578Y-40075820D01*
X154725395Y-40057695D01*
X154720000Y-40057223D01*
X154714605Y-40057695D01*
X154507421Y-40075820D01*
X154507412Y-40075821D01*
X154502023Y-40076293D01*
X154496802Y-40077691D01*
X154496790Y-40077694D01*
X154295897Y-40131524D01*
X154295892Y-40131525D01*
X154290670Y-40132925D01*
X154285774Y-40135207D01*
X154285763Y-40135212D01*
X154097272Y-40223108D01*
X154097268Y-40223110D01*
X154092362Y-40225398D01*
X154087929Y-40228501D01*
X154087922Y-40228506D01*
X153917558Y-40347796D01*
X153917553Y-40347799D01*
X153913123Y-40350902D01*
X153909299Y-40354725D01*
X153909293Y-40354731D01*
X153762231Y-40501793D01*
X153762225Y-40501799D01*
X153758402Y-40505623D01*
X153755299Y-40510053D01*
X153755296Y-40510058D01*
X153636006Y-40680422D01*
X153636001Y-40680429D01*
X153632898Y-40684862D01*
X153630610Y-40689768D01*
X153630608Y-40689772D01*
X153562382Y-40836083D01*
X153516625Y-40888259D01*
X153450000Y-40907678D01*
X153383375Y-40888259D01*
X153337618Y-40836083D01*
X153300071Y-40755564D01*
X153267102Y-40684862D01*
X153141598Y-40505623D01*
X152986877Y-40350902D01*
X152982446Y-40347799D01*
X152982442Y-40347796D01*
X152812068Y-40228499D01*
X152812066Y-40228497D01*
X152807639Y-40225398D01*
X152802742Y-40223114D01*
X152802736Y-40223111D01*
X152614236Y-40135212D01*
X152614229Y-40135209D01*
X152609330Y-40132925D01*
X152604103Y-40131524D01*
X152604102Y-40131524D01*
X152403209Y-40077694D01*
X152403199Y-40077692D01*
X152397977Y-40076293D01*
X152392585Y-40075821D01*
X152392578Y-40075820D01*
X152185395Y-40057695D01*
X152180000Y-40057223D01*
X152174605Y-40057695D01*
X151967421Y-40075820D01*
X151967412Y-40075821D01*
X151962023Y-40076293D01*
X151956802Y-40077691D01*
X151956790Y-40077694D01*
X151755897Y-40131524D01*
X151755892Y-40131525D01*
X151750670Y-40132925D01*
X151745774Y-40135207D01*
X151745763Y-40135212D01*
X151557272Y-40223108D01*
X151557268Y-40223110D01*
X151552362Y-40225398D01*
X151547929Y-40228501D01*
X151547922Y-40228506D01*
X151377558Y-40347796D01*
X151377553Y-40347799D01*
X151373123Y-40350902D01*
X151369299Y-40354725D01*
X151369293Y-40354731D01*
X151222231Y-40501793D01*
X151222225Y-40501799D01*
X151218402Y-40505623D01*
X151215299Y-40510053D01*
X151215296Y-40510058D01*
X151096006Y-40680422D01*
X151096001Y-40680429D01*
X151092898Y-40684862D01*
X151090610Y-40689768D01*
X151090608Y-40689772D01*
X151022382Y-40836083D01*
X150976625Y-40888259D01*
X150910000Y-40907678D01*
X150843375Y-40888259D01*
X150797618Y-40836083D01*
X150760071Y-40755564D01*
X150727102Y-40684862D01*
X150601598Y-40505623D01*
X150446877Y-40350902D01*
X150442446Y-40347799D01*
X150442442Y-40347796D01*
X150272068Y-40228499D01*
X150272066Y-40228497D01*
X150267639Y-40225398D01*
X150262742Y-40223114D01*
X150262736Y-40223111D01*
X150074236Y-40135212D01*
X150074229Y-40135209D01*
X150069330Y-40132925D01*
X150064103Y-40131524D01*
X150064102Y-40131524D01*
X149863209Y-40077694D01*
X149863199Y-40077692D01*
X149857977Y-40076293D01*
X149852585Y-40075821D01*
X149852578Y-40075820D01*
X149645395Y-40057695D01*
X149640000Y-40057223D01*
X149634605Y-40057695D01*
X149427421Y-40075820D01*
X149427412Y-40075821D01*
X149422023Y-40076293D01*
X149416802Y-40077691D01*
X149416790Y-40077694D01*
X149215897Y-40131524D01*
X149215892Y-40131525D01*
X149210670Y-40132925D01*
X149205774Y-40135207D01*
X149205763Y-40135212D01*
X149017272Y-40223108D01*
X149017268Y-40223110D01*
X149012362Y-40225398D01*
X149007929Y-40228501D01*
X149007922Y-40228506D01*
X148837558Y-40347796D01*
X148837553Y-40347799D01*
X148833123Y-40350902D01*
X148829299Y-40354725D01*
X148829293Y-40354731D01*
X148682231Y-40501793D01*
X148682225Y-40501799D01*
X148678402Y-40505623D01*
X148675299Y-40510053D01*
X148675296Y-40510058D01*
X148556006Y-40680422D01*
X148556001Y-40680429D01*
X148552898Y-40684862D01*
X148550610Y-40689768D01*
X148550608Y-40689772D01*
X148482382Y-40836083D01*
X148436625Y-40888259D01*
X148370000Y-40907678D01*
X148303375Y-40888259D01*
X148257618Y-40836083D01*
X148220071Y-40755564D01*
X148187102Y-40684862D01*
X148061598Y-40505623D01*
X147906877Y-40350902D01*
X147902446Y-40347799D01*
X147902442Y-40347796D01*
X147732068Y-40228499D01*
X147732066Y-40228497D01*
X147727639Y-40225398D01*
X147722742Y-40223114D01*
X147722736Y-40223111D01*
X147534236Y-40135212D01*
X147534229Y-40135209D01*
X147529330Y-40132925D01*
X147524103Y-40131524D01*
X147524102Y-40131524D01*
X147323209Y-40077694D01*
X147323199Y-40077692D01*
X147317977Y-40076293D01*
X147312585Y-40075821D01*
X147312578Y-40075820D01*
X147105395Y-40057695D01*
X147100000Y-40057223D01*
X147094605Y-40057695D01*
X146887421Y-40075820D01*
X146887412Y-40075821D01*
X146882023Y-40076293D01*
X146876802Y-40077691D01*
X146876790Y-40077694D01*
X146675897Y-40131524D01*
X146675892Y-40131525D01*
X146670670Y-40132925D01*
X146665774Y-40135207D01*
X146665763Y-40135212D01*
X146477272Y-40223108D01*
X146477268Y-40223110D01*
X146472362Y-40225398D01*
X146467929Y-40228501D01*
X146467922Y-40228506D01*
X146297558Y-40347796D01*
X146297553Y-40347799D01*
X146293123Y-40350902D01*
X146289299Y-40354725D01*
X146289293Y-40354731D01*
X146142231Y-40501793D01*
X146142225Y-40501799D01*
X146138402Y-40505623D01*
X146135299Y-40510053D01*
X146135296Y-40510058D01*
X146016006Y-40680422D01*
X146016001Y-40680429D01*
X146012898Y-40684862D01*
X146010610Y-40689768D01*
X146010608Y-40689772D01*
X145922712Y-40878263D01*
X145922707Y-40878274D01*
X145920425Y-40883170D01*
X145919025Y-40888392D01*
X145919024Y-40888397D01*
X145865194Y-41089290D01*
X145865191Y-41089302D01*
X145863793Y-41094523D01*
X145863321Y-41099912D01*
X145863320Y-41099921D01*
X145845467Y-41303987D01*
X145844723Y-41312500D01*
X144298197Y-41312500D01*
X144300831Y-41245488D01*
X144333666Y-41144437D01*
X144333666Y-41144433D01*
X144335674Y-41138256D01*
X144355460Y-40950000D01*
X144335674Y-40761744D01*
X144277179Y-40581716D01*
X144182533Y-40417784D01*
X144125761Y-40354733D01*
X144060220Y-40281942D01*
X144060219Y-40281941D01*
X144055871Y-40277112D01*
X144050613Y-40273292D01*
X144050611Y-40273290D01*
X143907988Y-40169669D01*
X143907987Y-40169668D01*
X143902730Y-40165849D01*
X143896792Y-40163205D01*
X143735745Y-40091501D01*
X143735740Y-40091499D01*
X143729803Y-40088856D01*
X143723444Y-40087504D01*
X143723440Y-40087503D01*
X143551008Y-40050852D01*
X143551005Y-40050851D01*
X143544646Y-40049500D01*
X143355354Y-40049500D01*
X143348995Y-40050851D01*
X143348991Y-40050852D01*
X143176559Y-40087503D01*
X143176552Y-40087505D01*
X143170197Y-40088856D01*
X143164262Y-40091498D01*
X143164254Y-40091501D01*
X143003207Y-40163205D01*
X143003202Y-40163207D01*
X142997270Y-40165849D01*
X142992016Y-40169665D01*
X142992011Y-40169669D01*
X142849388Y-40273290D01*
X142849381Y-40273295D01*
X142844129Y-40277112D01*
X142839784Y-40281937D01*
X142839779Y-40281942D01*
X142721813Y-40412956D01*
X142721808Y-40412962D01*
X142717467Y-40417784D01*
X142714222Y-40423404D01*
X142714218Y-40423410D01*
X142626069Y-40576089D01*
X142626066Y-40576094D01*
X142622821Y-40581716D01*
X142620815Y-40587888D01*
X142620813Y-40587894D01*
X142566333Y-40755564D01*
X142566331Y-40755573D01*
X142564326Y-40761744D01*
X142563648Y-40768194D01*
X142563646Y-40768204D01*
X142548988Y-40907678D01*
X142544540Y-40950000D01*
X121125500Y-40950000D01*
X121125500Y-34599500D01*
X121142113Y-34537500D01*
X121187500Y-34492113D01*
X121249500Y-34475500D01*
X210750500Y-34475500D01*
X210812500Y-34492113D01*
G37*
%TD.AperFunction*%
%TD*%
M02*
