M48
; DRILL file {KiCad (7.0.0)} date Thu Apr 20 18:13:18 2023
; FORMAT={-:-/ absolute / inch / decimal}
; #@! TF.CreationDate,2023-04-20T18:13:18-06:00
; #@! TF.GenerationSoftware,Kicad,Pcbnew,(7.0.0)
; #@! TF.FileFunction,Plated,1,2,PTH
FMAT,2
INCH
; #@! TA.AperFunction,Plated,PTH,ViaDrill
T1C0.0157
; #@! TA.AperFunction,Plated,PTH,ComponentDrill
T2C0.0394
; #@! TA.AperFunction,Plated,PTH,ComponentDrill
T3C0.0866
%
G90
G05
T1
X5.3642Y-3.5492
X5.5787Y-3.7037
X5.6024Y-2.8504
X5.6476Y-1.6122
X5.6762Y-3.6644
X5.7293Y-1.7106
X5.8061Y-3.5512
X5.812Y-3.6289
X5.8169Y-3.8642
X5.8524Y-3.0108
X5.9734Y-3.376
X5.9734Y-3.4764
X6.0285Y-2.8858
X6.1703Y-1.9636
X6.2431Y-2.7953
X6.248Y-3.4931
X6.248Y-3.5512
X6.25Y-4.3317
X6.2638Y-3.3337
X6.2884Y-4.3592
X6.2923Y-1.7677
X6.2933Y-3.2352
X6.3041Y-4.2333
X6.3219Y-4.6024
X6.3415Y-4.2795
X6.4281Y-3.1673
X6.4508Y-4.3376
X6.4685Y-3.4695
X6.5256Y-3.6368
X6.533Y-3.4306
X6.5591Y-3.9183
X6.5659Y-4.3799
X6.5866Y-3.3297
X6.5866Y-3.6791
X6.5876Y-3.1437
X6.6585Y-4.1909
X6.685Y-3.437
X6.753Y-4.2431
X6.7736Y-3.3228
X6.8258Y-3.6604
X6.878Y-3.3071
X6.878Y-4.0236
X6.8809Y-3.7874
X6.8986Y-3.1604
X6.9311Y-2.874
X6.94Y-3.3317
X6.9409Y-3.4065
X6.9488Y-3.8524
X6.9488Y-4.1083
X6.9537Y-2.3711
X6.9872Y-3.6959
X7.0315Y-3.5669
X7.0974Y-3.313
X7.0994Y-3.4291
X7.189Y-3.2264
X7.1969Y-3.5344
X7.2726Y-2.997
X7.2913Y-3.8612
X7.2913Y-4.4281
X7.3159Y-3.5364
T2
X5.2266Y-3.9699
X5.2266Y-4.0699
X5.3266Y-3.9699
X5.3266Y-4.0699
X5.4266Y-3.9699
X5.4266Y-4.0699
X5.5266Y-3.9699
X5.5266Y-4.0699
X5.7913Y-1.6265
X5.7913Y-2.2265
X5.8913Y-1.6265
X5.8913Y-2.2265
X5.9624Y-4.1929
X5.9624Y-4.2929
X5.9913Y-1.6265
X5.9913Y-2.2265
X6.0624Y-4.1929
X6.0624Y-4.2929
X6.0913Y-1.6265
X6.0913Y-2.2265
X6.1624Y-4.1929
X6.1624Y-4.2929
X6.1913Y-1.6265
X6.1913Y-2.2265
X6.2913Y-1.6265
X6.2913Y-2.2265
X7.6132Y-2.9616
X7.9124Y-2.9616
T3
X4.9803Y-4.7096
X4.9843Y-2.6457
X8.1122Y-4.7264
X8.1535Y-2.5709
T0
M30
