%TF.GenerationSoftware,KiCad,Pcbnew,(7.0.0)*%
%TF.CreationDate,2023-04-20T18:13:23-06:00*%
%TF.ProjectId,Phase_B_ATMEGA_v3,50686173-655f-4425-9f41-544d4547415f,rev?*%
%TF.SameCoordinates,Original*%
%TF.FileFunction,Legend,Bot*%
%TF.FilePolarity,Positive*%
%FSLAX46Y46*%
G04 Gerber Fmt 4.6, Leading zero omitted, Abs format (unit mm)*
G04 Created by KiCad (PCBNEW (7.0.0)) date 2023-04-20 18:13:23*
%MOMM*%
%LPD*%
G01*
G04 APERTURE LIST*
%ADD10C,0.150000*%
G04 APERTURE END LIST*
D10*
X206833333Y-38070714D02*
X206833333Y-38737380D01*
X207071428Y-37689761D02*
X207309523Y-38404047D01*
X207309523Y-38404047D02*
X206690476Y-38404047D01*
X205595238Y-37689761D02*
X206452380Y-38975476D01*
X205309523Y-37832619D02*
X205261904Y-37785000D01*
X205261904Y-37785000D02*
X205166666Y-37737380D01*
X205166666Y-37737380D02*
X204928571Y-37737380D01*
X204928571Y-37737380D02*
X204833333Y-37785000D01*
X204833333Y-37785000D02*
X204785714Y-37832619D01*
X204785714Y-37832619D02*
X204738095Y-37927857D01*
X204738095Y-37927857D02*
X204738095Y-38023095D01*
X204738095Y-38023095D02*
X204785714Y-38165952D01*
X204785714Y-38165952D02*
X205357142Y-38737380D01*
X205357142Y-38737380D02*
X204738095Y-38737380D01*
X204119047Y-37737380D02*
X204023809Y-37737380D01*
X204023809Y-37737380D02*
X203928571Y-37785000D01*
X203928571Y-37785000D02*
X203880952Y-37832619D01*
X203880952Y-37832619D02*
X203833333Y-37927857D01*
X203833333Y-37927857D02*
X203785714Y-38118333D01*
X203785714Y-38118333D02*
X203785714Y-38356428D01*
X203785714Y-38356428D02*
X203833333Y-38546904D01*
X203833333Y-38546904D02*
X203880952Y-38642142D01*
X203880952Y-38642142D02*
X203928571Y-38689761D01*
X203928571Y-38689761D02*
X204023809Y-38737380D01*
X204023809Y-38737380D02*
X204119047Y-38737380D01*
X204119047Y-38737380D02*
X204214285Y-38689761D01*
X204214285Y-38689761D02*
X204261904Y-38642142D01*
X204261904Y-38642142D02*
X204309523Y-38546904D01*
X204309523Y-38546904D02*
X204357142Y-38356428D01*
X204357142Y-38356428D02*
X204357142Y-38118333D01*
X204357142Y-38118333D02*
X204309523Y-37927857D01*
X204309523Y-37927857D02*
X204261904Y-37832619D01*
X204261904Y-37832619D02*
X204214285Y-37785000D01*
X204214285Y-37785000D02*
X204119047Y-37737380D01*
X202642857Y-37689761D02*
X203499999Y-38975476D01*
X202357142Y-37832619D02*
X202309523Y-37785000D01*
X202309523Y-37785000D02*
X202214285Y-37737380D01*
X202214285Y-37737380D02*
X201976190Y-37737380D01*
X201976190Y-37737380D02*
X201880952Y-37785000D01*
X201880952Y-37785000D02*
X201833333Y-37832619D01*
X201833333Y-37832619D02*
X201785714Y-37927857D01*
X201785714Y-37927857D02*
X201785714Y-38023095D01*
X201785714Y-38023095D02*
X201833333Y-38165952D01*
X201833333Y-38165952D02*
X202404761Y-38737380D01*
X202404761Y-38737380D02*
X201785714Y-38737380D01*
X201452380Y-37737380D02*
X200833333Y-37737380D01*
X200833333Y-37737380D02*
X201166666Y-38118333D01*
X201166666Y-38118333D02*
X201023809Y-38118333D01*
X201023809Y-38118333D02*
X200928571Y-38165952D01*
X200928571Y-38165952D02*
X200880952Y-38213571D01*
X200880952Y-38213571D02*
X200833333Y-38308809D01*
X200833333Y-38308809D02*
X200833333Y-38546904D01*
X200833333Y-38546904D02*
X200880952Y-38642142D01*
X200880952Y-38642142D02*
X200928571Y-38689761D01*
X200928571Y-38689761D02*
X201023809Y-38737380D01*
X201023809Y-38737380D02*
X201309523Y-38737380D01*
X201309523Y-38737380D02*
X201404761Y-38689761D01*
X201404761Y-38689761D02*
X201452380Y-38642142D01*
X207404761Y-39357380D02*
X207071428Y-40357380D01*
X207071428Y-40357380D02*
X206738095Y-39357380D01*
X206023809Y-40309761D02*
X206119047Y-40357380D01*
X206119047Y-40357380D02*
X206309523Y-40357380D01*
X206309523Y-40357380D02*
X206404761Y-40309761D01*
X206404761Y-40309761D02*
X206452380Y-40214523D01*
X206452380Y-40214523D02*
X206452380Y-39833571D01*
X206452380Y-39833571D02*
X206404761Y-39738333D01*
X206404761Y-39738333D02*
X206309523Y-39690714D01*
X206309523Y-39690714D02*
X206119047Y-39690714D01*
X206119047Y-39690714D02*
X206023809Y-39738333D01*
X206023809Y-39738333D02*
X205976190Y-39833571D01*
X205976190Y-39833571D02*
X205976190Y-39928809D01*
X205976190Y-39928809D02*
X206452380Y-40024047D01*
X205547618Y-40357380D02*
X205547618Y-39690714D01*
X205547618Y-39881190D02*
X205499999Y-39785952D01*
X205499999Y-39785952D02*
X205452380Y-39738333D01*
X205452380Y-39738333D02*
X205357142Y-39690714D01*
X205357142Y-39690714D02*
X205261904Y-39690714D01*
X204976189Y-40309761D02*
X204880951Y-40357380D01*
X204880951Y-40357380D02*
X204690475Y-40357380D01*
X204690475Y-40357380D02*
X204595237Y-40309761D01*
X204595237Y-40309761D02*
X204547618Y-40214523D01*
X204547618Y-40214523D02*
X204547618Y-40166904D01*
X204547618Y-40166904D02*
X204595237Y-40071666D01*
X204595237Y-40071666D02*
X204690475Y-40024047D01*
X204690475Y-40024047D02*
X204833332Y-40024047D01*
X204833332Y-40024047D02*
X204928570Y-39976428D01*
X204928570Y-39976428D02*
X204976189Y-39881190D01*
X204976189Y-39881190D02*
X204976189Y-39833571D01*
X204976189Y-39833571D02*
X204928570Y-39738333D01*
X204928570Y-39738333D02*
X204833332Y-39690714D01*
X204833332Y-39690714D02*
X204690475Y-39690714D01*
X204690475Y-39690714D02*
X204595237Y-39738333D01*
X204119046Y-40357380D02*
X204119046Y-39690714D01*
X204119046Y-39357380D02*
X204166665Y-39405000D01*
X204166665Y-39405000D02*
X204119046Y-39452619D01*
X204119046Y-39452619D02*
X204071427Y-39405000D01*
X204071427Y-39405000D02*
X204119046Y-39357380D01*
X204119046Y-39357380D02*
X204119046Y-39452619D01*
X203499999Y-40357380D02*
X203595237Y-40309761D01*
X203595237Y-40309761D02*
X203642856Y-40262142D01*
X203642856Y-40262142D02*
X203690475Y-40166904D01*
X203690475Y-40166904D02*
X203690475Y-39881190D01*
X203690475Y-39881190D02*
X203642856Y-39785952D01*
X203642856Y-39785952D02*
X203595237Y-39738333D01*
X203595237Y-39738333D02*
X203499999Y-39690714D01*
X203499999Y-39690714D02*
X203357142Y-39690714D01*
X203357142Y-39690714D02*
X203261904Y-39738333D01*
X203261904Y-39738333D02*
X203214285Y-39785952D01*
X203214285Y-39785952D02*
X203166666Y-39881190D01*
X203166666Y-39881190D02*
X203166666Y-40166904D01*
X203166666Y-40166904D02*
X203214285Y-40262142D01*
X203214285Y-40262142D02*
X203261904Y-40309761D01*
X203261904Y-40309761D02*
X203357142Y-40357380D01*
X203357142Y-40357380D02*
X203499999Y-40357380D01*
X202738094Y-39690714D02*
X202738094Y-40357380D01*
X202738094Y-39785952D02*
X202690475Y-39738333D01*
X202690475Y-39738333D02*
X202595237Y-39690714D01*
X202595237Y-39690714D02*
X202452380Y-39690714D01*
X202452380Y-39690714D02*
X202357142Y-39738333D01*
X202357142Y-39738333D02*
X202309523Y-39833571D01*
X202309523Y-39833571D02*
X202309523Y-40357380D01*
X201280951Y-39452619D02*
X201233332Y-39405000D01*
X201233332Y-39405000D02*
X201138094Y-39357380D01*
X201138094Y-39357380D02*
X200899999Y-39357380D01*
X200899999Y-39357380D02*
X200804761Y-39405000D01*
X200804761Y-39405000D02*
X200757142Y-39452619D01*
X200757142Y-39452619D02*
X200709523Y-39547857D01*
X200709523Y-39547857D02*
X200709523Y-39643095D01*
X200709523Y-39643095D02*
X200757142Y-39785952D01*
X200757142Y-39785952D02*
X201328570Y-40357380D01*
X201328570Y-40357380D02*
X200709523Y-40357380D01*
M02*
