%TF.GenerationSoftware,KiCad,Pcbnew,(7.0.0)*%
%TF.CreationDate,2023-04-20T18:13:23-06:00*%
%TF.ProjectId,Phase_B_ATMEGA_v3,50686173-655f-4425-9f41-544d4547415f,rev?*%
%TF.SameCoordinates,Original*%
%TF.FileFunction,Soldermask,Top*%
%TF.FilePolarity,Negative*%
%FSLAX46Y46*%
G04 Gerber Fmt 4.6, Leading zero omitted, Abs format (unit mm)*
G04 Created by KiCad (PCBNEW (7.0.0)) date 2023-04-20 18:13:23*
%MOMM*%
%LPD*%
G01*
G04 APERTURE LIST*
G04 Aperture macros list*
%AMRoundRect*
0 Rectangle with rounded corners*
0 $1 Rounding radius*
0 $2 $3 $4 $5 $6 $7 $8 $9 X,Y pos of 4 corners*
0 Add a 4 corners polygon primitive as box body*
4,1,4,$2,$3,$4,$5,$6,$7,$8,$9,$2,$3,0*
0 Add four circle primitives for the rounded corners*
1,1,$1+$1,$2,$3*
1,1,$1+$1,$4,$5*
1,1,$1+$1,$6,$7*
1,1,$1+$1,$8,$9*
0 Add four rect primitives between the rounded corners*
20,1,$1+$1,$2,$3,$4,$5,0*
20,1,$1+$1,$4,$5,$6,$7,0*
20,1,$1+$1,$6,$7,$8,$9,0*
20,1,$1+$1,$8,$9,$2,$3,0*%
G04 Aperture macros list end*
%ADD10C,3.800000*%
%ADD11RoundRect,0.250000X0.450000X-0.262500X0.450000X0.262500X-0.450000X0.262500X-0.450000X-0.262500X0*%
%ADD12RoundRect,0.250000X-0.262500X-0.450000X0.262500X-0.450000X0.262500X0.450000X-0.262500X0.450000X0*%
%ADD13C,1.000000*%
%ADD14R,2.000000X0.500000*%
%ADD15R,1.700000X2.000000*%
%ADD16RoundRect,0.225000X0.250000X-0.225000X0.250000X0.225000X-0.250000X0.225000X-0.250000X-0.225000X0*%
%ADD17RoundRect,0.250000X-0.450000X0.262500X-0.450000X-0.262500X0.450000X-0.262500X0.450000X0.262500X0*%
%ADD18RoundRect,0.225000X-0.250000X0.225000X-0.250000X-0.225000X0.250000X-0.225000X0.250000X0.225000X0*%
%ADD19RoundRect,0.250000X0.475000X-0.250000X0.475000X0.250000X-0.475000X0.250000X-0.475000X-0.250000X0*%
%ADD20R,2.000000X2.000000*%
%ADD21C,2.000000*%
%ADD22RoundRect,0.225000X0.225000X0.250000X-0.225000X0.250000X-0.225000X-0.250000X0.225000X-0.250000X0*%
%ADD23RoundRect,0.200000X0.200000X0.275000X-0.200000X0.275000X-0.200000X-0.275000X0.200000X-0.275000X0*%
%ADD24RoundRect,0.200000X-0.200000X-0.275000X0.200000X-0.275000X0.200000X0.275000X-0.200000X0.275000X0*%
%ADD25RoundRect,0.150000X-0.512500X-0.150000X0.512500X-0.150000X0.512500X0.150000X-0.512500X0.150000X0*%
%ADD26RoundRect,0.243750X0.243750X0.456250X-0.243750X0.456250X-0.243750X-0.456250X0.243750X-0.456250X0*%
%ADD27RoundRect,0.100000X-0.637500X-0.100000X0.637500X-0.100000X0.637500X0.100000X-0.637500X0.100000X0*%
%ADD28R,1.000000X0.700000*%
%ADD29RoundRect,0.150000X-0.150000X0.512500X-0.150000X-0.512500X0.150000X-0.512500X0.150000X0.512500X0*%
%ADD30R,1.200000X1.400000*%
%ADD31RoundRect,0.250000X-0.312500X-1.450000X0.312500X-1.450000X0.312500X1.450000X-0.312500X1.450000X0*%
%ADD32R,1.500000X0.550000*%
%ADD33R,0.550000X1.500000*%
%ADD34RoundRect,0.225000X-0.225000X-0.250000X0.225000X-0.250000X0.225000X0.250000X-0.225000X0.250000X0*%
%ADD35R,2.000000X1.500000*%
%ADD36R,1.700000X1.700000*%
%ADD37O,1.700000X1.700000*%
%ADD38R,1.500000X1.500000*%
%ADD39C,1.500000*%
%ADD40RoundRect,0.243750X-0.243750X-0.456250X0.243750X-0.456250X0.243750X0.456250X-0.243750X0.456250X0*%
G04 APERTURE END LIST*
D10*
%TO.C,REF\u002A\u002A*%
X206050000Y-120050000D03*
%TD*%
%TO.C,REF\u002A\u002A*%
X126500000Y-119625000D03*
%TD*%
%TO.C,REF\u002A\u002A*%
X207100000Y-65300000D03*
%TD*%
%TO.C,REF\u002A\u002A*%
X126600000Y-67200000D03*
%TD*%
D11*
%TO.C,R12*%
X159900000Y-65637500D03*
X159900000Y-63812500D03*
%TD*%
D12*
%TO.C,R4*%
X185175000Y-79600000D03*
X187000000Y-79600000D03*
%TD*%
D13*
%TO.C,J2*%
X132000000Y-86275000D03*
X132000000Y-90675000D03*
D14*
X134699999Y-86874999D03*
X134699999Y-87674999D03*
X134699999Y-88474999D03*
X134699999Y-89274999D03*
X134699999Y-90074999D03*
D15*
X134599999Y-84024999D03*
X129149999Y-84024999D03*
X134599999Y-92924999D03*
X129149999Y-92924999D03*
%TD*%
D16*
%TO.C,C12*%
X166525000Y-81450000D03*
X166525000Y-79900000D03*
%TD*%
D11*
%TO.C,R8*%
X148625000Y-65312500D03*
X148625000Y-63487500D03*
%TD*%
D17*
%TO.C,R2*%
X186525000Y-110625000D03*
X186525000Y-112450000D03*
%TD*%
D18*
%TO.C,C5*%
X176450000Y-92200000D03*
X176450000Y-93750000D03*
%TD*%
D19*
%TO.C,C8*%
X161100000Y-84125000D03*
X161100000Y-82225000D03*
%TD*%
D11*
%TO.C,R7*%
X154650000Y-65412500D03*
X154650000Y-63587500D03*
%TD*%
D20*
%TO.C,LS1*%
X193374999Y-75224999D03*
D21*
X200975000Y-75225000D03*
%TD*%
D22*
%TO.C,C6*%
X161375000Y-85675000D03*
X159825000Y-85675000D03*
%TD*%
D11*
%TO.C,R5*%
X163300000Y-65737500D03*
X163300000Y-63912500D03*
%TD*%
D23*
%TO.C,R16*%
X142100000Y-75775000D03*
X140450000Y-75775000D03*
%TD*%
D12*
%TO.C,R3*%
X176225000Y-76400000D03*
X178050000Y-76400000D03*
%TD*%
D24*
%TO.C,R14*%
X137750000Y-88925000D03*
X139400000Y-88925000D03*
%TD*%
D18*
%TO.C,C7*%
X166550000Y-96575000D03*
X166550000Y-98125000D03*
%TD*%
D25*
%TO.C,U4*%
X146375000Y-87175000D03*
X146375000Y-88125000D03*
X146375000Y-89075000D03*
X148650000Y-89075000D03*
X148650000Y-88125000D03*
X148650000Y-87175000D03*
%TD*%
D11*
%TO.C,R6*%
X151650000Y-65362500D03*
X151650000Y-63537500D03*
%TD*%
D22*
%TO.C,C10*%
X161375000Y-90250000D03*
X159825000Y-90250000D03*
%TD*%
D26*
%TO.C,D3*%
X142275000Y-73925000D03*
X140400000Y-73925000D03*
%TD*%
D23*
%TO.C,R13*%
X161350000Y-112300000D03*
X159700000Y-112300000D03*
%TD*%
D18*
%TO.C,C2*%
X170400000Y-108225000D03*
X170400000Y-109775000D03*
%TD*%
D27*
%TO.C,U2*%
X148625000Y-71325000D03*
X148625000Y-71975000D03*
X148625000Y-72625000D03*
X148625000Y-73275000D03*
X148625000Y-73925000D03*
X148625000Y-74575000D03*
X148625000Y-75225000D03*
X148625000Y-75875000D03*
X154350000Y-75875000D03*
X154350000Y-75225000D03*
X154350000Y-74575000D03*
X154350000Y-73925000D03*
X154350000Y-73275000D03*
X154350000Y-72625000D03*
X154350000Y-71975000D03*
X154350000Y-71325000D03*
%TD*%
D17*
%TO.C,R1*%
X186625000Y-96275000D03*
X186625000Y-98100000D03*
%TD*%
D28*
%TO.C,S3*%
X160537499Y-117849999D03*
X154537499Y-117849999D03*
X160537499Y-114149999D03*
X154537499Y-114149999D03*
%TD*%
D11*
%TO.C,R11*%
X157250000Y-65612500D03*
X157250000Y-63787500D03*
%TD*%
D29*
%TO.C,U5*%
X145125000Y-94237500D03*
X144175000Y-94237500D03*
X143225000Y-94237500D03*
X143225000Y-96512500D03*
X145125000Y-96512500D03*
%TD*%
D11*
%TO.C,R10*%
X143200000Y-65187500D03*
X143200000Y-63362500D03*
%TD*%
D30*
%TO.C,Y1*%
X168474999Y-110124999D03*
X168474999Y-107924999D03*
X166774999Y-107924999D03*
X166774999Y-110124999D03*
%TD*%
D22*
%TO.C,C9*%
X161400000Y-88725000D03*
X159850000Y-88725000D03*
%TD*%
D31*
%TO.C,F1*%
X137750000Y-78500000D03*
X142025000Y-78500000D03*
%TD*%
D32*
%TO.C,U3*%
X163199999Y-84924999D03*
X163199999Y-85724999D03*
X163199999Y-86524999D03*
X163199999Y-87324999D03*
X163199999Y-88124999D03*
X163199999Y-88924999D03*
X163199999Y-89724999D03*
X163199999Y-90524999D03*
X163199999Y-91324999D03*
X163199999Y-92124999D03*
X163199999Y-92924999D03*
D33*
X164899999Y-94624999D03*
X165699999Y-94624999D03*
X166499999Y-94624999D03*
X167299999Y-94624999D03*
X168099999Y-94624999D03*
X168899999Y-94624999D03*
X169699999Y-94624999D03*
X170499999Y-94624999D03*
X171299999Y-94624999D03*
X172099999Y-94624999D03*
X172899999Y-94624999D03*
D32*
X174599999Y-92924999D03*
X174599999Y-92124999D03*
X174599999Y-91324999D03*
X174599999Y-90524999D03*
X174599999Y-89724999D03*
X174599999Y-88924999D03*
X174599999Y-88124999D03*
X174599999Y-87324999D03*
X174599999Y-86524999D03*
X174599999Y-85724999D03*
X174599999Y-84924999D03*
D33*
X172899999Y-83224999D03*
X172099999Y-83224999D03*
X171299999Y-83224999D03*
X170499999Y-83224999D03*
X169699999Y-83224999D03*
X168899999Y-83224999D03*
X168099999Y-83224999D03*
X167299999Y-83224999D03*
X166499999Y-83224999D03*
X165699999Y-83224999D03*
X164899999Y-83224999D03*
%TD*%
D34*
%TO.C,C4*%
X172975000Y-81300000D03*
X174525000Y-81300000D03*
%TD*%
D35*
%TO.C,S2*%
X203874999Y-110924999D03*
X189574999Y-110924999D03*
X203874999Y-105924999D03*
X189574999Y-105924999D03*
%TD*%
D24*
%TO.C,R17*%
X137825000Y-98000000D03*
X139475000Y-98000000D03*
%TD*%
D36*
%TO.C,J1*%
X156524999Y-109039999D03*
D37*
X156524999Y-106499999D03*
X153984999Y-109039999D03*
X153984999Y-106499999D03*
X151444999Y-109039999D03*
X151444999Y-106499999D03*
%TD*%
D35*
%TO.C,S1*%
X204074999Y-95774999D03*
X189774999Y-95774999D03*
X204074999Y-90774999D03*
X189774999Y-90774999D03*
%TD*%
D38*
%TO.C,U1*%
X147099999Y-56552499D03*
D39*
X149640000Y-56552500D03*
X152180000Y-56552500D03*
X154720000Y-56552500D03*
X157260000Y-56552500D03*
X159800000Y-56552500D03*
X159800000Y-41312500D03*
X157260000Y-41312500D03*
X154720000Y-41312500D03*
X152180000Y-41312500D03*
X149640000Y-41312500D03*
X147100000Y-41312500D03*
%TD*%
D34*
%TO.C,C1*%
X156075000Y-70950000D03*
X157625000Y-70950000D03*
%TD*%
D40*
%TO.C,D1*%
X176200000Y-74350000D03*
X178075000Y-74350000D03*
%TD*%
D16*
%TO.C,C13*%
X146675000Y-93750000D03*
X146675000Y-92200000D03*
%TD*%
D11*
%TO.C,R9*%
X145950000Y-65262500D03*
X145950000Y-63437500D03*
%TD*%
D16*
%TO.C,C15*%
X141650000Y-96675000D03*
X141650000Y-95125000D03*
%TD*%
D18*
%TO.C,C3*%
X164725000Y-108525000D03*
X164725000Y-110075000D03*
%TD*%
D24*
%TO.C,R15*%
X137700000Y-87325000D03*
X139350000Y-87325000D03*
%TD*%
D36*
%TO.C,J3*%
X132754999Y-100834999D03*
D37*
X132754999Y-103374999D03*
X135294999Y-100834999D03*
X135294999Y-103374999D03*
X137834999Y-100834999D03*
X137834999Y-103374999D03*
X140374999Y-100834999D03*
X140374999Y-103374999D03*
%TD*%
D18*
%TO.C,C14*%
X146725000Y-96525000D03*
X146725000Y-98075000D03*
%TD*%
D22*
%TO.C,C11*%
X164925000Y-81375000D03*
X163375000Y-81375000D03*
%TD*%
D40*
%TO.C,D2*%
X185175000Y-77575000D03*
X187050000Y-77575000D03*
%TD*%
M02*
